<svg xmlns="http://www.w3.org/2000/svg" xmlns:xlink="http://www.w3.org/1999/xlink" contentStyleType="text/css" data-diagram-type="CLASS" height="1023px" preserveAspectRatio="none" style="width:742px;height:1023px;background:#FFFFFF;" version="1.1" viewBox="0 0 742 1023" width="742px" zoomAndPan="magnify"><title>Modelo Conceitual de Dados - Irriga&#231;&#227;o Automatizada em Pomares e Pequenas Planta&#231;&#245;es</title><defs/><g><g class="title" data-source-line="1"><text fill="#000000" font-family="sans-serif" font-size="14" font-weight="bold" lengthAdjust="spacing" textLength="714.7451" x="10" y="22.9951">Modelo Conceitual de Dados - Irriga&#231;&#227;o Automatizada em Pomares e Pequenas Planta&#231;&#245;es</text></g><!--class Usuario--><g class="entity" data-entity="Usuario" data-source-line="3" data-uid="ent0002" id="entity_Usuario"><rect fill="#F1F1F1" height="129.4844" rx="2.5" ry="2.5" style="stroke:#181818;stroke-width:0.5;" width="140.4541" x="325.5035" y="44.2969"/><ellipse cx="365.366" cy="60.2969" fill="#ADD1B2" rx="11" ry="11" style="stroke:#181818;stroke-width:1;"/><path d="M369.4754,66.2969 L361.7566,66.2969 L361.7566,53.9063 L369.4754,53.9063 L369.4754,56.0625 L364.2097,56.0625 L364.2097,58.7344 L368.9754,58.7344 L368.9754,60.8906 L364.2097,60.8906 L364.2097,64.1406 L369.4754,64.1406 L369.4754,66.2969 Z " fill="#000000"/><text fill="#000000" font-family="sans-serif" font-size="14" lengthAdjust="spacing" textLength="53.2041" x="384.891" y="65.1436">Usu&#225;rio</text><line style="stroke:#181818;stroke-width:0.5;" x1="326.5035" x2="464.9576" y1="76.2969" y2="76.2969"/><ellipse cx="336.5035" cy="89.9453" fill="none" rx="3" ry="3" style="stroke:#038048;stroke-width:1;"/><text fill="#000000" font-family="sans-serif" font-size="14" lengthAdjust="spacing" textLength="106.9824" x="345.5035" y="93.292">ID_Usuario : int</text><text fill="#000000" font-family="sans-serif" font-size="14" lengthAdjust="spacing" textLength="95.0947" x="345.5035" y="109.5889">Nome : string</text><text fill="#000000" font-family="sans-serif" font-size="14" lengthAdjust="spacing" textLength="92.6475" x="345.5035" y="125.8857">Email : string</text><text fill="#000000" font-family="sans-serif" font-size="14" lengthAdjust="spacing" textLength="80.0762" x="345.5035" y="142.1826">CPF : string</text><text fill="#000000" font-family="sans-serif" font-size="14" lengthAdjust="spacing" textLength="114.4541" x="345.5035" y="158.4795">Telefone : string</text><line style="stroke:#181818;stroke-width:0.5;" x1="326.5035" x2="464.9576" y1="165.7813" y2="165.7813"/></g><!--class Dispositivo--><g class="entity" data-entity="Dispositivo" data-source-line="11" data-uid="ent0003" id="entity_Dispositivo"><rect fill="#F1F1F1" height="129.4844" rx="2.5" ry="2.5" style="stroke:#181818;stroke-width:0.5;" width="168.1924" x="311.6335" y="250.7869"/><ellipse cx="326.6335" cy="266.7869" fill="#ADD1B2" rx="11" ry="11" style="stroke:#181818;stroke-width:1;"/><path d="M330.7429,272.7869 L323.0241,272.7869 L323.0241,260.3963 L330.7429,260.3963 L330.7429,262.5525 L325.4772,262.5525 L325.4772,265.2244 L330.2429,265.2244 L330.2429,267.3806 L325.4772,267.3806 L325.4772,270.6306 L330.7429,270.6306 L330.7429,272.7869 Z " fill="#000000"/><text fill="#000000" font-family="sans-serif" font-size="14" lengthAdjust="spacing" textLength="136.1924" x="340.6335" y="271.6336">Dispositivo (ESP32)</text><line style="stroke:#181818;stroke-width:0.5;" x1="312.6335" x2="478.8259" y1="282.7869" y2="282.7869"/><ellipse cx="322.6335" cy="296.4353" fill="none" rx="3" ry="3" style="stroke:#038048;stroke-width:1;"/><text fill="#000000" font-family="sans-serif" font-size="14" lengthAdjust="spacing" textLength="130.6074" x="331.6335" y="299.782">ID_Dispositivo : int</text><text fill="#000000" font-family="sans-serif" font-size="14" lengthAdjust="spacing" textLength="95.0947" x="331.6335" y="316.0789">Nome : string</text><text fill="#000000" font-family="sans-serif" font-size="14" lengthAdjust="spacing" textLength="134.9961" x="331.6335" y="332.3757">Localizacao : string</text><text fill="#000000" font-family="sans-serif" font-size="14" lengthAdjust="spacing" textLength="98.417" x="331.6335" y="348.6726">Status : string</text><text fill="#000000" font-family="sans-serif" font-size="14" lengthAdjust="spacing" textLength="106.9824" x="331.6335" y="364.9695">ID_Usuario : int</text><line style="stroke:#181818;stroke-width:0.5;" x1="312.6335" x2="478.8259" y1="372.2713" y2="372.2713"/></g><!--class Planta--><g class="entity" data-entity="Planta" data-source-line="19" data-uid="ent0004" id="entity_Planta"><rect fill="#F1F1F1" height="145.7813" rx="2.5" ry="2.5" style="stroke:#181818;stroke-width:0.5;" width="222.957" x="284.2435" y="457.2669"/><ellipse cx="307.0056" cy="473.2669" fill="#ADD1B2" rx="11" ry="11" style="stroke:#181818;stroke-width:1;"/><path d="M311.1149,479.2669 L303.3962,479.2669 L303.3962,466.8763 L311.1149,466.8763 L311.1149,469.0325 L305.8493,469.0325 L305.8493,471.7044 L310.6149,471.7044 L310.6149,473.8606 L305.8493,473.8606 L305.8493,477.1106 L311.1149,477.1106 L311.1149,479.2669 Z " fill="#000000"/><text fill="#000000" font-family="sans-serif" font-size="14" lengthAdjust="spacing" textLength="173.708" x="322.7305" y="478.1136">Planta / &#193;rea Monitorada</text><line style="stroke:#181818;stroke-width:0.5;" x1="285.2435" x2="506.2005" y1="489.2669" y2="489.2669"/><ellipse cx="295.2435" cy="502.9153" fill="none" rx="3" ry="3" style="stroke:#038048;stroke-width:1;"/><text fill="#000000" font-family="sans-serif" font-size="14" lengthAdjust="spacing" textLength="97.6309" x="304.2435" y="506.262">ID_Planta : int</text><text fill="#000000" font-family="sans-serif" font-size="14" lengthAdjust="spacing" textLength="138.9473" x="304.2435" y="522.5589">NomePlanta : string</text><text fill="#000000" font-family="sans-serif" font-size="14" lengthAdjust="spacing" textLength="86.3311" x="304.2435" y="538.8557">&#193;rea : string</text><text fill="#000000" font-family="sans-serif" font-size="14" lengthAdjust="spacing" textLength="192.8555" x="304.2435" y="555.1526">UmidadeMinimaIdeal : float</text><text fill="#000000" font-family="sans-serif" font-size="14" lengthAdjust="spacing" textLength="196.957" x="304.2435" y="571.4495">UmidadeMaximaIdeal : float</text><text fill="#000000" font-family="sans-serif" font-size="14" lengthAdjust="spacing" textLength="130.6074" x="304.2435" y="587.7464">ID_Dispositivo : int</text><line style="stroke:#181818;stroke-width:0.5;" x1="285.2435" x2="506.2005" y1="595.0481" y2="595.0481"/></g><!--class Sensor--><g class="entity" data-entity="Sensor" data-source-line="28" data-uid="ent0005" id="entity_Sensor"><rect fill="#F1F1F1" height="129.4844" rx="2.5" ry="2.5" style="stroke:#181818;stroke-width:0.5;" width="208.9844" x="79.2335" y="680.0469"/><ellipse cx="155.4815" cy="696.0469" fill="#ADD1B2" rx="11" ry="11" style="stroke:#181818;stroke-width:1;"/><path d="M159.5909,702.0469 L151.8722,702.0469 L151.8722,689.6563 L159.5909,689.6563 L159.5909,691.8125 L154.3253,691.8125 L154.3253,694.4844 L159.0909,694.4844 L159.0909,696.6406 L154.3253,696.6406 L154.3253,699.8906 L159.5909,699.8906 L159.5909,702.0469 Z " fill="#000000"/><text fill="#000000" font-family="sans-serif" font-size="14" lengthAdjust="spacing" textLength="47.9883" x="175.9815" y="700.8936">Sensor</text><line style="stroke:#181818;stroke-width:0.5;" x1="80.2335" x2="287.2179" y1="712.0469" y2="712.0469"/><ellipse cx="90.2335" cy="725.6953" fill="none" rx="3" ry="3" style="stroke:#038048;stroke-width:1;"/><text fill="#000000" font-family="sans-serif" font-size="14" lengthAdjust="spacing" textLength="101.7666" x="99.2335" y="729.042">ID_Sensor : int</text><text fill="#000000" font-family="sans-serif" font-size="14" lengthAdjust="spacing" textLength="83.6992" x="99.2335" y="745.3389">Tipo : string</text><text fill="#000000" font-family="sans-serif" font-size="14" lengthAdjust="spacing" textLength="182.9844" x="99.2335" y="761.6357">LocalizacaoSensor : string</text><text fill="#000000" font-family="sans-serif" font-size="14" lengthAdjust="spacing" textLength="130.6074" x="99.2335" y="777.9326">ID_Dispositivo : int</text><text fill="#000000" font-family="sans-serif" font-size="14" lengthAdjust="spacing" textLength="97.6309" x="99.2335" y="794.2295">ID_Planta : int</text><line style="stroke:#181818;stroke-width:0.5;" x1="80.2335" x2="287.2179" y1="801.5313" y2="801.5313"/></g><!--class Leitura--><g class="entity" data-entity="Leitura" data-source-line="36" data-uid="ent0006" id="entity_Leitura"><rect fill="#F1F1F1" height="129.4844" rx="2.5" ry="2.5" style="stroke:#181818;stroke-width:0.5;" width="169.6709" x="185.8935" y="886.5369"/><ellipse cx="207.3205" cy="902.5369" fill="#ADD1B2" rx="11" ry="11" style="stroke:#181818;stroke-width:1;"/><path d="M211.4299,908.5369 L203.7111,908.5369 L203.7111,896.1463 L211.4299,896.1463 L211.4299,898.3025 L206.1642,898.3025 L206.1642,900.9744 L210.9299,900.9744 L210.9299,903.1306 L206.1642,903.1306 L206.1642,906.3806 L211.4299,906.3806 L211.4299,908.5369 Z " fill="#000000"/><text fill="#000000" font-family="sans-serif" font-size="14" lengthAdjust="spacing" textLength="123.3887" x="222.7487" y="907.3836">Leitura de Sensor</text><line style="stroke:#181818;stroke-width:0.5;" x1="186.8935" x2="354.5644" y1="918.5369" y2="918.5369"/><ellipse cx="196.8935" cy="932.1853" fill="none" rx="3" ry="3" style="stroke:#038048;stroke-width:1;"/><text fill="#000000" font-family="sans-serif" font-size="14" lengthAdjust="spacing" textLength="102.7783" x="205.8935" y="935.532">ID_Leitura : int</text><text fill="#000000" font-family="sans-serif" font-size="14" lengthAdjust="spacing" textLength="143.6709" x="205.8935" y="951.8289">DataHora : datetime</text><text fill="#000000" font-family="sans-serif" font-size="14" lengthAdjust="spacing" textLength="110.5781" x="205.8935" y="968.1257">ValorLido : float</text><text fill="#000000" font-family="sans-serif" font-size="14" lengthAdjust="spacing" textLength="101.7666" x="205.8935" y="984.4226">ID_Sensor : int</text><text fill="#000000" font-family="sans-serif" font-size="14" lengthAdjust="spacing" textLength="97.6309" x="205.8935" y="1000.7195">ID_Planta : int</text><line style="stroke:#181818;stroke-width:0.5;" x1="186.8935" x2="354.5644" y1="1008.0213" y2="1008.0213"/></g><!--class AcaoIrrigacao--><g class="entity" data-entity="AcaoIrrigacao" data-source-line="44" data-uid="ent0007" id="entity_AcaoIrrigacao"><rect fill="#F1F1F1" height="129.4844" rx="2.5" ry="2.5" style="stroke:#181818;stroke-width:0.5;" width="185.5781" x="483.9335" y="680.0469"/><ellipse cx="512.8479" cy="696.0469" fill="#ADD1B2" rx="11" ry="11" style="stroke:#181818;stroke-width:1;"/><path d="M516.9573,702.0469 L509.2385,702.0469 L509.2385,689.6563 L516.9573,689.6563 L516.9573,691.8125 L511.6917,691.8125 L511.6917,694.4844 L516.4573,694.4844 L516.4573,696.6406 L511.6917,696.6406 L511.6917,699.8906 L516.9573,699.8906 L516.9573,702.0469 Z " fill="#000000"/><text fill="#000000" font-family="sans-serif" font-size="14" lengthAdjust="spacing" textLength="122.6572" x="529.94" y="700.8936">A&#231;&#227;o de Irriga&#231;&#227;o</text><line style="stroke:#181818;stroke-width:0.5;" x1="484.9335" x2="668.5116" y1="712.0469" y2="712.0469"/><ellipse cx="494.9335" cy="725.6953" fill="none" rx="3" ry="3" style="stroke:#038048;stroke-width:1;"/><text fill="#000000" font-family="sans-serif" font-size="14" lengthAdjust="spacing" textLength="88.1973" x="503.9335" y="729.042">ID_Acao : int</text><text fill="#000000" font-family="sans-serif" font-size="14" lengthAdjust="spacing" textLength="143.6709" x="503.9335" y="745.3389">DataHora : datetime</text><text fill="#000000" font-family="sans-serif" font-size="14" lengthAdjust="spacing" textLength="159.5781" x="503.9335" y="761.6357">DuracaoSegundos : int</text><text fill="#000000" font-family="sans-serif" font-size="14" lengthAdjust="spacing" textLength="130.6074" x="503.9335" y="777.9326">ID_Dispositivo : int</text><text fill="#000000" font-family="sans-serif" font-size="14" lengthAdjust="spacing" textLength="97.6309" x="503.9335" y="794.2295">ID_Planta : int</text><line style="stroke:#181818;stroke-width:0.5;" x1="484.9335" x2="668.5116" y1="801.5313" y2="801.5313"/></g><!--link Usuario to Dispositivo--><g class="link" data-entity-1="Usuario" data-entity-2="Dispositivo" data-source-line="54" data-uid="lnk8" id="link_Usuario_Dispositivo"><path codeLine="54" d="M395.7235,182.1769 C395.7235,206.5369 395.7235,208.2769 395.7235,232.6169" fill="none" id="Usuario-Dispositivo" style="stroke:#181818;stroke-width:1;"/><line style="stroke:#181818;stroke-width:1;" x1="391.7235" x2="399.7235" y1="178.1769" y2="178.1769"/><line style="stroke:#181818;stroke-width:1;" x1="391.7235" x2="399.7235" y1="181.1769" y2="181.1769"/><line style="stroke:#181818;stroke-width:1;" x1="395.7235" x2="395.7235" y1="182.1769" y2="174.1769"/><line style="stroke:#181818;stroke-width:1;" x1="395.7235" x2="401.7235" y1="242.6169" y2="250.6169"/><line style="stroke:#181818;stroke-width:1;" x1="395.7235" x2="389.7235" y1="242.6169" y2="250.6169"/><line style="stroke:#181818;stroke-width:1;" x1="395.7235" x2="395.7235" y1="242.6169" y2="250.6169"/><ellipse cx="395.7235" cy="236.6169" fill="none" rx="4" ry="4" style="stroke:#181818;stroke-width:1;"/><polygon fill="#000000" points="400.7235,217.3533,403.6624,208.3082,397.7846,208.3082,400.7235,217.3533" style="stroke:#000000;stroke-width:1;"/><text fill="#000000" font-family="sans-serif" font-size="13" lengthAdjust="spacing" textLength="41.6025" x="409.7235" y="216.8538">possui</text></g><!--link Dispositivo to Planta--><g class="link" data-entity-1="Dispositivo" data-entity-2="Planta" data-source-line="55" data-uid="lnk9" id="link_Dispositivo_Planta"><path codeLine="55" d="M395.7235,388.6069 C395.7235,412.6969 395.7235,414.2469 395.7235,439.0169" fill="none" id="Dispositivo-Planta" style="stroke:#181818;stroke-width:1;"/><line style="stroke:#181818;stroke-width:1;" x1="391.7235" x2="399.7235" y1="384.6069" y2="384.6069"/><line style="stroke:#181818;stroke-width:1;" x1="391.7235" x2="399.7235" y1="387.6069" y2="387.6069"/><line style="stroke:#181818;stroke-width:1;" x1="395.7235" x2="395.7235" y1="388.6069" y2="380.6069"/><line style="stroke:#181818;stroke-width:1;" x1="395.7235" x2="401.7235" y1="449.0169" y2="457.0169"/><line style="stroke:#181818;stroke-width:1;" x1="395.7235" x2="389.7235" y1="449.0169" y2="457.0169"/><line style="stroke:#181818;stroke-width:1;" x1="395.7235" x2="395.7235" y1="449.0169" y2="457.0169"/><ellipse cx="395.7235" cy="443.0169" fill="none" rx="4" ry="4" style="stroke:#181818;stroke-width:1;"/><polygon fill="#000000" points="400.7235,423.8333,403.6624,414.7882,397.7846,414.7882,400.7235,423.8333" style="stroke:#000000;stroke-width:1;"/><text fill="#000000" font-family="sans-serif" font-size="13" lengthAdjust="spacing" textLength="53.314" x="409.7235" y="423.3338">controla</text></g><!--link Dispositivo to Sensor--><g class="link" data-entity-1="Dispositivo" data-entity-2="Sensor" data-source-line="56" data-uid="lnk10" id="link_Dispositivo_Sensor"><path codeLine="56" d="M304.3462,359.271 C263.5662,382.691 225.2035,412.7169 200.7235,457.2669 C162.9335,526.0469 163.053,600.7758 170.403,661.8558" fill="none" id="Dispositivo-Sensor" style="stroke:#181818;stroke-width:1;"/><line style="stroke:#181818;stroke-width:1;" x1="305.8228" x2="309.8069" y1="353.8103" y2="360.7476"/><line style="stroke:#181818;stroke-width:1;" x1="303.2213" x2="307.2054" y1="355.3043" y2="362.2417"/><line style="stroke:#181818;stroke-width:1;" x1="304.3462" x2="311.2835" y1="359.271" y2="355.2869"/><line style="stroke:#181818;stroke-width:1;" x1="171.5977" x2="178.5105" y1="671.7842" y2="679.01"/><line style="stroke:#181818;stroke-width:1;" x1="171.5977" x2="166.5965" y1="671.7842" y2="680.4437"/><line style="stroke:#181818;stroke-width:1;" x1="171.5977" x2="172.5535" y1="671.7842" y2="679.7269"/><ellipse cx="170.8809" cy="665.8271" fill="none" rx="4" ry="4" style="stroke:#181818;stroke-width:1;"/><polygon fill="#000000" points="203.6996,534.7954,210.0483,527.714,204.6735,525.3348,203.6996,534.7954" style="stroke:#000000;stroke-width:1;"/><text fill="#000000" font-family="sans-serif" font-size="13" lengthAdjust="spacing" textLength="51.5493" x="214.7235" y="534.7238">conecta</text></g><!--link Planta to Sensor--><g class="link" data-entity-1="Planta" data-entity-2="Sensor" data-source-line="57" data-uid="lnk11" id="link_Planta_Sensor"><path codeLine="57" d="M318.0058,609.1129 C293.2858,633.9129 277.0909,650.1406 253.0809,674.2306" fill="none" id="Planta-Sensor" style="stroke:#181818;stroke-width:1;"/><line style="stroke:#181818;stroke-width:1;" x1="317.9966" x2="323.6626" y1="603.456" y2="609.1037"/><line style="stroke:#181818;stroke-width:1;" x1="315.8788" x2="321.5447" y1="605.5808" y2="611.2285"/><line style="stroke:#181818;stroke-width:1;" x1="318.0058" x2="323.6535" y1="609.1129" y2="603.4469"/><line style="stroke:#181818;stroke-width:1;" x1="253.0903" x2="247.4241" y1="679.8875" y2="674.24"/><line style="stroke:#181818;stroke-width:1;" x1="255.2081" x2="249.5419" y1="677.7626" y2="672.1152"/><line style="stroke:#181818;stroke-width:1;" x1="253.0809" x2="247.4335" y1="674.2306" y2="679.8969"/><polygon fill="#000000" points="291.1932,645.1541,299.6608,640.8238,295.4983,636.6737,291.1932,645.1541" style="stroke:#000000;stroke-width:1;"/><text fill="#000000" font-family="sans-serif" font-size="13" lengthAdjust="spacing" textLength="22.9785" x="303.7235" y="646.1138">usa</text></g><!--link Sensor to Leitura--><g class="link" data-entity-1="Sensor" data-entity-2="Leitura" data-source-line="58" data-uid="lnk12" id="link_Sensor_Leitura"><path codeLine="58" d="M214.147,817.2877 C224.517,841.6477 226.124,845.4647 236.484,869.8047" fill="none" id="Sensor-Leitura" style="stroke:#181818;stroke-width:1;"/><line style="stroke:#181818;stroke-width:1;" x1="208.8998" x2="216.2606" y1="815.174" y2="812.0405"/><line style="stroke:#181818;stroke-width:1;" x1="210.0749" x2="217.4357" y1="817.9343" y2="814.8008"/><line style="stroke:#181818;stroke-width:1;" x1="214.147" x2="211.0135" y1="817.2877" y2="809.9269"/><line style="stroke:#181818;stroke-width:1;" x1="240.4004" x2="249.0542" y1="879.0059" y2="884.0171"/><line style="stroke:#181818;stroke-width:1;" x1="240.4004" x2="238.0128" y1="879.0059" y2="888.7167"/><line style="stroke:#181818;stroke-width:1;" x1="240.4004" x2="243.5335" y1="879.0059" y2="886.3669"/><ellipse cx="238.0506" cy="873.4852" fill="none" rx="4" ry="4" style="stroke:#181818;stroke-width:1;"/><polygon fill="#000000" points="237.6805,852.7044,236.8447,843.2306,231.4358,845.5312,237.6805,852.7044" style="stroke:#000000;stroke-width:1;"/><text fill="#000000" font-family="sans-serif" font-size="13" lengthAdjust="spacing" textLength="29.561" x="244.7235" y="852.6038">gera</text></g><!--link Planta to Leitura--><g class="link" data-entity-1="Planta" data-entity-2="Leitura" data-source-line="59" data-uid="lnk13" id="link_Planta_Leitura"><path codeLine="59" d="M371.9477,610.8734 C348.1877,690.5634 317.6786,792.8479 294.9286,869.1179" fill="none" id="Planta-Leitura" style="stroke:#181818;stroke-width:1;"/><line style="stroke:#181818;stroke-width:1;" x1="369.2573" x2="376.9238" y1="605.8972" y2="608.183"/><line style="stroke:#181818;stroke-width:1;" x1="368.4002" x2="376.0667" y1="608.7722" y2="611.058"/><line style="stroke:#181818;stroke-width:1;" x1="371.9477" x2="374.2335" y1="610.8734" y2="603.2069"/><line style="stroke:#181818;stroke-width:1;" x1="292.0702" x2="295.5332" y1="878.7007" y2="888.0819"/><line style="stroke:#181818;stroke-width:1;" x1="292.0702" x2="284.0338" y1="878.7007" y2="884.6518"/><line style="stroke:#181818;stroke-width:1;" x1="292.0702" x2="289.7835" y1="878.7007" y2="886.3669"/><ellipse cx="293.7852" cy="872.951" fill="none" rx="4" ry="4" style="stroke:#181818;stroke-width:1;"/><polygon fill="#000000" points="353.2945,749.6447,358.6959,741.8169,353.0632,740.137,353.2945,749.6447" style="stroke:#000000;stroke-width:1;"/><text fill="#000000" font-family="sans-serif" font-size="13" lengthAdjust="spacing" textLength="76.0576" x="363.7235" y="749.3538">relacionada</text></g><!--link Planta to AcaoIrrigacao--><g class="link" data-entity-1="Planta" data-entity-2="AcaoIrrigacao" data-source-line="60" data-uid="lnk14" id="link_Planta_AcaoIrrigacao"><path codeLine="60" d="M457.9863,609.5874 C470.5963,625.1174 478.9635,635.1369 491.7235,650.0469 C500.0135,659.7269 496.9044,656.4197 505.7044,666.2597" fill="none" id="Planta-AcaoIrrigacao" style="stroke:#181818;stroke-width:1;"/><line style="stroke:#181818;stroke-width:1;" x1="452.3596" x2="458.5701" y1="609.0035" y2="603.9607"/><line style="stroke:#181818;stroke-width:1;" x1="454.2507" x2="460.4612" y1="611.3325" y2="606.2897"/><line style="stroke:#181818;stroke-width:1;" x1="457.9863" x2="452.9435" y1="609.5874" y2="603.3769"/><line style="stroke:#181818;stroke-width:1;" x1="512.3706" x2="522.1759" y1="673.7137" y2="675.6772"/><line style="stroke:#181818;stroke-width:1;" x1="512.3706" x2="513.2311" y1="673.7137" y2="683.6766"/><line style="stroke:#181818;stroke-width:1;" x1="512.3706" x2="517.7035" y1="673.7137" y2="679.6769"/><ellipse cx="508.3708" cy="669.2413" fill="none" rx="4" ry="4" style="stroke:#181818;stroke-width:1;"/><polygon fill="#000000" points="499.9439,645.438,496.3662,636.6261,491.87,640.4119,499.9439,645.438" style="stroke:#000000;stroke-width:1;"/><text fill="#000000" font-family="sans-serif" font-size="13" lengthAdjust="spacing" textLength="44.7383" x="505.7235" y="646.1138">recebe</text></g><!--link Dispositivo to AcaoIrrigacao--><g class="link" data-entity-1="Dispositivo" data-entity-2="AcaoIrrigacao" data-source-line="61" data-uid="lnk15" id="link_Dispositivo_AcaoIrrigacao"><path codeLine="61" d="M474.195,386.5454 C495.315,408.7654 510.8735,429.3569 524.7235,457.2669 C559.9035,528.1369 570.4005,601.4707 574.1005,661.7407" fill="none" id="Dispositivo-AcaoIrrigacao" style="stroke:#181818;stroke-width:1;"/><line style="stroke:#181818;stroke-width:1;" x1="468.54" x2="474.3385" y1="386.4019" y2="380.8904"/><line style="stroke:#181818;stroke-width:1;" x1="470.6068" x2="476.4053" y1="388.5764" y2="383.0649"/><line style="stroke:#181818;stroke-width:1;" x1="474.195" x2="468.6835" y1="386.5454" y2="380.7469"/><line style="stroke:#181818;stroke-width:1;" x1="574.7133" x2="581.1922" y1="671.7219" y2="679.3392"/><line style="stroke:#181818;stroke-width:1;" x1="574.7133" x2="569.2148" y1="671.7219" y2="680.0745"/><line style="stroke:#181818;stroke-width:1;" x1="574.7133" x2="575.2035" y1="671.7219" y2="679.7069"/><ellipse cx="574.3456" cy="665.7332" fill="none" rx="4" ry="4" style="stroke:#181818;stroke-width:1;"/><polygon fill="#000000" points="573.4297,534.9232,573.1057,525.4181,567.5806,527.4239,573.4297,534.9232" style="stroke:#000000;stroke-width:1;"/><text fill="#000000" font-family="sans-serif" font-size="13" lengthAdjust="spacing" textLength="52.1396" x="580.7235" y="534.7238">executa</text></g><!--SRC=[ZPJFZjCm4CRlUOfHBu1GXGGt3aXHKqIbjXlHBbSq9BFLI8vdiHsqiEN0eo0EF05Fq1V3ph-w8RlYbldci_sRhtOTEqMmaPAKm49qGUngL50IP5YAXJciZE43ddwVVWcajPCA7N_34e4go7rbo091JfzhqcWXLwXTiFyXcoIa7RklCBkszUcdOPc1j_W2_JVS9m3FLzd7lduDh9tNjbAHBwmph0- -NbR8AXOM-Tkut9EY6z7Hck_dapEsjsBPyHU1fyjT_khbimOYrdkGM7i8PYq5AXz0WHBBEuUkjh7ops0HL1iIl83J3qFeyzVinFXG6xIksrDrPGmqICDfxKQHS5rnYILjM7E5gv8m97YZ15tKnBk9vcGG4VoEj1Kp6_ZQUk3Rywqy4DZWZ4EQ2dqyTNJwEjnGW-66zY0-ibxjcVgwtp13X- -a4KfqvBWYhtv09MRDfLnEFnhe4PYqVHQU9Neb3L3gnssrS55whBIzDOynPHwxYUfGw_008uh_JEe9l5-kqyNgQfjkbjlzrIv9-ejuFCxdSW-N6_bFMpEyIMAvSmvx5wAT4ONJjY4nRwF21LUtCXYEnxEXjg7PbTtgyuzr83DQUz4sfB1WqU7VP-ow33nu2_f4qxXZBzrHKGVglm00]--></g></svg>