<svg xmlns="http://www.w3.org/2000/svg" xmlns:xlink="http://www.w3.org/1999/xlink" contentStyleType="text/css" data-diagram-type="SEQUENCE" height="791px" preserveAspectRatio="none" style="width:1211px;height:791px;background:#FFFFFF;" version="1.1" viewBox="0 0 1211 791" width="1211px" zoomAndPan="magnify"><defs/><g><g><title>ESP32</title><rect fill="#FFFFFF" height="580.6563" style="stroke:#181818;stroke-width:1;" width="10" x="235.9492" y="112.4297"/></g><rect fill="none" height="90.5313" style="stroke:#000000;stroke-width:1.5;" width="735.3267" x="201.9546" y="458.8906"/><g><title>Usu&#225;rio</title><rect fill="#000000" fill-opacity="0.00000" height="629.7891" width="8" x="30.6021" y="81.2969"/><line style="stroke:#181818;stroke-width:0.5;stroke-dasharray:5.0,5.0;" x1="34" x2="34" y1="81.2969" y2="711.0859"/></g><g><title>ESP32</title><rect fill="#000000" fill-opacity="0.00000" height="629.7891" width="8" x="236.9492" y="81.2969"/><line style="stroke:#181818;stroke-width:0.5;stroke-dasharray:5.0,5.0;" x1="239.9546" x2="239.9546" y1="81.2969" y2="711.0859"/></g><g><title>Sensor DHT11</title><rect fill="#000000" fill-opacity="0.00000" height="629.7891" width="8" x="423.3755" y="81.2969"/><line style="stroke:#181818;stroke-width:0.5;stroke-dasharray:5.0,5.0;" x1="427.3193" x2="427.3193" y1="81.2969" y2="711.0859"/></g><g><title>Sensor LDR</title><rect fill="#000000" fill-opacity="0.00000" height="629.7891" width="8" x="537.8047" y="81.2969"/><line style="stroke:#181818;stroke-width:0.5;stroke-dasharray:5.0,5.0;" x1="541.4316" x2="541.4316" y1="81.2969" y2="711.0859"/></g><g><title>Sensor Solo (MUX)</title><rect fill="#000000" fill-opacity="0.00000" height="629.7891" width="8" x="666.9961" y="81.2969"/><line style="stroke:#181818;stroke-width:0.5;stroke-dasharray:5.0,5.0;" x1="670.1777" x2="670.1777" y1="81.2969" y2="711.0859"/></g><g><title>Rel&#233;/V&#225;lvula Solenoide</title><rect fill="#000000" fill-opacity="0.00000" height="629.7891" width="8" x="836.0479" y="81.2969"/><line style="stroke:#181818;stroke-width:0.5;stroke-dasharray:5.0,5.0;" x1="839.8145" x2="839.8145" y1="81.2969" y2="711.0859"/></g><g><title>Planilha na Nuvem</title><rect fill="#000000" fill-opacity="0.00000" height="629.7891" width="8" x="1005.9063" y="81.2969"/><line style="stroke:#181818;stroke-width:0.5;stroke-dasharray:5.0,5.0;" x1="1009.2813" x2="1009.2813" y1="81.2969" y2="711.0859"/></g><g><title>Arduino Cloud</title><rect fill="#000000" fill-opacity="0.00000" height="629.7891" width="8" x="1144.9619" y="81.2969"/><line style="stroke:#181818;stroke-width:0.5;stroke-dasharray:5.0,5.0;" x1="1148.5313" x2="1148.5313" y1="81.2969" y2="711.0859"/></g><g class="participant participant-head" data-participant="Usu&#225;rio"><text fill="#000000" font-family="sans-serif" font-size="14" lengthAdjust="spacing" textLength="53.2041" x="5" y="77.9951">Usu&#225;rio</text><ellipse cx="34.6021" cy="13.5" fill="#E2E2F0" rx="8" ry="8" style="stroke:#181818;stroke-width:0.5;"/><path d="M34.6021,21.5 L34.6021,48.5 M21.6021,29.5 L47.6021,29.5 M34.6021,48.5 L21.6021,63.5 M34.6021,48.5 L47.6021,63.5" fill="none" style="stroke:#181818;stroke-width:0.5;"/></g><g class="participant participant-tail" data-participant="Usu&#225;rio"><text fill="#000000" font-family="sans-serif" font-size="14" lengthAdjust="spacing" textLength="53.2041" x="5" y="723.0811">Usu&#225;rio</text><ellipse cx="34.6021" cy="734.8828" fill="#E2E2F0" rx="8" ry="8" style="stroke:#181818;stroke-width:0.5;"/><path d="M34.6021,742.8828 L34.6021,769.8828 M21.6021,750.8828 L47.6021,750.8828 M34.6021,769.8828 L21.6021,784.8828 M34.6021,769.8828 L47.6021,784.8828" fill="none" style="stroke:#181818;stroke-width:0.5;"/></g><g class="participant participant-head" data-participant="ESP32"><rect fill="#E2E2F0" height="30.2969" rx="2.5" ry="2.5" style="stroke:#181818;stroke-width:0.5;" width="57.9893" x="211.9546" y="50"/><text fill="#000000" font-family="sans-serif" font-size="14" lengthAdjust="spacing" textLength="43.9893" x="218.9546" y="69.9951">ESP32</text></g><g class="participant participant-tail" data-participant="ESP32"><rect fill="#E2E2F0" height="30.2969" rx="2.5" ry="2.5" style="stroke:#181818;stroke-width:0.5;" width="57.9893" x="211.9546" y="710.0859"/><text fill="#000000" font-family="sans-serif" font-size="14" lengthAdjust="spacing" textLength="43.9893" x="218.9546" y="730.0811">ESP32</text></g><g class="participant participant-head" data-participant="DHT"><rect fill="#E2E2F0" height="30.2969" rx="2.5" ry="2.5" style="stroke:#181818;stroke-width:0.5;" width="114.1123" x="370.3193" y="50"/><text fill="#000000" font-family="sans-serif" font-size="14" lengthAdjust="spacing" textLength="100.1123" x="377.3193" y="69.9951">Sensor DHT11</text></g><g class="participant participant-tail" data-participant="DHT"><rect fill="#E2E2F0" height="30.2969" rx="2.5" ry="2.5" style="stroke:#181818;stroke-width:0.5;" width="114.1123" x="370.3193" y="710.0859"/><text fill="#000000" font-family="sans-serif" font-size="14" lengthAdjust="spacing" textLength="100.1123" x="377.3193" y="730.0811">Sensor DHT11</text></g><g class="participant participant-head" data-participant="LDR"><rect fill="#E2E2F0" height="30.2969" rx="2.5" ry="2.5" style="stroke:#181818;stroke-width:0.5;" width="94.7461" x="494.4316" y="50"/><text fill="#000000" font-family="sans-serif" font-size="14" lengthAdjust="spacing" textLength="80.7461" x="501.4316" y="69.9951">Sensor LDR</text></g><g class="participant participant-tail" data-participant="LDR"><rect fill="#E2E2F0" height="30.2969" rx="2.5" ry="2.5" style="stroke:#181818;stroke-width:0.5;" width="94.7461" x="494.4316" y="710.0859"/><text fill="#000000" font-family="sans-serif" font-size="14" lengthAdjust="spacing" textLength="80.7461" x="501.4316" y="730.0811">Sensor LDR</text></g><g class="participant participant-head" data-participant="Solo"><rect fill="#E2E2F0" height="30.2969" rx="2.5" ry="2.5" style="stroke:#181818;stroke-width:0.5;" width="143.6367" x="599.1777" y="50"/><text fill="#000000" font-family="sans-serif" font-size="14" lengthAdjust="spacing" textLength="129.6367" x="606.1777" y="69.9951">Sensor Solo (MUX)</text></g><g class="participant participant-tail" data-participant="Solo"><rect fill="#E2E2F0" height="30.2969" rx="2.5" ry="2.5" style="stroke:#181818;stroke-width:0.5;" width="143.6367" x="599.1777" y="710.0859"/><text fill="#000000" font-family="sans-serif" font-size="14" lengthAdjust="spacing" textLength="129.6367" x="606.1777" y="730.0811">Sensor Solo (MUX)</text></g><g class="participant participant-head" data-participant="Valvula"><rect fill="#E2E2F0" height="30.2969" rx="2.5" ry="2.5" style="stroke:#181818;stroke-width:0.5;" width="174.4668" x="752.8145" y="50"/><text fill="#000000" font-family="sans-serif" font-size="14" lengthAdjust="spacing" textLength="160.4668" x="759.8145" y="69.9951">Rel&#233;/V&#225;lvula Solenoide</text></g><g class="participant participant-tail" data-participant="Valvula"><rect fill="#E2E2F0" height="30.2969" rx="2.5" ry="2.5" style="stroke:#181818;stroke-width:0.5;" width="174.4668" x="752.8145" y="710.0859"/><text fill="#000000" font-family="sans-serif" font-size="14" lengthAdjust="spacing" textLength="160.4668" x="759.8145" y="730.0811">Rel&#233;/V&#225;lvula Solenoide</text></g><g class="participant participant-head" data-participant="Planilha"><rect fill="#E2E2F0" height="30.2969" rx="2.5" ry="2.5" style="stroke:#181818;stroke-width:0.5;" width="145.25" x="937.2813" y="50"/><text fill="#000000" font-family="sans-serif" font-size="14" lengthAdjust="spacing" textLength="131.25" x="944.2813" y="69.9951">Planilha na Nuvem</text></g><g class="participant participant-tail" data-participant="Planilha"><rect fill="#E2E2F0" height="30.2969" rx="2.5" ry="2.5" style="stroke:#181818;stroke-width:0.5;" width="145.25" x="937.2813" y="710.0859"/><text fill="#000000" font-family="sans-serif" font-size="14" lengthAdjust="spacing" textLength="131.25" x="944.2813" y="730.0811">Planilha na Nuvem</text></g><g class="participant participant-head" data-participant="Cloud"><rect fill="#E2E2F0" height="30.2969" rx="2.5" ry="2.5" style="stroke:#181818;stroke-width:0.5;" width="112.8613" x="1092.5313" y="50"/><text fill="#000000" font-family="sans-serif" font-size="14" lengthAdjust="spacing" textLength="98.8613" x="1099.5313" y="69.9951">Arduino Cloud</text></g><g class="participant participant-tail" data-participant="Cloud"><rect fill="#E2E2F0" height="30.2969" rx="2.5" ry="2.5" style="stroke:#181818;stroke-width:0.5;" width="112.8613" x="1092.5313" y="710.0859"/><text fill="#000000" font-family="sans-serif" font-size="14" lengthAdjust="spacing" textLength="98.8613" x="1099.5313" y="730.0811">Arduino Cloud</text></g><g><title>ESP32</title><rect fill="#FFFFFF" height="580.6563" style="stroke:#181818;stroke-width:1;" width="10" x="235.9492" y="112.4297"/></g><g class="message" data-participant-1="Usu&#225;rio" data-participant-2="ESP32"><polygon fill="#181818" points="223.9492,108.4297,233.9492,112.4297,223.9492,116.4297,227.9492,112.4297" style="stroke:#181818;stroke-width:1;"/><line style="stroke:#181818;stroke-width:1;" x1="34.6021" x2="229.9492" y1="112.4297" y2="112.4297"/><text fill="#000000" font-family="sans-serif" font-size="13" lengthAdjust="spacing" textLength="100.7881" x="41.6021" y="107.3638">Liga dispositivo</text></g><g class="message" data-participant-1="ESP32" data-participant-2="ESP32"><line style="stroke:#181818;stroke-width:1;" x1="245.9492" x2="287.9492" y1="141.5625" y2="141.5625"/><line style="stroke:#181818;stroke-width:1;" x1="287.9492" x2="287.9492" y1="141.5625" y2="154.5625"/><line style="stroke:#181818;stroke-width:1;" x1="246.9492" x2="287.9492" y1="154.5625" y2="154.5625"/><polygon fill="#181818" points="256.9492,150.5625,246.9492,154.5625,256.9492,158.5625,252.9492,154.5625" style="stroke:#181818;stroke-width:1;"/><text fill="#000000" font-family="sans-serif" font-size="13" lengthAdjust="spacing" textLength="147.875" x="252.9492" y="136.4966">verificarConexaoWiFi()</text></g><g class="message" data-participant-1="ESP32" data-participant-2="DHT"><polygon fill="#181818" points="415.3755,179.6953,425.3755,183.6953,415.3755,187.6953,419.3755,183.6953" style="stroke:#181818;stroke-width:1;"/><line style="stroke:#181818;stroke-width:1;" x1="245.9492" x2="421.3755" y1="183.6953" y2="183.6953"/><text fill="#000000" font-family="sans-serif" font-size="13" lengthAdjust="spacing" textLength="99.3853" x="252.9492" y="178.6294">lerSensorDHT()</text></g><g class="message" data-participant-1="DHT" data-participant-2="ESP32"><polygon fill="#181818" points="256.9492,208.8281,246.9492,212.8281,256.9492,216.8281,252.9492,212.8281" style="stroke:#181818;stroke-width:1;"/><line style="stroke:#181818;stroke-width:1;stroke-dasharray:2.0,2.0;" x1="250.9492" x2="426.3755" y1="212.8281" y2="212.8281"/><text fill="#000000" font-family="sans-serif" font-size="13" lengthAdjust="spacing" textLength="107.7578" x="262.9492" y="207.7622">Temp / Umidade</text></g><g class="message" data-participant-1="ESP32" data-participant-2="LDR"><polygon fill="#181818" points="529.8047,237.9609,539.8047,241.9609,529.8047,245.9609,533.8047,241.9609" style="stroke:#181818;stroke-width:1;"/><line style="stroke:#181818;stroke-width:1;" x1="245.9492" x2="535.8047" y1="241.9609" y2="241.9609"/><text fill="#000000" font-family="sans-serif" font-size="13" lengthAdjust="spacing" textLength="97.9443" x="252.9492" y="236.895">lerSensorLDR()</text></g><g class="message" data-participant-1="LDR" data-participant-2="ESP32"><polygon fill="#181818" points="256.9492,267.0938,246.9492,271.0938,256.9492,275.0938,252.9492,271.0938" style="stroke:#181818;stroke-width:1;"/><line style="stroke:#181818;stroke-width:1;stroke-dasharray:2.0,2.0;" x1="250.9492" x2="540.8047" y1="271.0938" y2="271.0938"/><text fill="#000000" font-family="sans-serif" font-size="13" lengthAdjust="spacing" textLength="79.46" x="262.9492" y="266.0278">N&#237;vel de Luz</text></g><g class="message" data-participant-1="ESP32" data-participant-2="Solo"><polygon fill="#181818" points="658.9961,311.3594,668.9961,315.3594,658.9961,319.3594,662.9961,315.3594" style="stroke:#181818;stroke-width:1;"/><line style="stroke:#181818;stroke-width:1;" x1="245.9492" x2="664.9961" y1="315.3594" y2="315.3594"/><text fill="#000000" font-family="sans-serif" font-size="13" lengthAdjust="spacing" textLength="115.9463" x="252.9492" y="295.1606">lerMultiplexador()</text><text fill="#000000" font-family="sans-serif" font-size="13" lengthAdjust="spacing" textLength="107.5356" x="252.9492" y="310.2935">coletarLeituras()</text></g><g class="message" data-participant-1="Solo" data-participant-2="ESP32"><polygon fill="#181818" points="256.9492,340.4922,246.9492,344.4922,256.9492,348.4922,252.9492,344.4922" style="stroke:#181818;stroke-width:1;"/><line style="stroke:#181818;stroke-width:1;stroke-dasharray:2.0,2.0;" x1="250.9492" x2="669.9961" y1="344.4922" y2="344.4922"/><text fill="#000000" font-family="sans-serif" font-size="13" lengthAdjust="spacing" textLength="173.7671" x="262.9492" y="339.4263">Umidade do solo por canal</text></g><g class="message" data-participant-1="ESP32" data-participant-2="ESP32"><line style="stroke:#181818;stroke-width:1;" x1="245.9492" x2="287.9492" y1="373.625" y2="373.625"/><line style="stroke:#181818;stroke-width:1;" x1="287.9492" x2="287.9492" y1="373.625" y2="386.625"/><line style="stroke:#181818;stroke-width:1;" x1="246.9492" x2="287.9492" y1="386.625" y2="386.625"/><polygon fill="#181818" points="256.9492,382.625,246.9492,386.625,256.9492,390.625,252.9492,386.625" style="stroke:#181818;stroke-width:1;"/><text fill="#000000" font-family="sans-serif" font-size="13" lengthAdjust="spacing" textLength="152.4263" x="252.9492" y="368.5591">analisarLuminosidade()</text></g><g class="message" data-participant-1="ESP32" data-participant-2="ESP32"><line style="stroke:#181818;stroke-width:1;" x1="245.9492" x2="287.9492" y1="430.8906" y2="430.8906"/><line style="stroke:#181818;stroke-width:1;" x1="287.9492" x2="287.9492" y1="430.8906" y2="443.8906"/><line style="stroke:#181818;stroke-width:1;" x1="246.9492" x2="287.9492" y1="443.8906" y2="443.8906"/><polygon fill="#181818" points="256.9492,439.8906,246.9492,443.8906,256.9492,447.8906,252.9492,443.8906" style="stroke:#181818;stroke-width:1;"/><text fill="#000000" font-family="sans-serif" font-size="13" lengthAdjust="spacing" textLength="123.5381" x="252.9492" y="410.6919">calcularMedia60s()</text><text fill="#000000" font-family="sans-serif" font-size="13" lengthAdjust="spacing" textLength="132.3105" x="252.9492" y="425.8247">percentualLeituras()</text></g><path d="M201.9546,458.8906 L266.3975,458.8906 L266.3975,466.0234 L256.3975,476.0234 L201.9546,476.0234 L201.9546,458.8906" fill="#EEEEEE" style="stroke:#000000;stroke-width:1.5;"/><rect fill="none" height="90.5313" style="stroke:#000000;stroke-width:1.5;" width="735.3267" x="201.9546" y="458.8906"/><text fill="#000000" font-family="sans-serif" font-size="13" font-weight="bold" lengthAdjust="spacing" textLength="19.4429" x="216.9546" y="471.9575">alt</text><text fill="#000000" font-family="sans-serif" font-size="11" font-weight="bold" lengthAdjust="spacing" textLength="184.0781" x="281.3975" y="471.1011">[Umidade baixa e Sol nasceu]</text><g class="message" data-participant-1="ESP32" data-participant-2="Valvula"><polygon fill="#181818" points="828.0479,508.2891,838.0479,512.2891,828.0479,516.2891,832.0479,512.2891" style="stroke:#181818;stroke-width:1;"/><line style="stroke:#181818;stroke-width:1;" x1="245.9492" x2="834.0479" y1="512.2891" y2="512.2891"/><text fill="#000000" font-family="sans-serif" font-size="13" lengthAdjust="spacing" textLength="131.1172" x="252.9492" y="492.0903">processarIrrigacao()</text><text fill="#000000" font-family="sans-serif" font-size="13" lengthAdjust="spacing" textLength="66.7646" x="252.9492" y="507.2231">ativar rel&#233;</text></g><g class="message" data-participant-1="Valvula" data-participant-2="ESP32"><polygon fill="#181818" points="256.9492,537.4219,246.9492,541.4219,256.9492,545.4219,252.9492,541.4219" style="stroke:#181818;stroke-width:1;"/><line style="stroke:#181818;stroke-width:1;stroke-dasharray:2.0,2.0;" x1="250.9492" x2="839.0479" y1="541.4219" y2="541.4219"/><text fill="#000000" font-family="sans-serif" font-size="13" lengthAdjust="spacing" textLength="111.96" x="262.9492" y="536.356">Irriga&#231;&#227;o iniciada</text></g><g class="message" data-participant-1="ESP32" data-participant-2="Planilha"><polygon fill="#181818" points="997.9063,588.6875,1007.9063,592.6875,997.9063,596.6875,1001.9063,592.6875" style="stroke:#181818;stroke-width:1;"/><line style="stroke:#181818;stroke-width:1;" x1="245.9492" x2="1003.9063" y1="592.6875" y2="592.6875"/><text fill="#000000" font-family="sans-serif" font-size="13" lengthAdjust="spacing" textLength="118.0093" x="252.9492" y="572.4888">escreverEmLista()</text><text fill="#000000" font-family="sans-serif" font-size="13" lengthAdjust="spacing" textLength="157.917" x="252.9492" y="587.6216">registrarDadosPlanilha()</text></g><g class="message" data-participant-1="ESP32" data-participant-2="Cloud"><polygon fill="#181818" points="1136.9619,617.8203,1146.9619,621.8203,1136.9619,625.8203,1140.9619,621.8203" style="stroke:#181818;stroke-width:1;"/><line style="stroke:#181818;stroke-width:1;" x1="245.9492" x2="1142.9619" y1="621.8203" y2="621.8203"/><text fill="#000000" font-family="sans-serif" font-size="13" lengthAdjust="spacing" textLength="212.7163" x="252.9492" y="616.7544">atualizarValoresPlanilhaNuvem()</text></g><g class="message" data-participant-1="ESP32" data-participant-2="ESP32"><line style="stroke:#181818;stroke-width:1;" x1="245.9492" x2="287.9492" y1="650.9531" y2="650.9531"/><line style="stroke:#181818;stroke-width:1;" x1="287.9492" x2="287.9492" y1="650.9531" y2="663.9531"/><line style="stroke:#181818;stroke-width:1;" x1="246.9492" x2="287.9492" y1="663.9531" y2="663.9531"/><polygon fill="#181818" points="256.9492,659.9531,246.9492,663.9531,256.9492,667.9531,252.9492,663.9531" style="stroke:#181818;stroke-width:1;"/><text fill="#000000" font-family="sans-serif" font-size="13" lengthAdjust="spacing" textLength="119.1455" x="252.9492" y="645.8872">modoSonoEsp32()</text></g><g class="message" data-participant-1="ESP32" data-participant-2="Usu&#225;rio"><polygon fill="#181818" points="45.6021,689.0859,35.6021,693.0859,45.6021,697.0859,41.6021,693.0859" style="stroke:#181818;stroke-width:1;"/><line style="stroke:#181818;stroke-width:1;stroke-dasharray:2.0,2.0;" x1="39.6021" x2="239.9492" y1="693.0859" y2="693.0859"/><text fill="#000000" font-family="sans-serif" font-size="13" lengthAdjust="spacing" textLength="177.3472" x="51.6021" y="688.02">Entra em Deep Sleep (10h)</text></g><!--SRC=[RPAnRXin38RtUmeYapq4YHEWWuS2HUoY1UmWYEEqGnTMOXC2Ekb0wOmWRnDqA3hqAUx5Iia-vmx9SYTHtqzHFuac1O5jRBiNuL0rA8aDD-WJB3StbnUZoCc6V5HyyULkDZi1Z7drBh5Qt9Pp_RzxlWakm6Iz_JujMDwEkLjotT-p- -x5xLg76I0Vs5B1xx54nueRXvxT8u97k6vtL1UqZuxPJs9RzW6kN6XjuSgggdeZuFJZ_lqmXnK_85YEJOYSU1SgDFh3H0U7zjn0i2FXNsnGheAd9mpV-3DFfjKhgAufvaZsRkXMZtFmT93bZke6pc1RiqLB0xLwEbJhLjKvE5HVT_zsvC0IhDhdWRWONzJhrYLkd1PeWqocFxnHZnFAYZYrWb6J5dYOzL0Cs00ndpNQIeCUNVNMXHpcgFdQMgsEHQWvtt06dT5cofeiuuVpc4jfI0pvrA8RL5EXIySAVY8_8L1-ZpOy6cehW6Fkmu1ezaQ2eQXbV1NHFXeCEJ_c1Wf87ZBLzVZmgNk- -zFz3i1U9mSjLkJjuAN7YPi3HIEaVL_MAuu9ynr23xeKb8KQ77jsw42PkUnKVYW_esWTGUZ8bYaU3KvVN1ris0GVbh6vl7XDgSHnWEUmz7exK0qBeWOsBdydi_F7QMLfFCB_0G00]--></g></svg>