<svg xmlns="http://www.w3.org/2000/svg" xmlns:xlink="http://www.w3.org/1999/xlink" contentStyleType="text/css" data-diagram-type="STATE" height="886px" preserveAspectRatio="none" style="width:659px;height:886px;background:#FFFFFF;" version="1.1" viewBox="0 0 659 886" width="659px" zoomAndPan="magnify"><title>Diagrama de Estados - Sistema de Irrigacao ESP32</title><defs/><g><g class="title" data-source-line="1"><text fill="#000000" font-family="sans-serif" font-size="14" font-weight="bold" lengthAdjust="spacing" textLength="400.7227" x="118.9013" y="22.9951">Diagrama de Estados - Sistema de Irrigacao ESP32</text></g><g id="Inicializacao"><rect fill="#F1F1F1" height="50" rx="12.5" ry="12.5" style="stroke:#181818;stroke-width:0.5;" width="105.6064" x="7" y="124.2969"/><line style="stroke:#181818;stroke-width:0.5;" x1="7" x2="112.6064" y1="150.5938" y2="150.5938"/><text fill="#000000" font-family="sans-serif" font-size="14" lengthAdjust="spacing" textLength="85.6064" x="17" y="142.292">Inicializacao</text></g><g id="ConectandoWiFi"><rect fill="#F1F1F1" height="50" rx="12.5" ry="12.5" style="stroke:#181818;stroke-width:0.5;" width="133.5928" x="11.01" y="235.2969"/><line style="stroke:#181818;stroke-width:0.5;" x1="11.01" x2="144.6028" y1="261.5938" y2="261.5938"/><text fill="#000000" font-family="sans-serif" font-size="14" lengthAdjust="spacing" textLength="113.5928" x="21.01" y="253.292">ConectandoWiFi</text></g><path d="M174.58,362.2969 L633.0252,362.2969 A12.5,12.5 0 0 1 645.5252,374.7969 L645.5252,388.5938 L162.08,388.5938 L162.08,374.7969 A12.5,12.5 0 0 1 174.58,362.2969" fill="#F1F1F1"/><rect fill="none" height="518.2969" rx="12.5" ry="12.5" style="stroke:#181818;stroke-width:0.5;" width="483.4452" x="162.08" y="362.2969"/><line style="stroke:#181818;stroke-width:0.5;" x1="162.08" x2="645.5252" y1="388.5938" y2="388.5938"/><text fill="#000000" font-family="sans-serif" font-size="14" lengthAdjust="spacing" textLength="69.1797" x="369.2127" y="380.292">Operando</text><ellipse cx="503.74" cy="409.5938" fill="#222222" rx="10" ry="10" style="stroke:#222222;stroke-width:1;"/><g id="Operando.LeituraSensores"><rect fill="#F1F1F1" height="50" rx="12.5" ry="12.5" style="stroke:#181818;stroke-width:0.5;" width="132.8955" x="437.29" y="456.5938"/><line style="stroke:#181818;stroke-width:0.5;" x1="437.29" x2="570.1855" y1="482.8906" y2="482.8906"/><text fill="#000000" font-family="sans-serif" font-size="14" lengthAdjust="spacing" textLength="112.8955" x="447.29" y="474.5889">LeituraSensores</text></g><g id="Operando.AnaliseCondicoes"><rect fill="#F1F1F1" height="50" rx="12.5" ry="12.5" style="stroke:#181818;stroke-width:0.5;" width="142.876" x="318.3" y="543.5938"/><line style="stroke:#181818;stroke-width:0.5;" x1="318.3" x2="461.176" y1="569.8906" y2="569.8906"/><text fill="#000000" font-family="sans-serif" font-size="14" lengthAdjust="spacing" textLength="122.876" x="328.3" y="561.5889">AnaliseCondicoes</text></g><g id="Operando.Irrigando"><rect fill="#F1F1F1" height="50" rx="12.5" ry="12.5" style="stroke:#181818;stroke-width:0.5;" width="83.3213" x="174.08" y="646.5938"/><line style="stroke:#181818;stroke-width:0.5;" x1="174.08" x2="257.4013" y1="672.8906" y2="672.8906"/><text fill="#000000" font-family="sans-serif" font-size="14" lengthAdjust="spacing" textLength="63.3213" x="184.08" y="664.5889">Irrigando</text></g><g id="Operando.RemovendoAgua"><rect fill="#F1F1F1" height="50" rx="12.5" ry="12.5" style="stroke:#181818;stroke-width:0.5;" width="139.6836" x="275.9" y="646.5938"/><line style="stroke:#181818;stroke-width:0.5;" x1="275.9" x2="415.5836" y1="672.8906" y2="672.8906"/><text fill="#000000" font-family="sans-serif" font-size="14" lengthAdjust="spacing" textLength="119.6836" x="285.9" y="664.5889">RemovendoAgua</text></g><ellipse cx="444.74" cy="671.5938" fill="none" rx="11" ry="11" style="stroke:#222222;stroke-width:1;"/><ellipse cx="444.74" cy="671.5938" fill="#222222" rx="6" ry="6" style="stroke:#222222;stroke-width:1;"/><g id="Operando.EnviarDados"><rect fill="#F1F1F1" height="50" rx="12.5" ry="12.5" style="stroke:#181818;stroke-width:0.5;" width="108.334" x="291.57" y="733.5938"/><line style="stroke:#181818;stroke-width:0.5;" x1="291.57" x2="399.904" y1="759.8906" y2="759.8906"/><text fill="#000000" font-family="sans-serif" font-size="14" lengthAdjust="spacing" textLength="88.334" x="301.57" y="751.5889">EnviarDados</text></g><g id="Operando.Sono"><rect fill="#F1F1F1" height="50" rx="12.5" ry="12.5" style="stroke:#181818;stroke-width:0.5;" width="54.8906" x="432.3" y="820.5938"/><line style="stroke:#181818;stroke-width:0.5;" x1="432.3" x2="487.1906" y1="846.8906" y2="846.8906"/><text fill="#000000" font-family="sans-serif" font-size="14" lengthAdjust="spacing" textLength="34.8906" x="442.3" y="838.5889">Sono</text></g><!--link *start*Operando to LeituraSensores--><g class="link" data-entity-1="*start*Operando" data-entity-2="LeituraSensores" data-source-line="24" data-uid="lnk12" id="link_*start*Operando_LeituraSensores"><path d="M503.74,420.0338 C503.74,429.2938 503.74,437.7838 503.74,450.2738" fill="none" id="*start*Operando-to-LeituraSensores" style="stroke:#181818;stroke-width:1;"/><polygon fill="#181818" points="503.74,456.2738,507.74,447.2738,503.74,451.2738,499.74,447.2738,503.74,456.2738" style="stroke:#181818;stroke-width:1;"/></g><!--link LeituraSensores to AnaliseCondicoes--><g class="link" data-entity-1="LeituraSensores" data-entity-2="AnaliseCondicoes" data-source-line="25" data-uid="lnk14" id="link_LeituraSensores_AnaliseCondicoes"><path d="M471.07,506.9538 C455.81,518.3338 442.4909,528.2684 427.2209,539.6484" fill="none" id="LeituraSensores-to-AnaliseCondicoes" style="stroke:#181818;stroke-width:1;"/><polygon fill="#181818" points="422.41,543.2338,432.0167,541.063,426.4191,540.2459,427.2362,534.6484,422.41,543.2338" style="stroke:#181818;stroke-width:1;"/></g><!--link AnaliseCondicoes to Irrigando--><g class="link" data-entity-1="AnaliseCondicoes" data-entity-2="Irrigando" data-source-line="26" data-uid="lnk16" id="link_AnaliseCondicoes_Irrigando"><path d="M317.86,576.6338 C291.06,582.4137 262.01,592.8438 240.74,611.5938 C230.64,620.4938 226.2584,628.4272 222.5984,640.3672" fill="none" id="AnaliseCondicoes-to-Irrigando" style="stroke:#181818;stroke-width:1;"/><polygon fill="#181818" points="220.84,646.1038,227.302,638.6712,222.3054,641.3233,219.6533,636.3266,220.84,646.1038" style="stroke:#181818;stroke-width:1;"/><text fill="#000000" font-family="sans-serif" font-size="13" lengthAdjust="spacing" textLength="96.3765" x="241.74" y="624.6606">Sol e solo seco</text></g><!--link AnaliseCondicoes to RemovendoAgua--><g class="link" data-entity-1="AnaliseCondicoes" data-entity-2="RemovendoAgua" data-source-line="27" data-uid="lnk18" id="link_AnaliseCondicoes_RemovendoAgua"><path d="M358.78,593.7338 C353.9,599.0638 349.55,605.0738 346.74,611.5938 C342.12,622.3138 341.0609,629.2039 341.7009,640.1839" fill="none" id="AnaliseCondicoes-to-RemovendoAgua" style="stroke:#181818;stroke-width:1;"/><polygon fill="#181818" points="342.05,646.1738,345.5195,636.9562,341.7591,641.1822,337.5331,637.4218,342.05,646.1738" style="stroke:#181818;stroke-width:1;"/><text fill="#000000" font-family="sans-serif" font-size="13" lengthAdjust="spacing" textLength="63.4766" x="347.74" y="624.6606">Sol sumiu</text></g><!--link AnaliseCondicoes to *end*Operando--><g class="link" data-entity-1="AnaliseCondicoes" data-entity-2="*end*Operando" data-source-line="28" data-uid="lnk20" id="link_AnaliseCondicoes_*end*Operando"><path d="M403.05,594.0438 C414.88,615.7638 428.6598,641.0648 436.8798,656.1548" fill="none" id="AnaliseCondicoes-to-*end*Operando" style="stroke:#181818;stroke-width:1;"/><polygon fill="#181818" points="439.75,661.4238,438.9574,651.6068,437.3582,657.0329,431.9321,655.4337,439.75,661.4238" style="stroke:#181818;stroke-width:1;"/><text fill="#000000" font-family="sans-serif" font-size="13" lengthAdjust="spacing" textLength="123.6904" x="420.74" y="624.6606">Condi&#231;&#245;es normais</text></g><!--link Irrigando to EnviarDados--><g class="link" data-entity-1="Irrigando" data-entity-2="EnviarDados" data-source-line="29" data-uid="lnk22" id="link_Irrigando_EnviarDados"><path d="M252.99,696.9538 C270.4,708.3338 286.0586,718.5696 303.4586,729.9496" fill="none" id="Irrigando-to-EnviarDados" style="stroke:#181818;stroke-width:1;"/><polygon fill="#181818" points="308.48,733.2338,303.1373,724.96,304.2955,730.497,298.7585,731.6552,308.48,733.2338" style="stroke:#181818;stroke-width:1;"/></g><!--link RemovendoAgua to EnviarDados--><g class="link" data-entity-1="RemovendoAgua" data-entity-2="EnviarDados" data-source-line="30" data-uid="lnk23" id="link_RemovendoAgua_EnviarDados"><path d="M345.74,696.7238 C345.74,708.1138 345.74,715.6738 345.74,727.1038" fill="none" id="RemovendoAgua-to-EnviarDados" style="stroke:#181818;stroke-width:1;"/><polygon fill="#181818" points="345.74,733.1038,349.74,724.1038,345.74,728.1038,341.74,724.1038,345.74,733.1038" style="stroke:#181818;stroke-width:1;"/></g><!--link EnviarDados to Sono--><g class="link" data-entity-1="EnviarDados" data-entity-2="Sono" data-source-line="31" data-uid="lnk25" id="link_EnviarDados_Sono"><path d="M378.41,783.9538 C395.38,796.6038 411.0907,808.3161 427.2707,820.3861" fill="none" id="EnviarDados-to-Sono" style="stroke:#181818;stroke-width:1;"/><polygon fill="#181818" points="432.08,823.9738,427.2579,815.3861,428.0723,820.9841,422.4744,821.7985,432.08,823.9738" style="stroke:#181818;stroke-width:1;"/></g><!--link Sono to LeituraSensores--><g class="link" data-entity-1="Sono" data-entity-2="LeituraSensores" data-source-line="32" data-uid="lnk26" id="link_Sono_LeituraSensores"><path d="M487.63,837.1438 C521.38,826.2438 573.74,802.4237 573.74,759.5938 C573.74,567.5938 573.74,567.5938 573.74,567.5938 C573.74,543.1238 560.7788,525.7979 543.2788,510.6679" fill="none" id="Sono-to-LeituraSensores" style="stroke:#181818;stroke-width:1;"/><polygon fill="#181818" points="538.74,506.7438,542.9322,515.6559,542.5224,510.0139,548.1644,509.6041,538.74,506.7438" style="stroke:#181818;stroke-width:1;"/><text fill="#000000" font-family="sans-serif" font-size="13" lengthAdjust="spacing" textLength="60.7852" x="574.74" y="676.1606">Ap&#243;s 10h</text></g><ellipse cx="237.8" cy="53.2969" fill="#222222" rx="10" ry="10" style="stroke:#222222;stroke-width:1;"/><g id="Falha"><rect fill="#F1F1F1" height="50" rx="12.5" ry="12.5" style="stroke:#181818;stroke-width:0.5;" width="57.9736" x="42.82" y="596.4469"/><line style="stroke:#181818;stroke-width:0.5;" x1="42.82" x2="100.7936" y1="622.7438" y2="622.7438"/><text fill="#000000" font-family="sans-serif" font-size="14" lengthAdjust="spacing" textLength="37.9736" x="52.82" y="614.442">Falha</text></g><g class="entity" data-entity="GMN2" data-source-line="7" data-uid="ent0003" id="entity_GMN2"><path d="M147.74,136.7369 L147.74,145.2969 L113.01,149.2969 L147.74,153.2969 L147.74,161.8697 A0,0 0 0 0 147.74,161.8697 L363.867,161.8697 A0,0 0 0 0 363.867,161.8697 L363.867,146.7369 L353.867,136.7369 L147.74,136.7369 A0,0 0 0 0 147.74,136.7369" fill="#FEFFDD" style="stroke:#181818;stroke-width:0.5;"/><path d="M353.867,136.7369 L353.867,146.7369 L363.867,146.7369 L353.867,136.7369" fill="#FEFFDD" style="stroke:#181818;stroke-width:0.5;"/><text fill="#000000" font-family="sans-serif" font-size="13" lengthAdjust="spacing" textLength="195.127" x="153.74" y="153.8038">Setup de sensores e vari&#225;veis</text></g><g class="entity" data-entity="GMN5" data-source-line="14" data-uid="ent0006" id="entity_GMN5"><path d="M179.73,247.7369 L179.73,256.2969 L144.95,260.2969 L179.73,264.2969 L179.73,272.8697 A0,0 0 0 0 179.73,272.8697 L357.8789,272.8697 A0,0 0 0 0 357.8789,272.8697 L357.8789,257.7369 L347.8789,247.7369 L179.73,247.7369 A0,0 0 0 0 179.73,247.7369" fill="#FEFFDD" style="stroke:#181818;stroke-width:0.5;"/><path d="M347.8789,247.7369 L347.8789,257.7369 L357.8789,257.7369 L347.8789,247.7369" fill="#FEFFDD" style="stroke:#181818;stroke-width:0.5;"/><text fill="#000000" font-family="sans-serif" font-size="13" lengthAdjust="spacing" textLength="157.1489" x="185.73" y="264.8038">Tentando conex&#227;o Wi-Fi</text></g><!--link *start* to Inicializacao--><g class="link" data-entity-1="*start*" data-entity-2="Inicializacao" data-source-line="3" data-uid="lnk3" id="link_*start*_Inicializacao"><path d="M229.22,58.8369 C207.34,70.3869 153.5657,98.7851 111.3357,121.0851" fill="none" id="*start*-to-Inicializacao" style="stroke:#181818;stroke-width:1;"/><polygon fill="#181818" points="106.03,123.8869,115.8564,123.2214,110.4514,121.5521,112.1207,116.1472,106.03,123.8869" style="stroke:#181818;stroke-width:1;"/></g><!--link Inicializacao to ConectandoWiFi--><g class="link" data-entity-1="Inicializacao" data-entity-2="ConectandoWiFi" data-source-line="10" data-uid="lnk4" id="link_Inicializacao_ConectandoWiFi"><path d="M63.84,174.7569 C66.81,192.7169 69.8427,211.067 72.8027,228.997" fill="none" id="Inicializacao-to-ConectandoWiFi" style="stroke:#181818;stroke-width:1;"/><polygon fill="#181818" points="73.78,234.9169,76.2606,225.3855,72.9656,229.9836,68.3675,226.6886,73.78,234.9169" style="stroke:#181818;stroke-width:1;"/></g><!--link ConectandoWiFi to Operando--><g class="link" data-entity-1="ConectandoWiFi" data-entity-2="Operando" data-source-line="17" data-uid="lnk5" id="link_ConectandoWiFi_Operando"><path d="M103.35,285.6769 C112.75,294.8269 123.4,305.4069 132.8,315.2969 C147.21,330.4469 157.8209,341.7375 172.5309,357.6775" fill="none" id="ConectandoWiFi-to-Operando" style="stroke:#181818;stroke-width:1;"/><polygon fill="#181818" points="176.6,362.0869,173.4359,352.7601,173.2091,358.4124,167.5568,358.1856,176.6,362.0869" style="stroke:#181818;stroke-width:1;"/><text fill="#000000" font-family="sans-serif" font-size="13" lengthAdjust="spacing" textLength="55.1357" x="148.8" y="328.3638">Wi-Fi OK</text></g><!--link ConectandoWiFi to Falha--><g class="link" data-entity-1="ConectandoWiFi" data-entity-2="Falha" data-source-line="18" data-uid="lnk7" id="link_ConectandoWiFi_Falha"><path d="M64.98,285.6269 C60.88,294.6869 56.86,305.2169 54.8,315.2969 C53.29,322.7069 54.58,324.7469 54.8,332.2969 C57.69,430.2269 65.62,540.6545 69.43,590.2045" fill="none" id="ConectandoWiFi-to-Falha" style="stroke:#181818;stroke-width:1;"/><polygon fill="#181818" points="69.89,596.1869,73.1882,586.9067,69.5067,591.2016,65.2118,587.52,69.89,596.1869" style="stroke:#181818;stroke-width:1;"/><text fill="#000000" font-family="sans-serif" font-size="13" lengthAdjust="spacing" textLength="26.8569" x="55.8" y="328.3638">Erro</text></g><!--link Falha to ConectandoWiFi--><g class="link" data-entity-1="Falha" data-entity-2="ConectandoWiFi" data-source-line="20" data-uid="lnk8" id="link_Falha_ConectandoWiFi"><path d="M73.49,596.1769 C76.85,546.6169 84.26,430.1969 86.8,332.2969 C87,324.7469 87.43,322.8269 86.8,315.2969 C86,305.5469 85.4285,300.8045 83.7885,291.5645" fill="none" id="Falha-to-ConectandoWiFi" style="stroke:#181818;stroke-width:1;"/><polygon fill="#181818" points="82.74,285.6569,80.3744,295.2174,83.6138,290.5799,88.2513,293.8193,82.74,285.6569" style="stroke:#181818;stroke-width:1;"/><text fill="#000000" font-family="sans-serif" font-size="13" lengthAdjust="spacing" textLength="35.166" x="88.8" y="328.3638">Retry</text></g><!--link *start* to Operando--><g class="link" data-entity-1="*start*" data-entity-2="Operando" data-source-line="22" data-uid="lnk9" id="link_*start*_Operando"><path d="M247.74,55.6669 C274.83,59.9669 350.05,75.9769 381.8,124.2969 C427.2,193.3869 441.6436,274.3169 442.0036,356.0269" fill="none" id="*start*-to-Operando" style="stroke:#181818;stroke-width:1;"/><polygon fill="#181818" points="442.03,362.0269,445.9903,353.0093,442.008,357.0269,437.9904,353.0446,442.03,362.0269" style="stroke:#181818;stroke-width:1;"/></g><!--SRC=[TL9BQiCm4Dth5BCk6FhPPL48ZGkXXPIua4NfGjZJPC3M14as_T33b2vwWD8J-68ToKbJEybApFleZMRaoPS84z9BgoiD1KBgl2xOGG8PEOyTEBMMbZhN36bsTt6krCF98oJ99KmDvQHBUWsaKkBrE00D2oJsbGT-6d006Vfw7I8S6iSM7I0qsbBxqI0vXQQ0S85IFMFClcA3kTUcu0LTqpPyWFRJ1oJ0FPfOGYxCS_l9iA14c5rktnA3PskqqJJgr32xEIIxrkLAYoQrLaRJLVjzYs2EthxiPhgzVlEWlxGtwNUhkKNojTNPPcZ2392e6XiPc4C9B2ZdA1j2tHRZUhiNPLpA2XoNB2l9-PXbZXKtCYKUBskziRcwelgO8NG-WeYrN-sFe8PjfIaqjSiFojGqfEqa_4BX-a7x_BygiXcR-A_aE3GfwM6yRhyTd9skrFil]--></g></svg>