<svg xmlns="http://www.w3.org/2000/svg" xmlns:xlink="http://www.w3.org/1999/xlink" contentStyleType="text/css" data-diagram-type="DESCRIPTION" height="912px" preserveAspectRatio="none" style="width:1051px;height:912px;background:#FFFFFF;" version="1.1" viewBox="0 0 1051 912" width="1051px" zoomAndPan="magnify"><defs/><g><!--cluster ESP32--><g class="cluster" data-entity="ESP32" data-source-line="12" data-uid="ent0004" id="cluster_ESP32"><rect fill="none" height="449" rx="2.5" ry="2.5" style="stroke:#181818;stroke-width:1;" width="553.45" x="492.51" y="457.2"/><text fill="#000000" font-family="sans-serif" font-size="14" font-weight="bold" lengthAdjust="spacing" textLength="247.8369" x="645.3165" y="472.1951">&#9881; Sistema de Irriga&#231;&#227;o (ESP32)</text></g><!--entity UC1--><g class="entity" data-entity="UC1" data-source-line="13" data-uid="ent0005" id="entity_UC1"><ellipse cx="869.5677" cy="863.1955" fill="#FFFFFF" rx="82.2277" ry="18.8455" style="stroke:#000000;stroke-width:0.5;"/><text fill="#000000" font-family="sans-serif" font-size="14" lengthAdjust="spacing" textLength="135.8984" x="801.6184" y="867.844">Monitorar Sensores</text></g><!--entity UC2--><g class="entity" data-entity="UC2" data-source-line="14" data-uid="ent0006" id="entity_UC2"><ellipse cx="869.5697" cy="786.2019" fill="#FFFFFF" rx="103.5097" ry="23.1019" style="stroke:#000000;stroke-width:0.5;"/><text fill="#000000" font-family="sans-serif" font-size="14" lengthAdjust="spacing" textLength="183.7637" x="777.6879" y="790.8504">Acionar Rel&#233;s de Irriga&#231;&#227;o</text></g><!--entity UC3--><g class="entity" data-entity="UC3" data-source-line="15" data-uid="ent0007" id="entity_UC3"><ellipse cx="869.5747" cy="704.2029" fill="#FFFFFF" rx="109.3147" ry="24.2629" style="stroke:#000000;stroke-width:0.5;"/><text fill="#000000" font-family="sans-serif" font-size="14" lengthAdjust="spacing" textLength="196.3965" x="771.3765" y="708.8514">Enviar Dados para a Nuvem</text></g><!--entity UC4--><g class="entity" data-entity="UC4" data-source-line="16" data-uid="ent0008" id="entity_UC4"><ellipse cx="869.5654" cy="623.1991" fill="#FFFFFF" rx="98.8454" ry="22.1691" style="stroke:#000000;stroke-width:0.5;"/><text fill="#000000" font-family="sans-serif" font-size="14" lengthAdjust="spacing" textLength="173.5098" x="782.8105" y="627.8475">Gerenciar Conex&#227;o Wi-Fi</text></g><!--entity UC5--><g class="entity" data-entity="UC5" data-source-line="17" data-uid="ent0009" id="entity_UC5"><ellipse cx="869.5654" cy="533.1971" fill="#FFFFFF" rx="152.3854" ry="32.8771" style="stroke:#000000;stroke-width:0.5;"/><text fill="#000000" font-family="sans-serif" font-size="14" lengthAdjust="spacing" textLength="287.4443" x="725.8432" y="537.8455">Entrar em Modo de Economia de Energia</text></g><!--entity Cloud--><g class="entity" data-entity="Cloud" data-source-line="9" data-uid="ent0002" id="entity_Cloud"><ellipse cx="68.2788" cy="378.05" fill="#F1F1F1" rx="16" ry="16" style="stroke:#181818;stroke-width:0.5;"/><path d="M68.2788,398.05 C72.2788,398.05 75.2788,398.05 79.2788,394.05 C87.2788,394.05 95.2788,402.05 95.2788,410.05 L95.2788,414.05 C95.2788,418.05 91.2788,422.05 87.2788,422.05 L49.2788,422.05 C45.2788,422.05 41.2788,418.05 41.2788,414.05 L41.2788,410.05 C41.2788,402.05 49.2788,394.05 57.2788,394.05 C61.2788,398.05 64.2788,398.05 68.2788,398.05" fill="#F1F1F1" style="stroke:#181818;stroke-width:0.5;"/><text fill="#000000" font-family="sans-serif" font-size="14" lengthAdjust="spacing" textLength="124.5576" x="6" y="435.5451">Arduino IoT Cloud</text></g><!--entity Agricultor--><g class="entity" data-entity="Agricultor" data-source-line="10" data-uid="ent0003" id="entity_Agricultor"><ellipse cx="68.2825" cy="98.05" fill="#F1F1F1" rx="16" ry="16" style="stroke:#181818;stroke-width:0.5;"/><path d="M68.2825,118.05 C72.2825,118.05 75.2825,118.05 79.2825,114.05 C87.2825,114.05 95.2825,122.05 95.2825,130.05 L95.2825,134.05 C95.2825,138.05 91.2825,142.05 87.2825,142.05 L49.2825,142.05 C45.2825,142.05 41.2825,138.05 41.2825,134.05 L41.2825,130.05 C41.2825,122.05 49.2825,114.05 57.2825,114.05 C61.2825,118.05 64.2825,118.05 68.2825,118.05" fill="#F1F1F1" style="stroke:#181818;stroke-width:0.5;"/><text fill="#000000" font-family="sans-serif" font-size="14" lengthAdjust="spacing" textLength="121.625" x="7.47" y="155.5451">Produtor Agr&#237;cola</text></g><!--entity UC6--><g class="entity" data-entity="UC6" data-source-line="20" data-uid="ent0010" id="entity_UC6"><ellipse cx="500.8721" cy="307.1964" fill="#FFFFFF" rx="109.4821" ry="24.2964" style="stroke:#000000;stroke-width:0.5;"/><text fill="#000000" font-family="sans-serif" font-size="14" lengthAdjust="spacing" textLength="196.7588" x="402.4927" y="311.8449">Receber Dados de Sensores</text></g><!--entity UC7--><g class="entity" data-entity="UC7" data-source-line="21" data-uid="ent0011" id="entity_UC7"><ellipse cx="500.8743" cy="400.2029" fill="#FFFFFF" rx="155.3143" ry="33.4629" style="stroke:#000000;stroke-width:0.5;"/><text fill="#000000" font-family="sans-serif" font-size="14" lengthAdjust="spacing" textLength="293.5283" x="354.1101" y="404.8513">Enviar Comandos ao Sistema de Irriga&#231;&#227;o</text></g><!--entity UC8--><g class="entity" data-entity="UC8" data-source-line="22" data-uid="ent0012" id="entity_UC8"><ellipse cx="500.8704" cy="31.2021" fill="#FFFFFF" rx="114.0104" ry="25.2021" style="stroke:#000000;stroke-width:0.5;"/><text fill="#000000" font-family="sans-serif" font-size="14" lengthAdjust="spacing" textLength="206.5273" x="397.6067" y="35.8505">Visualizar Dados de Sensores</text></g><!--entity UC9--><g class="entity" data-entity="UC9" data-source-line="23" data-uid="ent0013" id="entity_UC9"><ellipse cx="500.8742" cy="120.2048" fill="#FFFFFF" rx="130.5742" ry="28.5148" style="stroke:#000000;stroke-width:0.5;"/><text fill="#000000" font-family="sans-serif" font-size="14" lengthAdjust="spacing" textLength="241.7871" x="379.9806" y="124.8533">Configurar Par&#226;metros do Sistema</text></g><!--entity UC10--><g class="entity" data-entity="UC10" data-source-line="24" data-uid="ent0014" id="entity_UC10"><ellipse cx="500.8682" cy="216.1996" fill="#FFFFFF" rx="148.9982" ry="32.1996" style="stroke:#000000;stroke-width:0.5;"/><text fill="#000000" font-family="sans-serif" font-size="14" lengthAdjust="spacing" textLength="280.3965" x="360.67" y="220.8481">Ativar/Desativar Irriga&#231;&#227;o Manualmente</text></g><!--link ESP32 to UC1--><g class="link" data-entity-1="ESP32" data-entity-2="UC1" data-source-line="27" data-uid="lnk15" id="link_ESP32_UC1"><path d="M501.94,664.28 C504.88,667.73 599.69,778.34 701.19,827.2 C730.25,841.19 758.8296,848.7571 788.9296,854.0171" fill="none" id="ESP32-to-UC1" style="stroke:#000000;stroke-width:1;"/><polygon fill="#000000" points="794.84,855.05,786.6629,849.5604,789.9146,854.1893,785.2858,857.441,794.84,855.05" style="stroke:#000000;stroke-width:1;"/></g><!--link ESP32 to UC2--><g class="link" data-entity-1="ESP32" data-entity-2="UC2" data-source-line="28" data-uid="lnk16" id="link_ESP32_UC2"><path d="M501.95,664.24 C505.25,665.84 611.46,717.22 701.19,746.2 C730.47,755.66 757.4407,762.6438 786.2007,769.2138" fill="none" id="ESP32-to-UC2" style="stroke:#000000;stroke-width:1;"/><polygon fill="#000000" points="792.05,770.55,784.1668,764.6461,787.1756,769.4365,782.3852,772.4452,792.05,770.55" style="stroke:#000000;stroke-width:1;"/></g><!--link ESP32 to UC3--><g class="link" data-entity-1="ESP32" data-entity-2="UC3" data-source-line="29" data-uid="lnk17" id="link_ESP32_UC3"><path d="M501.94,664.21 C505.65,664.61 657.3454,681.1594 764.6954,692.8694" fill="none" id="ESP32-to-UC3" style="stroke:#000000;stroke-width:1;"/><polygon fill="#000000" points="770.66,693.52,762.1468,688.5676,765.6895,692.9778,761.2793,696.5205,770.66,693.52" style="stroke:#000000;stroke-width:1;"/></g><!--link ESP32 to UC4--><g class="link" data-entity-1="ESP32" data-entity-2="UC4" data-source-line="30" data-uid="lnk18" id="link_ESP32_UC4"><path d="M501.94,664.19 C505.77,663.76 667.3271,645.6966 774.5771,633.7066" fill="none" id="ESP32-to-UC4" style="stroke:#000000;stroke-width:1;"/><polygon fill="#000000" points="780.54,633.04,771.1513,630.0647,775.571,633.5955,772.0401,638.0152,780.54,633.04" style="stroke:#000000;stroke-width:1;"/></g><!--link ESP32 to UC5--><g class="link" data-entity-1="ESP32" data-entity-2="UC5" data-source-line="31" data-uid="lnk19" id="link_ESP32_UC5"><path d="M501.95,664.16 C505.28,662.66 612.39,614.42 701.19,583.2 C724.93,574.85 745.1327,568.3828 769.3527,561.1228" fill="none" id="ESP32-to-UC5" style="stroke:#000000;stroke-width:1;"/><polygon fill="#000000" points="775.1,559.4,765.3305,558.1526,770.3105,560.8357,767.6275,565.8157,775.1,559.4" style="stroke:#000000;stroke-width:1;"/></g><!--link Cloud to UC6--><g class="link" data-entity-1="Cloud" data-entity-2="UC6" data-source-line="34" data-uid="lnk20" id="link_Cloud_UC6"><path d="M130.96,381.88 C140.83,379.17 150.95,376.51 160.56,374.2 C246.08,353.61 338.9359,335.7186 407.7759,323.2586" fill="none" id="Cloud-to-UC6" style="stroke:#000000;stroke-width:1;"/><polygon fill="#000000" points="413.68,322.19,404.1115,319.8569,408.7599,323.0805,405.5363,327.729,413.68,322.19" style="stroke:#000000;stroke-width:1;"/></g><!--link Cloud to UC7--><g class="link" data-entity-1="Cloud" data-entity-2="UC7" data-source-line="35" data-uid="lnk21" id="link_Cloud_UC7"><path d="M130.97,400.2 C186.78,400.2 265.33,400.2 339.41,400.2" fill="none" id="Cloud-to-UC7" style="stroke:#000000;stroke-width:1;"/><polygon fill="#000000" points="345.41,400.2,336.41,396.2,340.41,400.2,336.41,404.2,345.41,400.2" style="stroke:#000000;stroke-width:1;"/></g><!--link Cloud to ESP32--><g class="link" data-entity-1="Cloud" data-entity-2="ESP32" data-source-line="36" data-uid="lnk22" id="link_Cloud_ESP32"><path d="M136.0851,441.1562 C195.1501,477.3712 281.2875,530.1825 358.255,577.3713 C396.7388,600.9656 431.6513,622.3703 457.1834,638.0239 C469.9495,645.8507 480.3705,652.2397 487.7204,656.7458 C488.6391,657.3091 489.5098,657.8429 490.3311,658.3464 C490.7418,658.5982 491.1401,658.8424 491.5259,659.0789 C491.7188,659.1972 486.7934,656.1775 486.98,656.2919" fill="none" id="Cloud-ESP32" style="stroke:#000000;stroke-width:1;"/><polygon fill="#000000" points="130.97,438.02,136.5518,446.1344,135.2326,440.6335,140.7334,439.3143,130.97,438.02" style="stroke:#000000;stroke-width:1;"/><polygon fill="#000000" points="492.0952,659.4279,486.5131,651.3137,487.8325,656.8146,482.3317,658.134,492.0952,659.4279" style="stroke:#000000;stroke-width:1;"/><text fill="#000000" font-family="sans-serif" font-size="13" lengthAdjust="spacing" textLength="153.4355" x="161.56" y="454.2669">Comunica&#231;&#227;o de Dados</text></g><!--link Agricultor to UC8--><g class="link" data-entity-1="Agricultor" data-entity-2="UC8" data-source-line="39" data-uid="lnk23" id="link_Agricultor_UC8"><path d="M129.46,102.19 C139.79,99.35 150.45,96.57 160.56,94.2 C243.39,74.76 332.813,58.4945 401.293,46.9845" fill="none" id="Agricultor-to-UC8" style="stroke:#000000;stroke-width:1;"/><polygon fill="#000000" points="407.21,45.99,397.6715,43.5371,402.2792,46.8188,398.9975,51.4264,407.21,45.99" style="stroke:#000000;stroke-width:1;"/></g><!--link Agricultor to UC9--><g class="link" data-entity-1="Agricultor" data-entity-2="UC9" data-source-line="40" data-uid="lnk24" id="link_Agricultor_UC9"><path d="M129.15,120.2 C191.2,120.2 284.12,120.2 364.18,120.2" fill="none" id="Agricultor-to-UC9" style="stroke:#000000;stroke-width:1;"/><polygon fill="#000000" points="370.18,120.2,361.18,116.2,365.18,120.2,361.18,124.2,370.18,120.2" style="stroke:#000000;stroke-width:1;"/></g><!--link Agricultor to UC10--><g class="link" data-entity-1="Agricultor" data-entity-2="UC10" data-source-line="41" data-uid="lnk25" id="link_Agricultor_UC10"><path d="M129.15,133.55 C198.01,148.9 306.4438,173.0743 389.9538,191.6943" fill="none" id="Agricultor-to-UC10" style="stroke:#000000;stroke-width:1;"/><polygon fill="#000000" points="395.81,193,387.8962,187.1373,390.9298,191.9119,386.1552,194.9455,395.81,193" style="stroke:#000000;stroke-width:1;"/></g><!--SRC=[TLDBRjim4Dtp50DlsYwC9d6-HL70LTmY2nT6tCzwGaqK8XAd659sF-X1scMxABB8ANoJdgGa9SUIZMo4cU5xR-ODgPAkFNW6CSMDXzm8QM_OAdThx6SKh02rPvdxhoK1BibnHPt3sf56H_1T0Rn6VLi8rpRFk6I1vOtn5EiiEKbJkoe3ADJ68hpibduebHh1O2nvRIp31R-7hEGw7m2w9bf3Pi9v7QDn8QjxpIKcJCYChijme5JqWRO8Gm_-_Ve9S-CyLGWvmOK4hxZwk_h3y7GoduqEdYLs2fEHjQd1bAq9QYWm9-jOo2NaXso_YnhhiB20kQHoTUUsMhI4WovXOXScuCynPmTnZu3mhbvGrO97NV1R4h8wuZEsz2LE_SaCtvWMUzWNzd5Ogc3AEST99fejLoOPdrYImc1BF8ehVs1UagOhMiyKm5k6ZzNsz1bNQ2CO-P7jjjIJ3VMZSJMMvXi-tkXqWmv-hqrHHqSpbDNlYhn4paE_bdAseOozMQ0yFoU7AUfTzXHjw5wHzRI-nZsbda26BiYQK1RRwAUde9e7CHo-IXVUpVfdervssCkEOeET5wtIjuKSzxAJDdiPqqRfHTnrROrkVOIbfUr5wTq_GMt-WbRoTBTqjblQt_iF]--></g></svg>