<svg xmlns="http://www.w3.org/2000/svg" xmlns:xlink="http://www.w3.org/1999/xlink" contentStyleType="text/css" data-diagram-type="ACTIVITY" height="1217px" preserveAspectRatio="none" style="width:441px;height:1217px;background:#FFFFFF;" version="1.1" viewBox="0 0 441 1217" width="441px" zoomAndPan="magnify"><defs/><g><rect fill="none" height="345.1094" style="stroke:#000000;stroke-width:1.5;" width="220.7559" x="101.5063" y="11"/><path d="M213.4712,11 L213.4712,20.2969 L203.4712,30.2969 L101.5063,30.2969" fill="none" style="stroke:#000000;stroke-width:1.5;"/><text fill="#000000" font-family="sans-serif" font-size="14" lengthAdjust="spacing" textLength="101.9648" x="104.5063" y="24.9951">zerarTudoFree</text><rect fill="#F1F1F1" height="33.9688" rx="12.5" ry="12.5" style="stroke:#181818;stroke-width:0.5;" width="176.1875" x="123.7905" y="40.2969"/><text fill="#000000" font-family="sans-serif" font-size="12" lengthAdjust="spacing" textLength="156.1875" x="133.7905" y="61.4355">Para cada canal de 0 a 15</text><rect fill="#F1F1F1" height="33.9688" rx="12.5" ry="12.5" style="stroke:#181818;stroke-width:0.5;" width="200.7559" x="111.5063" y="94.2656"/><text fill="#000000" font-family="sans-serif" font-size="12" lengthAdjust="spacing" textLength="180.7559" x="121.5063" y="115.4043">valores_analogicos[canal] &#8592; 0</text><rect fill="#F1F1F1" height="33.9688" rx="12.5" ry="12.5" style="stroke:#181818;stroke-width:0.5;" width="167.8145" x="127.9771" y="148.2344"/><text fill="#000000" font-family="sans-serif" font-size="12" lengthAdjust="spacing" textLength="147.8145" x="137.9771" y="169.373">somaLeituras[canal] &#8592; 0</text><rect fill="#F1F1F1" height="33.9688" rx="12.5" ry="12.5" style="stroke:#181818;stroke-width:0.5;" width="130.5547" x="146.6069" y="202.2031"/><text fill="#000000" font-family="sans-serif" font-size="12" lengthAdjust="spacing" textLength="110.5547" x="156.6069" y="223.3418">medias[canal] &#8592; 0</text><rect fill="#F1F1F1" height="33.9688" rx="12.5" ry="12.5" style="stroke:#181818;stroke-width:0.5;" width="194.6914" x="114.5386" y="256.1719"/><text fill="#000000" font-family="sans-serif" font-size="12" lengthAdjust="spacing" textLength="174.6914" x="124.5386" y="277.3105">mediasPercentual[canal] &#8592; 0</text><rect fill="#F1F1F1" height="33.9688" rx="12.5" ry="12.5" style="stroke:#181818;stroke-width:0.5;" width="166.0625" x="128.853" y="310.1406"/><text fill="#000000" font-family="sans-serif" font-size="12" lengthAdjust="spacing" textLength="146.0625" x="138.853" y="331.2793">totalAmostrasJanela &#8592; 0</text><rect fill="none" height="840.7891" style="stroke:#000000;stroke-width:1.5;" width="419.7686" x="11" y="366.1094"/><path d="M274.7021,366.1094 L274.7021,375.4063 L264.7021,385.4063 L11,385.4063" fill="none" style="stroke:#000000;stroke-width:1.5;"/><text fill="#000000" font-family="sans-serif" font-size="14" lengthAdjust="spacing" textLength="253.7021" x="14" y="380.1045">atualizarIndicador(tempoAtualMillis)</text><rect fill="#F1F1F1" height="33.9688" rx="12.5" ry="12.5" style="stroke:#181818;stroke-width:0.5;" width="272.8789" x="75.4448" y="450.8086"/><text fill="#000000" font-family="sans-serif" font-size="12" lengthAdjust="spacing" textLength="252.8789" x="85.4448" y="471.9473">ultimoTempoIndicador = tempoAtualMillis</text><rect fill="#F1F1F1" height="33.9688" rx="12.5" ry="12.5" style="stroke:#181818;stroke-width:0.5;" width="250.959" x="86.4048" y="504.7773"/><text fill="#000000" font-family="sans-serif" font-size="12" lengthAdjust="spacing" textLength="230.959" x="96.4048" y="525.916">contadorPontos = contadorPontos + 1</text><rect fill="#F1F1F1" height="33.9688" rx="12.5" ry="12.5" style="stroke:#181818;stroke-width:0.5;" width="139.2969" x="142.2358" y="607.1484"/><text fill="#000000" font-family="sans-serif" font-size="12" lengthAdjust="spacing" textLength="119.2969" x="152.2358" y="628.2871">contadorPontos = 1</text><polygon fill="#F1F1F1" points="154.2874,558.7461,269.4812,558.7461,281.4812,570.7461,269.4812,582.7461,154.2874,582.7461,142.2874,570.7461,154.2874,558.7461" style="stroke:#181818;stroke-width:0.5;"/><text fill="#000000" font-family="sans-serif" font-size="11" lengthAdjust="spacing" textLength="19.5024" x="215.8843" y="592.9565">sim</text><text fill="#000000" font-family="sans-serif" font-size="11" lengthAdjust="spacing" textLength="115.1938" x="154.2874" y="574.5542">contadorPontos &gt; 5?</text><polygon fill="#F1F1F1" points="211.8843,661.1172,223.8843,673.1172,211.8843,685.1172,199.8843,673.1172,211.8843,661.1172" style="stroke:#181818;stroke-width:0.5;"/><rect fill="#F1F1F1" height="33.9688" rx="12.5" ry="12.5" style="stroke:#181818;stroke-width:0.5;" width="89.5859" x="167.0913" y="705.1172"/><text fill="#000000" font-family="sans-serif" font-size="12" lengthAdjust="spacing" textLength="69.5859" x="177.0913" y="726.2559">pontos = ""</text><rect fill="#F1F1F1" height="33.9688" rx="12.5" ry="12.5" style="stroke:#181818;stroke-width:0.5;" width="151.9473" x="135.9106" y="803.0859"/><text fill="#000000" font-family="sans-serif" font-size="12" lengthAdjust="spacing" textLength="131.9473" x="145.9106" y="824.2246">pontos = pontos + "."</text><polygon fill="#F1F1F1" points="211.8843,759.0859,223.8843,771.0859,211.8843,783.0859,199.8843,771.0859,211.8843,759.0859" style="stroke:#181818;stroke-width:0.5;"/><polygon fill="#F1F1F1" points="159.1777,857.0547,264.5908,857.0547,276.5908,869.0547,264.5908,881.0547,159.1777,881.0547,147.1777,869.0547,159.1777,857.0547" style="stroke:#181818;stroke-width:0.5;"/><text fill="#000000" font-family="sans-serif" font-size="11" lengthAdjust="spacing" textLength="105.4131" x="159.1777" y="872.8628">i &lt; contadorPontos</text><rect fill="#F1F1F1" height="33.9688" rx="12.5" ry="12.5" style="stroke:#181818;stroke-width:0.5;" width="141.3301" x="141.2192" y="901.0547"/><text fill="#000000" font-family="sans-serif" font-size="12" lengthAdjust="spacing" textLength="121.3301" x="151.2192" y="922.1934">Limpa a tela do LCD</text><rect fill="#F1F1F1" height="33.9688" rx="12.5" ry="12.5" style="stroke:#181818;stroke-width:0.5;" width="356.9258" x="33.4214" y="955.0234"/><text fill="#000000" font-family="sans-serif" font-size="12" lengthAdjust="spacing" textLength="336.9258" x="43.4214" y="976.1621">Define o cursor na coluna (15 - contadorPontos), linha 1</text><rect fill="#F1F1F1" height="33.9688" rx="12.5" ry="12.5" style="stroke:#181818;stroke-width:0.5;" width="218.9023" x="102.4331" y="1008.9922"/><text fill="#000000" font-family="sans-serif" font-size="12" lengthAdjust="spacing" textLength="198.9023" x="112.4331" y="1030.1309">Imprime (pontos + "     ") no LCD</text><rect fill="#F1F1F1" height="33.9688" rx="12.5" ry="12.5" style="stroke:#181818;stroke-width:0.5;" width="220.8242" x="101.4722" y="1062.9609"/><text fill="#000000" font-family="sans-serif" font-size="12" lengthAdjust="spacing" textLength="200.8242" x="111.4722" y="1084.0996">Imprime pontos no Monitor Serial</text><rect fill="#F1F1F1" height="33.9688" rx="12.5" ry="12.5" style="stroke:#181818;stroke-width:0.5;" width="261.2305" x="81.269" y="1116.9297"/><text fill="#000000" font-family="sans-serif" font-size="12" lengthAdjust="spacing" textLength="241.2305" x="91.269" y="1138.0684">Imprime pontos via Bluetooth (SerialBT)</text><polygon fill="#F1F1F1" points="33,402.4063,390.7686,402.4063,402.7686,414.4063,390.7686,426.4063,33,426.4063,21,414.4063,33,402.4063" style="stroke:#181818;stroke-width:0.5;"/><text fill="#000000" font-family="sans-serif" font-size="11" lengthAdjust="spacing" textLength="19.5024" x="215.8843" y="436.6167">sim</text><text fill="#000000" font-family="sans-serif" font-size="11" lengthAdjust="spacing" textLength="357.7686" x="33" y="418.2144">tempoAtualMillis - ultimoTempoIndicador &gt;= intervaloIndicador?</text><polygon fill="#F1F1F1" points="211.8843,1170.8984,223.8843,1182.8984,211.8843,1194.8984,199.8843,1182.8984,211.8843,1170.8984" style="stroke:#181818;stroke-width:0.5;"/><line style="stroke:#181818;stroke-width:1;" x1="211.8843" x2="211.8843" y1="74.2656" y2="94.2656"/><polygon fill="#181818" points="207.8843,84.2656,211.8843,94.2656,215.8843,84.2656,211.8843,88.2656" style="stroke:#181818;stroke-width:1;"/><line style="stroke:#181818;stroke-width:1;" x1="211.8843" x2="211.8843" y1="128.2344" y2="148.2344"/><polygon fill="#181818" points="207.8843,138.2344,211.8843,148.2344,215.8843,138.2344,211.8843,142.2344" style="stroke:#181818;stroke-width:1;"/><line style="stroke:#181818;stroke-width:1;" x1="211.8843" x2="211.8843" y1="182.2031" y2="202.2031"/><polygon fill="#181818" points="207.8843,192.2031,211.8843,202.2031,215.8843,192.2031,211.8843,196.2031" style="stroke:#181818;stroke-width:1;"/><line style="stroke:#181818;stroke-width:1;" x1="211.8843" x2="211.8843" y1="236.1719" y2="256.1719"/><polygon fill="#181818" points="207.8843,246.1719,211.8843,256.1719,215.8843,246.1719,211.8843,250.1719" style="stroke:#181818;stroke-width:1;"/><line style="stroke:#181818;stroke-width:1;" x1="211.8843" x2="211.8843" y1="290.1406" y2="310.1406"/><polygon fill="#181818" points="207.8843,300.1406,211.8843,310.1406,215.8843,300.1406,211.8843,304.1406" style="stroke:#181818;stroke-width:1;"/><line style="stroke:#181818;stroke-width:1;" x1="211.8843" x2="211.8843" y1="484.7773" y2="504.7773"/><polygon fill="#181818" points="207.8843,494.7773,211.8843,504.7773,215.8843,494.7773,211.8843,498.7773" style="stroke:#181818;stroke-width:1;"/><line style="stroke:#181818;stroke-width:1;" x1="211.8843" x2="211.8843" y1="582.7461" y2="607.1484"/><polygon fill="#181818" points="207.8843,597.1484,211.8843,607.1484,215.8843,597.1484,211.8843,601.1484" style="stroke:#181818;stroke-width:1;"/><line style="stroke:#181818;stroke-width:1;" x1="281.4812" x2="293.4812" y1="570.7461" y2="570.7461"/><polygon fill="#181818" points="289.4812,614.1328,293.4812,624.1328,297.4812,614.1328,293.4812,618.1328" style="stroke:#181818;stroke-width:1;"/><line style="stroke:#181818;stroke-width:1;" x1="293.4812" x2="293.4812" y1="570.7461" y2="673.1172"/><line style="stroke:#181818;stroke-width:1;" x1="293.4812" x2="223.8843" y1="673.1172" y2="673.1172"/><polygon fill="#181818" points="233.8843,669.1172,223.8843,673.1172,233.8843,677.1172,229.8843,673.1172" style="stroke:#181818;stroke-width:1;"/><line style="stroke:#181818;stroke-width:1;" x1="211.8843" x2="211.8843" y1="641.1172" y2="661.1172"/><polygon fill="#181818" points="207.8843,651.1172,211.8843,661.1172,215.8843,651.1172,211.8843,655.1172" style="stroke:#181818;stroke-width:1;"/><line style="stroke:#181818;stroke-width:1;" x1="211.8843" x2="211.8843" y1="538.7461" y2="558.7461"/><polygon fill="#181818" points="207.8843,548.7461,211.8843,558.7461,215.8843,548.7461,211.8843,552.7461" style="stroke:#181818;stroke-width:1;"/><line style="stroke:#181818;stroke-width:1;" x1="211.8843" x2="211.8843" y1="685.1172" y2="705.1172"/><polygon fill="#181818" points="207.8843,695.1172,211.8843,705.1172,215.8843,695.1172,211.8843,699.1172" style="stroke:#181818;stroke-width:1;"/><line style="stroke:#181818;stroke-width:1;" x1="211.8843" x2="211.8843" y1="783.0859" y2="803.0859"/><polygon fill="#181818" points="207.8843,793.0859,211.8843,803.0859,215.8843,793.0859,211.8843,797.0859" style="stroke:#181818;stroke-width:1;"/><line style="stroke:#181818;stroke-width:1;" x1="276.5908" x2="299.8579" y1="869.0547" y2="869.0547"/><polygon fill="#181818" points="295.8579,830.0703,299.8579,820.0703,303.8579,830.0703,299.8579,826.0703" style="stroke:#181818;stroke-width:1;"/><line style="stroke:#181818;stroke-width:1;" x1="299.8579" x2="299.8579" y1="771.0859" y2="869.0547"/><line style="stroke:#181818;stroke-width:1;" x1="299.8579" x2="223.8843" y1="771.0859" y2="771.0859"/><polygon fill="#181818" points="233.8843,767.0859,223.8843,771.0859,233.8843,775.0859,229.8843,771.0859" style="stroke:#181818;stroke-width:1;"/><line style="stroke:#181818;stroke-width:1;" x1="211.8843" x2="211.8843" y1="837.0547" y2="857.0547"/><polygon fill="#181818" points="207.8843,847.0547,211.8843,857.0547,215.8843,847.0547,211.8843,851.0547" style="stroke:#181818;stroke-width:1;"/><line style="stroke:#181818;stroke-width:1;" x1="211.8843" x2="211.8843" y1="739.0859" y2="759.0859"/><polygon fill="#181818" points="207.8843,749.0859,211.8843,759.0859,215.8843,749.0859,211.8843,753.0859" style="stroke:#181818;stroke-width:1;"/><line style="stroke:#181818;stroke-width:1;" x1="211.8843" x2="211.8843" y1="881.0547" y2="901.0547"/><polygon fill="#181818" points="207.8843,891.0547,211.8843,901.0547,215.8843,891.0547,211.8843,895.0547" style="stroke:#181818;stroke-width:1;"/><line style="stroke:#181818;stroke-width:1;" x1="211.8843" x2="211.8843" y1="935.0234" y2="955.0234"/><polygon fill="#181818" points="207.8843,945.0234,211.8843,955.0234,215.8843,945.0234,211.8843,949.0234" style="stroke:#181818;stroke-width:1;"/><line style="stroke:#181818;stroke-width:1;" x1="211.8843" x2="211.8843" y1="988.9922" y2="1008.9922"/><polygon fill="#181818" points="207.8843,998.9922,211.8843,1008.9922,215.8843,998.9922,211.8843,1002.9922" style="stroke:#181818;stroke-width:1;"/><line style="stroke:#181818;stroke-width:1;" x1="211.8843" x2="211.8843" y1="1042.9609" y2="1062.9609"/><polygon fill="#181818" points="207.8843,1052.9609,211.8843,1062.9609,215.8843,1052.9609,211.8843,1056.9609" style="stroke:#181818;stroke-width:1;"/><line style="stroke:#181818;stroke-width:1;" x1="211.8843" x2="211.8843" y1="1096.9297" y2="1116.9297"/><polygon fill="#181818" points="207.8843,1106.9297,211.8843,1116.9297,215.8843,1106.9297,211.8843,1110.9297" style="stroke:#181818;stroke-width:1;"/><line style="stroke:#181818;stroke-width:1;" x1="211.8843" x2="211.8843" y1="426.4063" y2="450.8086"/><polygon fill="#181818" points="207.8843,440.8086,211.8843,450.8086,215.8843,440.8086,211.8843,444.8086" style="stroke:#181818;stroke-width:1;"/><line style="stroke:#181818;stroke-width:1;" x1="402.7686" x2="414.7686" y1="414.4063" y2="414.4063"/><polygon fill="#181818" points="410.7686,796.1523,414.7686,806.1523,418.7686,796.1523,414.7686,800.1523" style="stroke:#181818;stroke-width:1;"/><line style="stroke:#181818;stroke-width:1;" x1="414.7686" x2="414.7686" y1="414.4063" y2="1182.8984"/><line style="stroke:#181818;stroke-width:1;" x1="414.7686" x2="223.8843" y1="1182.8984" y2="1182.8984"/><polygon fill="#181818" points="233.8843,1178.8984,223.8843,1182.8984,233.8843,1186.8984,229.8843,1182.8984" style="stroke:#181818;stroke-width:1;"/><line style="stroke:#181818;stroke-width:1;" x1="211.8843" x2="211.8843" y1="1150.8984" y2="1170.8984"/><polygon fill="#181818" points="207.8843,1160.8984,211.8843,1170.8984,215.8843,1160.8984,211.8843,1164.8984" style="stroke:#181818;stroke-width:1;"/><line style="stroke:#181818;stroke-width:1;" x1="211.8843" x2="211.8843" y1="344.1094" y2="402.4063"/><polygon fill="#181818" points="207.8843,392.4063,211.8843,402.4063,215.8843,392.4063,211.8843,396.4063" style="stroke:#181818;stroke-width:1;"/><!--SRC=[TPBFIkH04CRlynH5JWcxYdEOoyog-0T16M5WvxQ854cDKz3T5JeL5royUlOPzqcsEYRZ6aS8tL3VBrzzrTqrHcLb2V144UEwhUGg4i6V2S1yXH6Xn2ej0HrK14U0C9qjalg8JY8rzqcI1owb-TLXT_3tvHMEEgOHZqjYRIFkKJrL_7LzHR6ae2sw4P4G5KLtvgLHSxx1G0u7-NaogNTJPPWC-0dZTQZOPf6OA_bQpbBzbftZfiXiN3Fb3NpIu01Qf-nbdOIT1vmS0mUbc0vXLpqjGBSK86_O5sPedqNT-_ynZ3jrSnbUIj24h6oNni1HuHjCUpJb7OadC1k7s6ywNNGIMQ1DtxWUj2ph6qIg2NNmsEdr42Gxp1R_WV1xouuWP_Wn2btqBPRiQxGNfEcwAe7bnUMRmVoIDXm81CesDdO-mTwSkDQsV3gpInZvVGV7OOl36FDhNqVsrlizMnSwAo3qRJw2FMVYhGHMw_YJ8gFxWdjaX7FNaehe5l8tzdnTT7X_YC__0000]--></g></svg>