<svg xmlns="http://www.w3.org/2000/svg" xmlns:xlink="http://www.w3.org/1999/xlink" contentStyleType="text/css" data-diagram-type="DESCRIPTION" height="874px" preserveAspectRatio="none" style="width:1503px;height:874px;background:#FFFFFF;" version="1.1" viewBox="0 0 1503 874" width="1503px" zoomAndPan="magnify"><title>Diagrama de Componentes - Irriga&#231;&#227;o Automatizada (ESP32)</title><defs/><g><g class="title" data-source-line="2"><text fill="#000000" font-family="sans-serif" font-size="14" font-weight="bold" lengthAdjust="spacing" textLength="481.4551" x="504.1775" y="22.9951">Diagrama de Componentes - Irriga&#231;&#227;o Automatizada (ESP32)</text></g><!--cluster Sistema de Irriga??o Automatizada--><g class="cluster" data-entity="Sistema de Irriga&#231;&#227;o Automatizada" data-source-line="9" data-uid="ent0002" id="cluster_Sistema de Irriga&#231;&#227;o Automatizada"><path d="M8.5,43.2969 L287.4287,43.2969 A3.75,3.75 0 0 1 289.9287,45.7969 L296.9287,65.5938 L1453.5,65.5938 A2.5,2.5 0 0 1 1456,68.0938 L1456,865.3569 A2.5,2.5 0 0 1 1453.5,867.8569 L8.5,867.8569 A2.5,2.5 0 0 1 6,865.3569 L6,45.7969 A2.5,2.5 0 0 1 8.5,43.2969" fill="none" style="stroke:#000000;stroke-width:1.5;"/><line style="stroke:#000000;stroke-width:1.5;" x1="6" x2="296.9287" y1="65.5938" y2="65.5938"/><text fill="#000000" font-family="sans-serif" font-size="14" font-weight="bold" lengthAdjust="spacing" textLength="277.9287" x="10" y="58.292">Sistema de Irriga&#231;&#227;o Automatizada</text></g><!--entity esp32--><g class="entity" data-entity="esp32" data-source-line="11" data-uid="ent0003" id="entity_esp32"><rect fill="#F1F1F1" height="36.2969" rx="2.5" ry="2.5" style="stroke:#181818;stroke-width:0.5;" width="137.6123" x="1108.19" y="419.0769"/><text fill="#000000" font-family="sans-serif" font-size="14" lengthAdjust="spacing" textLength="117.6123" x="1118.19" y="442.072">ESP32 DevKit V1</text></g><!--entity firmware--><g class="entity" data-entity="firmware" data-source-line="13" data-uid="ent0004" id="entity_firmware"><rect fill="#F1F1F1" height="52.5938" rx="2.5" ry="2.5" style="stroke:#181818;stroke-width:0.5;" width="162.2695" x="699.87" y="516.3769"/><text fill="#000000" font-family="sans-serif" font-size="14" lengthAdjust="spacing" textLength="114.1738" x="723.9179" y="539.372">Firmware ESP32</text><text fill="#000000" font-family="sans-serif" font-size="14" lengthAdjust="spacing" textLength="142.2695" x="709.87" y="555.6689">(L&#243;gica de Controle)</text></g><!--entity dht11--><g class="entity" data-entity="dht11" data-source-line="14" data-uid="ent0005" id="entity_dht11"><rect fill="#F1F1F1" height="52.5938" rx="2.5" ry="2.5" style="stroke:#181818;stroke-width:0.5;" width="197.0029" x="22.5" y="657.8169"/><text fill="#000000" font-family="sans-serif" font-size="14" lengthAdjust="spacing" textLength="100.1123" x="70.9453" y="680.812">Sensor DHT11</text><text fill="#000000" font-family="sans-serif" font-size="14" lengthAdjust="spacing" textLength="177.0029" x="32.5" y="697.1089">(Temp. e Umidade do Ar)</text></g><!--entity ldr--><g class="entity" data-entity="ldr" data-source-line="15" data-uid="ent0006" id="entity_ldr"><rect fill="#F1F1F1" height="52.5938" rx="2.5" ry="2.5" style="stroke:#181818;stroke-width:0.5;" width="128.7119" x="254.64" y="657.8169"/><text fill="#000000" font-family="sans-serif" font-size="14" lengthAdjust="spacing" textLength="80.7461" x="278.6229" y="680.812">Sensor LDR</text><text fill="#000000" font-family="sans-serif" font-size="14" lengthAdjust="spacing" textLength="108.7119" x="264.64" y="697.1089">(Luminosidade)</text></g><!--entity mux--><g class="entity" data-entity="mux" data-source-line="16" data-uid="ent0007" id="entity_mux"><rect fill="#F1F1F1" height="52.5938" rx="2.5" ry="2.5" style="stroke:#181818;stroke-width:0.5;" width="115.6826" x="418.16" y="657.8169"/><text fill="#000000" font-family="sans-serif" font-size="14" lengthAdjust="spacing" textLength="95.6826" x="428.16" y="680.812">Multiplexador</text><text fill="#000000" font-family="sans-serif" font-size="14" lengthAdjust="spacing" textLength="94.3018" x="428.8504" y="697.1089">CD74HC4067</text></g><!--entity soloSensors--><g class="entity" data-entity="soloSensors" data-source-line="17" data-uid="ent0008" id="entity_soloSensors"><rect fill="#F1F1F1" height="52.5938" rx="2.5" ry="2.5" style="stroke:#181818;stroke-width:0.5;" width="213.3887" x="369.31" y="799.2669"/><text fill="#000000" font-family="sans-serif" font-size="14" lengthAdjust="spacing" textLength="193.3887" x="379.31" y="822.262">Sensor de Umidade do Solo</text><text fill="#000000" font-family="sans-serif" font-size="14" lengthAdjust="spacing" textLength="124.7012" x="413.6538" y="838.5589">(Canais 3, 10, 14)</text></g><!--entity rele--><g class="entity" data-entity="rele" data-source-line="18" data-uid="ent0009" id="entity_rele"><rect fill="#F1F1F1" height="52.5938" rx="2.5" ry="2.5" style="stroke:#181818;stroke-width:0.5;" width="196.3809" x="568.81" y="657.8169"/><text fill="#000000" font-family="sans-serif" font-size="14" lengthAdjust="spacing" textLength="176.3809" x="578.81" y="680.812">Rel&#233; + V&#225;lvula Solenoide</text><text fill="#000000" font-family="sans-serif" font-size="14" lengthAdjust="spacing" textLength="158.6553" x="587.6728" y="697.1089">(Controle da Irriga&#231;&#227;o)</text></g><!--entity lcd--><g class="entity" data-entity="lcd" data-source-line="19" data-uid="ent0010" id="entity_lcd"><rect fill="#F1F1F1" height="52.5938" rx="2.5" ry="2.5" style="stroke:#181818;stroke-width:0.5;" width="158.667" x="800.67" y="657.8169"/><text fill="#000000" font-family="sans-serif" font-size="14" lengthAdjust="spacing" textLength="84.4102" x="837.7984" y="680.812">Display LCD</text><text fill="#000000" font-family="sans-serif" font-size="14" lengthAdjust="spacing" textLength="138.667" x="810.67" y="697.1089">(Visualiza&#231;&#227;o Local)</text></g><!--entity iotcloud--><g class="entity" data-entity="iotcloud" data-source-line="20" data-uid="ent0011" id="entity_iotcloud"><rect fill="#F1F1F1" height="52.5938" rx="2.5" ry="2.5" style="stroke:#181818;stroke-width:0.5;" width="202.1436" x="1116.93" y="799.2669"/><text fill="#000000" font-family="sans-serif" font-size="14" lengthAdjust="spacing" textLength="124.5576" x="1155.723" y="822.262">Arduino IoT Cloud</text><text fill="#000000" font-family="sans-serif" font-size="14" lengthAdjust="spacing" textLength="182.1436" x="1126.93" y="838.5589">(Monitoramento/Controle)</text></g><!--entity sheet--><g class="entity" data-entity="sheet" data-source-line="21" data-uid="ent0012" id="entity_sheet"><rect fill="#F1F1F1" height="52.5938" rx="2.5" ry="2.5" style="stroke:#181818;stroke-width:0.5;" width="132.5127" x="994.74" y="657.8169"/><text fill="#000000" font-family="sans-serif" font-size="14" lengthAdjust="spacing" textLength="104.624" x="1008.6843" y="680.812">Planilha Online</text><text fill="#000000" font-family="sans-serif" font-size="14" lengthAdjust="spacing" textLength="112.5127" x="1004.74" y="697.1089">(Google Sheets)</text></g><!--entity wifi--><g class="entity" data-entity="wifi" data-source-line="22" data-uid="ent0013" id="entity_wifi"><rect fill="#F1F1F1" height="52.5938" rx="2.5" ry="2.5" style="stroke:#181818;stroke-width:0.5;" width="151.5508" x="1162.22" y="657.8169"/><text fill="#000000" font-family="sans-serif" font-size="14" lengthAdjust="spacing" textLength="90.0361" x="1192.9773" y="680.812">M&#243;dulo Wi-Fi</text><text fill="#000000" font-family="sans-serif" font-size="14" lengthAdjust="spacing" textLength="131.5508" x="1172.22" y="697.1089">(Interno no ESP32)</text></g><!--entity bateria--><g class="entity" data-entity="bateria" data-source-line="23" data-uid="ent0014" id="entity_bateria"><rect fill="#F1F1F1" height="52.5938" rx="2.5" ry="2.5" style="stroke:#181818;stroke-width:0.5;" width="118.3145" x="1117.84" y="305.4769"/><text fill="#000000" font-family="sans-serif" font-size="14" lengthAdjust="spacing" textLength="50.5107" x="1151.7419" y="328.472">Bateria</text><text fill="#000000" font-family="sans-serif" font-size="14" lengthAdjust="spacing" textLength="98.3145" x="1127.84" y="344.7689">(Alimenta&#231;&#227;o)</text></g><!--entity solar--><g class="entity" data-entity="solar" data-source-line="24" data-uid="ent0015" id="entity_solar"><rect fill="#F1F1F1" height="52.5938" rx="2.5" ry="2.5" style="stroke:#181818;stroke-width:0.5;" width="169.4063" x="1092.3" y="78.2969"/><text fill="#000000" font-family="sans-serif" font-size="14" lengthAdjust="spacing" textLength="77.3145" x="1138.3459" y="101.292">Placa Solar</text><text fill="#000000" font-family="sans-serif" font-size="14" lengthAdjust="spacing" textLength="149.4063" x="1102.3" y="117.5889">(Gera&#231;&#227;o de Energia)</text></g><!--entity controlador--><g class="entity" data-entity="controlador" data-source-line="25" data-uid="ent0016" id="entity_controlador"><rect fill="#F1F1F1" height="52.5938" rx="2.5" ry="2.5" style="stroke:#181818;stroke-width:0.5;" width="218.8164" x="1067.59" y="191.8869"/><text fill="#000000" font-family="sans-serif" font-size="14" lengthAdjust="spacing" textLength="150.6777" x="1101.6593" y="214.882">Controlador de Carga</text><text fill="#000000" font-family="sans-serif" font-size="14" lengthAdjust="spacing" textLength="198.8164" x="1077.59" y="231.1789">(Gerenciamento de Energia)</text></g><!--entity usuario--><g class="entity" data-entity="usuario" data-source-line="26" data-uid="ent0017" id="entity_usuario"><ellipse cx="1413.0021" cy="654.4669" fill="#F1F1F1" rx="8" ry="8" style="stroke:#181818;stroke-width:0.5;"/><path d="M1413.0021,662.4669 L1413.0021,689.4669 M1400.0021,670.4669 L1426.0021,670.4669 M1413.0021,689.4669 L1400.0021,704.4669 M1413.0021,689.4669 L1426.0021,704.4669" fill="none" style="stroke:#181818;stroke-width:0.5;"/><text fill="#000000" font-family="sans-serif" font-size="14" lengthAdjust="spacing" textLength="53.2041" x="1386.4" y="718.962">Usu&#225;rio</text></g><!--link usuario to iotcloud--><g class="link" data-entity-1="usuario" data-entity-2="iotcloud" data-source-line="29" data-uid="lnk18" id="link_usuario_iotcloud"><path d="M1386.29,704.2069 C1351.98,728.7569 1297.1506,767.9569 1258.8606,795.3369" fill="none" id="usuario-to-iotcloud" style="stroke:#181818;stroke-width:1;"/><polygon fill="#181818" points="1253.98,798.8269,1263.6275,796.8457,1258.0472,795.9186,1258.9742,790.3382,1253.98,798.8269" style="stroke:#181818;stroke-width:1;"/><text fill="#000000" font-family="sans-serif" font-size="13" lengthAdjust="spacing" textLength="179.8101" x="1316" y="765.3338">Consulta e envia comandos</text></g><!--link iotcloud to esp32--><g class="link" data-entity-1="iotcloud" data-entity-2="esp32" data-source-line="30" data-uid="lnk19" id="link_iotcloud_esp32"><path d="M1241.74,798.8169 C1255.36,784.5469 1273.07,766.8069 1290,752.2669 C1307.13,737.5569 1320.78,742.3969 1331,722.2669 C1346.34,692.0269 1341.63,678.1669 1331,645.9669 C1304.11,564.5369 1235.9828,493.0959 1200.9028,459.9759" fill="none" id="iotcloud-to-esp32" style="stroke:#181818;stroke-width:1;"/><polygon fill="#181818" points="1196.54,455.8569,1200.3381,464.9439,1200.1756,459.2894,1205.8302,459.1269,1196.54,455.8569" style="stroke:#181818;stroke-width:1;"/><text fill="#000000" font-family="sans-serif" font-size="13" lengthAdjust="spacing" textLength="126.0073" x="1318" y="612.0338">Comandos via rede</text></g><!--link esp32 to firmware--><g class="link" data-entity-1="esp32" data-entity-2="firmware" data-source-line="31" data-uid="lnk20" id="link_esp32_firmware"><path d="M1109.82,455.7769 C1041.53,473.6169 941.4554,499.7612 868.3754,518.8412" fill="none" id="esp32-to-firmware" style="stroke:#181818;stroke-width:1;"/><polygon fill="#181818" points="862.57,520.3569,872.2886,521.9536,867.4078,519.0938,870.2676,514.2131,862.57,520.3569" style="stroke:#181818;stroke-width:1;"/></g><!--link firmware to dht11--><g class="link" data-entity-1="firmware" data-entity-2="dht11" data-source-line="33" data-uid="lnk21" id="link_firmware_dht11"><path d="M699.66,555.6969 C592.7,572.2569 399.31,604.7669 237,645.9669 C223.88,649.2969 215.8049,651.523 202.4749,655.623" fill="none" id="firmware-to-dht11" style="stroke:#181818;stroke-width:1;"/><polygon fill="#181818" points="196.74,657.3869,206.5182,658.5642,201.5191,655.9169,204.1663,650.9178,196.74,657.3869" style="stroke:#181818;stroke-width:1;"/></g><!--link firmware to ldr--><g class="link" data-entity-1="firmware" data-entity-2="ldr" data-source-line="34" data-uid="lnk22" id="link_firmware_ldr"><path d="M699.4,561.5769 C621.64,579.5969 501.81,609.8269 401,645.9669 C391.58,649.3369 387.25,650.949 377.8,655.069" fill="none" id="firmware-to-ldr" style="stroke:#181818;stroke-width:1;"/><polygon fill="#181818" points="372.3,657.4669,382.1486,657.5367,376.8833,655.4686,378.9514,650.2034,372.3,657.4669" style="stroke:#181818;stroke-width:1;"/></g><!--link firmware to mux--><g class="link" data-entity-1="firmware" data-entity-2="mux" data-source-line="35" data-uid="lnk23" id="link_firmware_mux"><path d="M721.61,569.2769 C674.98,589.5769 608.55,618.9269 551,645.9669 C543.24,649.6069 540.4567,650.9042 532.4867,654.8142" fill="none" id="firmware-to-mux" style="stroke:#181818;stroke-width:1;"/><polygon fill="#181818" points="527.1,657.4569,536.9418,657.084,531.5889,655.2547,533.4183,649.9018,527.1,657.4569" style="stroke:#181818;stroke-width:1;"/></g><!--link mux to soloSensors--><g class="link" data-entity-1="mux" data-entity-2="soloSensors" data-source-line="36" data-uid="lnk24" id="link_mux_soloSensors"><path d="M476,710.6869 C476,735.8469 476,768.0369 476,793.1469" fill="none" id="mux-to-soloSensors" style="stroke:#181818;stroke-width:1;"/><polygon fill="#181818" points="476,799.1469,480,790.1469,476,794.1469,472,790.1469,476,799.1469" style="stroke:#181818;stroke-width:1;"/></g><!--link firmware to rele--><g class="link" data-entity-1="firmware" data-entity-2="rele" data-source-line="38" data-uid="lnk25" id="link_firmware_rele"><path d="M707.83,569.4069 C695.05,577.0469 683.23,586.7369 675,598.9669 C663.53,616.0069 661.8211,633.5895 662.9811,651.4495" fill="none" id="firmware-to-rele" style="stroke:#181818;stroke-width:1;"/><polygon fill="#181818" points="663.37,657.4369,666.7783,648.1965,663.0459,652.4474,658.7951,648.7151,663.37,657.4369" style="stroke:#181818;stroke-width:1;"/><text fill="#000000" font-family="sans-serif" font-size="13" lengthAdjust="spacing" textLength="139.2485" x="676" y="612.0338">Liga/desliga irriga&#231;&#227;o</text></g><!--link firmware to lcd--><g class="link" data-entity-1="firmware" data-entity-2="lcd" data-source-line="39" data-uid="lnk26" id="link_firmware_lcd"><path d="M801.53,569.2469 C808.78,578.4969 816.89,589.0969 824,598.9669 C837.84,618.1869 849.3976,635.5013 860.3076,652.3413" fill="none" id="firmware-to-lcd" style="stroke:#181818;stroke-width:1;"/><polygon fill="#181818" points="863.57,657.3769,862.0335,647.6486,860.8514,653.1806,855.3194,651.9984,863.57,657.3769" style="stroke:#181818;stroke-width:1;"/><text fill="#000000" font-family="sans-serif" font-size="13" lengthAdjust="spacing" textLength="88.4292" x="836" y="612.0338">Mostra status</text></g><!--link firmware to wifi--><g class="link" data-entity-1="firmware" data-entity-2="wifi" data-source-line="40" data-uid="lnk27" id="link_firmware_wifi"><path d="M862.61,553.5469 C920.64,561.9969 999.89,576.4169 1067,598.9669 C1112.01,614.0869 1155.0428,635.7871 1188.7828,654.4971" fill="none" id="firmware-to-wifi" style="stroke:#181818;stroke-width:1;"/><polygon fill="#181818" points="1194.03,657.4069,1188.099,649.5441,1189.6573,654.9821,1184.2193,656.5404,1194.03,657.4069" style="stroke:#181818;stroke-width:1;"/></g><!--link wifi to iotcloud--><g class="link" data-entity-1="wifi" data-entity-2="iotcloud" data-source-line="41" data-uid="lnk28" id="link_wifi_iotcloud"><path d="M1227.47,710.7869 C1222.97,723.1069 1218.24,738.2069 1216,752.2669 C1214.81,759.7269 1215.86,761.7069 1216,769.2669 C1216.18,778.9669 1216.2892,783.6213 1216.6492,792.9713" fill="none" id="wifi-to-iotcloud" style="stroke:#181818;stroke-width:1;"/><polygon fill="#181818" points="1216.88,798.9669,1220.5308,789.8196,1216.6876,793.9706,1212.5367,790.1274,1216.88,798.9669" style="stroke:#181818;stroke-width:1;"/></g><!--link firmware to sheet--><g class="link" data-entity-1="firmware" data-entity-2="sheet" data-source-line="42" data-uid="lnk29" id="link_firmware_sheet"><path d="M862.54,569.3869 C885.77,577.7669 910.79,587.8169 933,598.9669 C966.39,615.7269 996.8156,635.9382 1021.8656,653.9182" fill="none" id="firmware-to-sheet" style="stroke:#181818;stroke-width:1;"/><polygon fill="#181818" points="1026.74,657.4169,1021.7609,648.9193,1022.678,654.5013,1017.096,655.4185,1026.74,657.4169" style="stroke:#181818;stroke-width:1;"/><text fill="#000000" font-family="sans-serif" font-size="13" lengthAdjust="spacing" textLength="95.5386" x="963" y="612.0338">Atualiza dados</text></g><!--link bateria to esp32--><g class="link" data-entity-1="bateria" data-entity-2="esp32" data-source-line="44" data-uid="lnk30" id="link_bateria_esp32"><path d="M1177,358.3469 C1177,377.1369 1177,396.1669 1177,412.7169" fill="none" id="bateria-to-esp32" style="stroke:#181818;stroke-width:1;"/><polygon fill="#181818" points="1177,418.7169,1181,409.7169,1177,413.7169,1173,409.7169,1177,418.7169" style="stroke:#181818;stroke-width:1;"/></g><!--link solar to controlador--><g class="link" data-entity-1="solar" data-entity-2="controlador" data-source-line="45" data-uid="lnk31" id="link_solar_controlador"><path d="M1177,131.1969 C1177,149.3369 1177,167.5869 1177,185.7069" fill="none" id="solar-to-controlador" style="stroke:#181818;stroke-width:1;"/><polygon fill="#181818" points="1177,191.7069,1181,182.7069,1177,186.7069,1173,182.7069,1177,191.7069" style="stroke:#181818;stroke-width:1;"/></g><!--link controlador to bateria--><g class="link" data-entity-1="controlador" data-entity-2="bateria" data-source-line="46" data-uid="lnk32" id="link_controlador_bateria"><path d="M1177,244.7869 C1177,262.9369 1177,281.1769 1177,299.2969" fill="none" id="controlador-to-bateria" style="stroke:#181818;stroke-width:1;"/><polygon fill="#181818" points="1177,305.2969,1181,296.2969,1177,300.2969,1173,296.2969,1177,305.2969" style="stroke:#181818;stroke-width:1;"/></g><!--SRC=[TLJBJXin5DtFLrnb0wXD8GKLgOjAQG85DQY81BeeNToEdU4AZntP7Xwj-Z6eYwgBhb2_O7wir_Ra3L4UC_OvntVEFJSRCAh_-aeP40RwX8N54ZDFNidPBGW9FLDEZ9RQImTjEBQM2gn_rxyCT2jlIlJq7GN2vi7mTFVrLfPjG5-EIHDZ_Z655QJpf4pchabFa6KXdqeE_JsVPcNkKHTABa3S5GfpIxg0CIgtk2Fa62lbH_BETnKLkcGTo4DzDiicc5zZ8Q4r9ETbUe3dIcx1Zmpu5R- -nFAvz9kFvE6YynNGSU6JtTTPt9-L3Ar3ikKjMWcHSgat1_LZGNbZblRMABdL2lnnWrnL64hjZ8N-qQZJOVv8bfDN8E6y984imltesgGWhdodymnzq3yBXrSbQUCYCt6KiAkC4pQC9ahUiQdsKlVw-tj7lRsTD_kHK5PtpnmXbeeQ6cNun1vg90UxBw6pmv-zTAhZpSHogs9dKjL_u0LSr0_gfb8OXAGs96HGQnm3pj12fvAebMhDl3wvYS9x6FJwJByWLw7YVgR-3aoEgh4X5wlKhXKLcmN7PWGzPIh10YT6apSSB4QOxUN-aV5vWAtgd2hKfAuGFcb5EZp51sCulp2yajAxnf1mlTQ8-b64aVjCxKDYtd68BLV4xpG_aNfBOrfblaT64ZA7Kn-ANVJfMzfyeiuykeqsr2XjunAtyq1BMn3EUeThcMci28c9oKPRO5AHEgVarvfIFYT5FSpPMsYTkwf-i6GYfkAEyNMQgmqOf9Q7_mgMvB4oRbw6J65gAD1klvir1Tw6QNESREJPaVg6CF1G2vD8Cs1WnL6Eb8I00BTIf7YbtO2RZMnSdzx5hVaiBYrFnsrfSJfI_1ll5wTZ7HrYphK59xQ5TFolXa3pMNZYp3my_ebntY8uZxvoww1PYiB5adNhs1XMbkpwD4qyZS7626p2DRSnhiRCnBNLdY_Sn_rfEBEV_m40]--></g></svg>