<svg xmlns="http://www.w3.org/2000/svg" xmlns:xlink="http://www.w3.org/1999/xlink" contentStyleType="text/css" data-diagram-type="DESCRIPTION" height="753px" preserveAspectRatio="none" style="width:1477px;height:753px;background:#FFFFFF;" version="1.1" viewBox="0 0 1477 753" width="1477px" zoomAndPan="magnify"><defs/><g><!--cluster Fontes de Energia--><g class="cluster" data-entity="Fontes de Energia" data-source-line="7" data-uid="ent0002" id="cluster_Fontes de Energia"><path d="M635.5,6 L779.6309,6 A3.75,3.75 0 0 1 782.1309,8.5 L789.1309,28.2969 L852.5,28.2969 A2.5,2.5 0 0 1 855,30.7969 L855,313.39 A2.5,2.5 0 0 1 852.5,315.89 L635.5,315.89 A2.5,2.5 0 0 1 633,313.39 L633,8.5 A2.5,2.5 0 0 1 635.5,6" fill="none" style="stroke:#000000;stroke-width:1.5;"/><line style="stroke:#000000;stroke-width:1.5;" x1="633" x2="789.1309" y1="28.2969" y2="28.2969"/><text fill="#000000" font-family="sans-serif" font-size="14" font-weight="bold" lengthAdjust="spacing" textLength="143.1309" x="637" y="20.9951">Fontes de Energia</text></g><!--cluster Unidade de Controle--><g class="cluster" data-entity="Unidade de Controle" data-source-line="13" data-uid="ent0006" id="cluster_Unidade de Controle"><path d="M651.5,339.89 L814.252,339.89 A3.75,3.75 0 0 1 816.752,342.39 L823.752,362.1869 L836.5,362.1869 A2.5,2.5 0 0 1 839,364.6869 L839,434.69 A2.5,2.5 0 0 1 836.5,437.19 L651.5,437.19 A2.5,2.5 0 0 1 649,434.69 L649,342.39 A2.5,2.5 0 0 1 651.5,339.89" fill="none" style="stroke:#000000;stroke-width:1.5;"/><line style="stroke:#000000;stroke-width:1.5;" x1="649" x2="823.752" y1="362.1869" y2="362.1869"/><text fill="#000000" font-family="sans-serif" font-size="14" font-weight="bold" lengthAdjust="spacing" textLength="161.752" x="653" y="354.8851">Unidade de Controle</text></g><!--cluster Perif?ricos Locais--><g class="cluster" data-entity="Perif&#233;ricos Locais" data-source-line="17" data-uid="ent0008" id="cluster_Perif&#233;ricos Locais"><path d="M8.5,504.19 L148.7891,504.19 A3.75,3.75 0 0 1 151.2891,506.69 L158.2891,526.4869 L842.5,526.4869 A2.5,2.5 0 0 1 845,528.9869 L845,598.98 A2.5,2.5 0 0 1 842.5,601.48 L8.5,601.48 A2.5,2.5 0 0 1 6,598.98 L6,506.69 A2.5,2.5 0 0 1 8.5,504.19" fill="none" style="stroke:#000000;stroke-width:1.5;"/><line style="stroke:#000000;stroke-width:1.5;" x1="6" x2="158.2891" y1="526.4869" y2="526.4869"/><text fill="#000000" font-family="sans-serif" font-size="14" font-weight="bold" lengthAdjust="spacing" textLength="139.2891" x="10" y="519.1851">Perif&#233;ricos Locais</text></g><!--cluster Sensores de Solo--><g class="cluster" data-entity="Sensores de Solo" data-source-line="24" data-uid="ent0013" id="cluster_Sensores de Solo"><path d="M560.5,649.48 L697.1113,649.48 A3.75,3.75 0 0 1 699.6113,651.98 L706.6113,671.7769 L1126.5,671.7769 A2.5,2.5 0 0 1 1129,674.2769 L1129,744.28 A2.5,2.5 0 0 1 1126.5,746.78 L560.5,746.78 A2.5,2.5 0 0 1 558,744.28 L558,651.98 A2.5,2.5 0 0 1 560.5,649.48" fill="none" style="stroke:#000000;stroke-width:1.5;"/><line style="stroke:#000000;stroke-width:1.5;" x1="558" x2="706.6113" y1="671.7769" y2="671.7769"/><text fill="#000000" font-family="sans-serif" font-size="14" font-weight="bold" lengthAdjust="spacing" textLength="135.6113" x="562" y="664.4751">Sensores de Solo</text></g><!--cluster Atuador--><g class="cluster" data-entity="Atuador" data-source-line="30" data-uid="ent0017" id="cluster_Atuador"><path d="M340.5,649.48 L404.9854,649.48 A3.75,3.75 0 0 1 407.4854,651.98 L414.4854,671.7769 L531.5,671.7769 A2.5,2.5 0 0 1 534,674.2769 L534,744.28 A2.5,2.5 0 0 1 531.5,746.78 L340.5,746.78 A2.5,2.5 0 0 1 338,744.28 L338,651.98 A2.5,2.5 0 0 1 340.5,649.48" fill="none" style="stroke:#000000;stroke-width:1.5;"/><line style="stroke:#000000;stroke-width:1.5;" x1="338" x2="414.4854" y1="671.7769" y2="671.7769"/><text fill="#000000" font-family="sans-serif" font-size="14" font-weight="bold" lengthAdjust="spacing" textLength="63.4854" x="342" y="664.4751">Atuador</text></g><!--cluster Comunica??o Externa--><g class="cluster" data-entity="Comunica&#231;&#227;o Externa" data-source-line="34" data-uid="ent0019" id="cluster_Comunica&#231;&#227;o Externa"><path d="M871.5,461.19 L1042.7969,461.19 A3.75,3.75 0 0 1 1045.2969,463.69 L1052.2969,483.4869 L1467.5,483.4869 A2.5,2.5 0 0 1 1470,485.9869 L1470,622.98 A2.5,2.5 0 0 1 1467.5,625.48 L871.5,625.48 A2.5,2.5 0 0 1 869,622.98 L869,463.69 A2.5,2.5 0 0 1 871.5,461.19" fill="none" style="stroke:#000000;stroke-width:1.5;"/><line style="stroke:#000000;stroke-width:1.5;" x1="869" x2="1052.2969" y1="483.4869" y2="483.4869"/><text fill="#000000" font-family="sans-serif" font-size="14" font-weight="bold" lengthAdjust="spacing" textLength="170.2969" x="873" y="476.1851">Comunica&#231;&#227;o Externa</text></g><!--cluster Internet--><g class="cluster" data-entity="Internet" data-source-line="35" data-uid="ent0020" id="cluster_Internet"><path d="M905.1539,514.2647 C913.4453,504.4032 920.7369,502.9924 929.2592,513.998 C935.8696,503.4455 948.0583,500.8594 955.1113,513.5047 C960.3834,501.5457 970.7581,500.2377 977.9892,511.5814 C986.7388,498.6099 997.5023,499.6973 1004.1967,513.5866 C1009.8971,501.491 1020.8556,500.6519 1029.1315,510.6844 C1038.8516,499.6995 1051.1029,497.3764 1058.365,513.3499 C1064.974,503.0593 1073.6123,500.9749 1081.5247,511.929 C1089.1719,499.161 1100.8079,496.2435 1109.6193,510.7289 C1117.7801,500.7142 1125.1187,499.2207 1133.4467,510.5422 C1142.1021,500.5645 1150.64,500.5656 1158.1654,511.8555 C1164.7234,500.7943 1176.2751,500.486 1181.8685,512.8323 C1190.3754,499.5695 1201.4531,499.922 1209.4345,513.3746 C1217.1722,500.2472 1228.2054,503.9338 1234.5081,514.8698 C1242.391,503.4264 1250.3666,501.8569 1259.383,513.6567 C1281.7111,522.9706 1281.5656,536.6139 1267.251,553.2157 C1283.7033,570.929 1280.1627,585.9765 1259.3964,597.0154 C1251.9077,608.6538 1242.2566,608.624 1234.4274,597.3871 C1227.4248,609.6185 1214.6959,611.1585 1208.4086,596.6899 C1202.2518,609.5106 1190.3854,610.5497 1181.8347,599.3369 C1172.7896,610.6563 1165.497,609.0276 1158.388,597.362 C1152.1452,609.0641 1140.7705,611.1237 1133.4903,598.4202 C1126.2487,610.0191 1119.002,612.0357 1109.1771,601.2227 C1100.9314,614.291 1090.2452,613.6487 1083.333,599.9359 C1074.3067,612.4255 1062.4993,612.1194 1055.6092,597.7323 C1048.4469,609.1937 1036.9301,607.5969 1030.7808,596.6118 C1024.6791,609.7202 1013.22,609.0568 1005.7072,598.0808 C995.605,609.5123 988.0064,609.2754 980.63,595.3817 C972.6735,607.1712 964.7628,605.5191 956.6061,595.6033 C948.9015,607.896 937.1182,609.8485 928.185,596.9918 C919.2149,609.87 911.834,609.7735 903.8059,596.1259 C881.8702,588.8283 878.8581,568.7049 894.7641,553.3992 C881.2138,536.7603 880.6514,520.8009 905.1539,514.2647" fill="none" style="stroke:#181818;stroke-width:1;"/><text fill="#000000" font-family="sans-serif" font-size="14" font-weight="bold" lengthAdjust="spacing" textLength="64.4219" x="1047.2891" y="530.1851">Internet</text></g><!--entity SolarPanel--><g class="entity" data-entity="SolarPanel" data-source-line="8" data-uid="ent0003" id="entity_SolarPanel"><polygon fill="#F1F1F1" points="682.79,51,692.79,41,805.2041,41,805.2041,77.2969,795.2041,87.2969,682.79,87.2969,682.79,51" style="stroke:#181818;stroke-width:0.5;"/><line style="stroke:#181818;stroke-width:0.5;" x1="795.2041" x2="805.2041" y1="51" y2="41"/><line style="stroke:#181818;stroke-width:0.5;" x1="682.79" x2="795.2041" y1="51" y2="51"/><line style="stroke:#181818;stroke-width:0.5;" x1="795.2041" x2="795.2041" y1="51" y2="87.2969"/><text fill="#000000" font-family="sans-serif" font-size="14" lengthAdjust="spacing" textLength="82.4141" x="697.79" y="73.9951">Painel Solar</text></g><!--entity ChargeController--><g class="entity" data-entity="ChargeController" data-source-line="9" data-uid="ent0004" id="entity_ChargeController"><polygon fill="#F1F1F1" points="648.66,157.3,658.66,147.3,839.3377,147.3,839.3377,183.5969,829.3377,193.5969,648.66,193.5969,648.66,157.3" style="stroke:#181818;stroke-width:0.5;"/><line style="stroke:#181818;stroke-width:0.5;" x1="829.3377" x2="839.3377" y1="157.3" y2="147.3"/><line style="stroke:#181818;stroke-width:0.5;" x1="648.66" x2="829.3377" y1="157.3" y2="157.3"/><line style="stroke:#181818;stroke-width:0.5;" x1="829.3377" x2="829.3377" y1="157.3" y2="193.5969"/><text fill="#000000" font-family="sans-serif" font-size="14" lengthAdjust="spacing" textLength="150.6777" x="663.66" y="180.2951">Controlador de Carga</text></g><!--entity Battery--><g class="entity" data-entity="Battery" data-source-line="10" data-uid="ent0005" id="entity_Battery"><polygon fill="#F1F1F1" points="682.82,263.59,692.82,253.59,805.1725,253.59,805.1725,289.8869,795.1725,299.8869,682.82,299.8869,682.82,263.59" style="stroke:#181818;stroke-width:0.5;"/><line style="stroke:#181818;stroke-width:0.5;" x1="795.1725" x2="805.1725" y1="263.59" y2="253.59"/><line style="stroke:#181818;stroke-width:0.5;" x1="682.82" x2="795.1725" y1="263.59" y2="263.59"/><line style="stroke:#181818;stroke-width:0.5;" x1="795.1725" x2="795.1725" y1="263.59" y2="299.8869"/><text fill="#000000" font-family="sans-serif" font-size="14" lengthAdjust="spacing" textLength="82.3525" x="697.82" y="286.5851">Bateria 12V</text></g><!--entity ESP32--><g class="entity" data-entity="ESP32" data-source-line="14" data-uid="ent0007" id="entity_ESP32"><polygon fill="#F1F1F1" points="665.19,384.89,675.19,374.89,822.8023,374.89,822.8023,411.1869,812.8023,421.1869,665.19,421.1869,665.19,384.89" style="stroke:#181818;stroke-width:0.5;"/><line style="stroke:#181818;stroke-width:0.5;" x1="812.8023" x2="822.8023" y1="384.89" y2="374.89"/><line style="stroke:#181818;stroke-width:0.5;" x1="665.19" x2="812.8023" y1="384.89" y2="384.89"/><line style="stroke:#181818;stroke-width:0.5;" x1="812.8023" x2="812.8023" y1="384.89" y2="421.1869"/><text fill="#000000" font-family="sans-serif" font-size="14" lengthAdjust="spacing" textLength="117.6123" x="680.19" y="407.8851">ESP32 DevKit V1</text></g><!--entity Sensores--><g class="entity" data-entity="Sensores" data-source-line="18" data-uid="ent0009" id="entity_Sensores"><polygon fill="#F1F1F1" points="21.91,549.19,31.91,539.19,298.0916,539.19,298.0916,575.4869,288.0916,585.4869,21.91,585.4869,21.91,549.19" style="stroke:#181818;stroke-width:0.5;"/><line style="stroke:#181818;stroke-width:0.5;" x1="288.0916" x2="298.0916" y1="549.19" y2="539.19"/><line style="stroke:#181818;stroke-width:0.5;" x1="21.91" x2="288.0916" y1="549.19" y2="549.19"/><line style="stroke:#181818;stroke-width:0.5;" x1="288.0916" x2="288.0916" y1="549.19" y2="585.4869"/><text fill="#000000" font-family="sans-serif" font-size="14" lengthAdjust="spacing" textLength="236.1816" x="36.91" y="572.1851">Sensores Ambiente (DHT11, LDR)</text></g><!--entity LCD--><g class="entity" data-entity="LCD" data-source-line="19" data-uid="ent0010" id="entity_LCD"><polygon fill="#F1F1F1" points="332.7,549.19,342.7,539.19,495.2957,539.19,495.2957,575.4869,485.2957,585.4869,332.7,585.4869,332.7,549.19" style="stroke:#181818;stroke-width:0.5;"/><line style="stroke:#181818;stroke-width:0.5;" x1="485.2957" x2="495.2957" y1="549.19" y2="539.19"/><line style="stroke:#181818;stroke-width:0.5;" x1="332.7" x2="485.2957" y1="549.19" y2="549.19"/><line style="stroke:#181818;stroke-width:0.5;" x1="485.2957" x2="485.2957" y1="549.19" y2="585.4869"/><text fill="#000000" font-family="sans-serif" font-size="14" lengthAdjust="spacing" textLength="122.5957" x="347.7" y="572.1851">Display LCD (I2C)</text></g><!--entity Rele--><g class="entity" data-entity="Rele" data-source-line="20" data-uid="ent0011" id="entity_Rele"><polygon fill="#F1F1F1" points="530.11,549.19,540.11,539.19,623.8883,539.19,623.8883,575.4869,613.8883,585.4869,530.11,585.4869,530.11,549.19" style="stroke:#181818;stroke-width:0.5;"/><line style="stroke:#181818;stroke-width:0.5;" x1="613.8883" x2="623.8883" y1="549.19" y2="539.19"/><line style="stroke:#181818;stroke-width:0.5;" x1="530.11" x2="613.8883" y1="549.19" y2="549.19"/><line style="stroke:#181818;stroke-width:0.5;" x1="613.8883" x2="613.8883" y1="549.19" y2="585.4869"/><text fill="#000000" font-family="sans-serif" font-size="14" lengthAdjust="spacing" textLength="53.7783" x="545.11" y="572.1851">Rel&#233; 5V</text></g><!--entity MUX--><g class="entity" data-entity="MUX" data-source-line="21" data-uid="ent0012" id="entity_MUX"><polygon fill="#F1F1F1" points="658.67,549.19,668.67,539.19,829.3389,539.19,829.3389,575.4869,819.3389,585.4869,658.67,585.4869,658.67,549.19" style="stroke:#181818;stroke-width:0.5;"/><line style="stroke:#181818;stroke-width:0.5;" x1="819.3389" x2="829.3389" y1="549.19" y2="539.19"/><line style="stroke:#181818;stroke-width:0.5;" x1="658.67" x2="819.3389" y1="549.19" y2="549.19"/><line style="stroke:#181818;stroke-width:0.5;" x1="819.3389" x2="819.3389" y1="549.19" y2="585.4869"/><text fill="#000000" font-family="sans-serif" font-size="14" lengthAdjust="spacing" textLength="130.6689" x="673.67" y="572.1851">MUX CD74HC4067</text></g><!--entity SoilSensor3--><g class="entity" data-entity="SoilSensor3" data-source-line="25" data-uid="ent0014" id="entity_SoilSensor3"><polygon fill="#F1F1F1" points="573.77,694.48,583.77,684.48,724.2251,684.48,724.2251,720.7769,714.2251,730.7769,573.77,730.7769,573.77,694.48" style="stroke:#181818;stroke-width:0.5;"/><line style="stroke:#181818;stroke-width:0.5;" x1="714.2251" x2="724.2251" y1="694.48" y2="684.48"/><line style="stroke:#181818;stroke-width:0.5;" x1="573.77" x2="714.2251" y1="694.48" y2="694.48"/><line style="stroke:#181818;stroke-width:0.5;" x1="714.2251" x2="714.2251" y1="694.48" y2="730.7769"/><text fill="#000000" font-family="sans-serif" font-size="14" lengthAdjust="spacing" textLength="110.4551" x="588.77" y="717.4751">Umidade Solo 3</text></g><!--entity SoilSensor10--><g class="entity" data-entity="SoilSensor10" data-source-line="26" data-uid="ent0015" id="entity_SoilSensor10"><polygon fill="#F1F1F1" points="759.32,694.48,769.32,684.48,918.6823,684.48,918.6823,720.7769,908.6823,730.7769,759.32,730.7769,759.32,694.48" style="stroke:#181818;stroke-width:0.5;"/><line style="stroke:#181818;stroke-width:0.5;" x1="908.6823" x2="918.6823" y1="694.48" y2="684.48"/><line style="stroke:#181818;stroke-width:0.5;" x1="759.32" x2="908.6823" y1="694.48" y2="694.48"/><line style="stroke:#181818;stroke-width:0.5;" x1="908.6823" x2="908.6823" y1="694.48" y2="730.7769"/><text fill="#000000" font-family="sans-serif" font-size="14" lengthAdjust="spacing" textLength="119.3623" x="774.32" y="717.4751">Umidade Solo 10</text></g><!--entity SoilSensor14--><g class="entity" data-entity="SoilSensor14" data-source-line="27" data-uid="ent0016" id="entity_SoilSensor14"><polygon fill="#F1F1F1" points="953.32,694.48,963.32,684.48,1112.6823,684.48,1112.6823,720.7769,1102.6823,730.7769,953.32,730.7769,953.32,694.48" style="stroke:#181818;stroke-width:0.5;"/><line style="stroke:#181818;stroke-width:0.5;" x1="1102.6823" x2="1112.6823" y1="694.48" y2="684.48"/><line style="stroke:#181818;stroke-width:0.5;" x1="953.32" x2="1102.6823" y1="694.48" y2="694.48"/><line style="stroke:#181818;stroke-width:0.5;" x1="1102.6823" x2="1102.6823" y1="694.48" y2="730.7769"/><text fill="#000000" font-family="sans-serif" font-size="14" lengthAdjust="spacing" textLength="119.3623" x="968.32" y="717.4751">Umidade Solo 14</text></g><!--entity Valvula--><g class="entity" data-entity="Valvula" data-source-line="31" data-uid="ent0018" id="entity_Valvula"><polygon fill="#F1F1F1" points="353.55,694.48,363.55,684.48,518.4563,684.48,518.4563,720.7769,508.4563,730.7769,353.55,730.7769,353.55,694.48" style="stroke:#181818;stroke-width:0.5;"/><line style="stroke:#181818;stroke-width:0.5;" x1="508.4563" x2="518.4563" y1="694.48" y2="684.48"/><line style="stroke:#181818;stroke-width:0.5;" x1="353.55" x2="508.4563" y1="694.48" y2="694.48"/><line style="stroke:#181818;stroke-width:0.5;" x1="508.4563" x2="508.4563" y1="694.48" y2="730.7769"/><text fill="#000000" font-family="sans-serif" font-size="14" lengthAdjust="spacing" textLength="124.9063" x="368.55" y="717.4751">V&#225;lvula Solenoide</text></g><!--entity Smartphone--><g class="entity" data-entity="Smartphone" data-source-line="39" data-uid="ent0023" id="entity_Smartphone"><polygon fill="#F1F1F1" points="1285.56,549.19,1295.56,539.19,1454.4448,539.19,1454.4448,575.4869,1444.4448,585.4869,1285.56,585.4869,1285.56,549.19" style="stroke:#181818;stroke-width:0.5;"/><line style="stroke:#181818;stroke-width:0.5;" x1="1444.4448" x2="1454.4448" y1="549.19" y2="539.19"/><line style="stroke:#181818;stroke-width:0.5;" x1="1285.56" x2="1444.4448" y1="549.19" y2="549.19"/><line style="stroke:#181818;stroke-width:0.5;" x1="1444.4448" x2="1444.4448" y1="549.19" y2="585.4869"/><text fill="#000000" font-family="sans-serif" font-size="14" lengthAdjust="spacing" textLength="128.8848" x="1300.56" y="572.1851">Smartphone (App)</text></g><!--entity Google Sheets--><g class="entity" data-entity="Google Sheets" data-source-line="36" data-uid="ent0021" id="entity_Google Sheets"><polygon fill="#F1F1F1" points="909.21,549.19,919.21,539.19,1050.7989,539.19,1050.7989,575.4869,1040.7989,585.4869,909.21,585.4869,909.21,549.19" style="stroke:#181818;stroke-width:0.5;"/><line style="stroke:#181818;stroke-width:0.5;" x1="1040.7989" x2="1050.7989" y1="549.19" y2="539.19"/><line style="stroke:#181818;stroke-width:0.5;" x1="909.21" x2="1040.7989" y1="549.19" y2="549.19"/><line style="stroke:#181818;stroke-width:0.5;" x1="1040.7989" x2="1040.7989" y1="549.19" y2="585.4869"/><text fill="#000000" font-family="sans-serif" font-size="14" lengthAdjust="spacing" textLength="101.5889" x="924.21" y="572.1851">Google Sheets</text></g><!--entity Arduino IoT Cloud--><g class="entity" data-entity="Arduino IoT Cloud" data-source-line="37" data-uid="ent0022" id="entity_Arduino IoT Cloud"><polygon fill="#F1F1F1" points="1085.72,549.19,1095.72,539.19,1250.2776,539.19,1250.2776,575.4869,1240.2776,585.4869,1085.72,585.4869,1085.72,549.19" style="stroke:#181818;stroke-width:0.5;"/><line style="stroke:#181818;stroke-width:0.5;" x1="1240.2776" x2="1250.2776" y1="549.19" y2="539.19"/><line style="stroke:#181818;stroke-width:0.5;" x1="1085.72" x2="1240.2776" y1="549.19" y2="549.19"/><line style="stroke:#181818;stroke-width:0.5;" x1="1240.2776" x2="1240.2776" y1="549.19" y2="585.4869"/><text fill="#000000" font-family="sans-serif" font-size="14" lengthAdjust="spacing" textLength="124.5576" x="1100.72" y="572.1851">Arduino IoT Cloud</text></g><!--link SolarPanel to ChargeController--><g class="link" data-entity-1="SolarPanel" data-entity-2="ChargeController" data-source-line="43" data-uid="lnk24" id="link_SolarPanel_ChargeController"><path d="M744,87.74 C744,105.35 744,123.32 744,140.92" fill="none" id="SolarPanel-to-ChargeController" style="stroke:#181818;stroke-width:1;"/><polygon fill="#181818" points="744,146.92,748,137.92,744,141.92,740,137.92,744,146.92" style="stroke:#181818;stroke-width:1;"/></g><!--link ChargeController to Battery--><g class="link" data-entity-1="ChargeController" data-entity-2="Battery" data-source-line="44" data-uid="lnk25" id="link_ChargeController_Battery"><path d="M744,194.03 C744,211.65 744,229.62 744,247.22" fill="none" id="ChargeController-to-Battery" style="stroke:#181818;stroke-width:1;"/><polygon fill="#181818" points="744,253.22,748,244.22,744,248.22,740,244.22,744,253.22" style="stroke:#181818;stroke-width:1;"/></g><!--link Battery to ESP32--><g class="link" data-entity-1="Battery" data-entity-2="ESP32" data-source-line="45" data-uid="lnk26" id="link_Battery_ESP32"><path d="M744,300.13 C744,321.61 744,347.27 744,368.72" fill="none" id="Battery-to-ESP32" style="stroke:#181818;stroke-width:1;"/><polygon fill="#181818" points="744,374.72,748,365.72,744,369.72,740,365.72,744,374.72" style="stroke:#181818;stroke-width:1;"/></g><!--link ESP32 to Sensores--><g class="link" data-entity-1="ESP32" data-entity-2="Sensores" data-source-line="47" data-uid="lnk27" id="link_ESP32_Sensores"><path d="M664.94,386.78 C505.39,386.78 160,386.78 160,386.78 C160,386.78 160,485.27 160,533.02" fill="none" id="ESP32-to-Sensores" style="stroke:#181818;stroke-width:1;"/><polygon fill="#181818" points="160,539.02,164,530.02,160,534.02,156,530.02,160,539.02" style="stroke:#181818;stroke-width:1;"/></g><!--link ESP32 to LCD--><g class="link" data-entity-1="ESP32" data-entity-2="LCD" data-source-line="48" data-uid="lnk28" id="link_ESP32_LCD"><path d="M664.96,398.78 C567.33,398.78 414,398.78 414,398.78 C414,398.78 414,487.68 414,532.9" fill="none" id="ESP32-to-LCD" style="stroke:#181818;stroke-width:1;"/><polygon fill="#181818" points="414,538.9,418,529.9,414,533.9,410,529.9,414,538.9" style="stroke:#181818;stroke-width:1;"/></g><!--link ESP32 to Rele--><g class="link" data-entity-1="ESP32" data-entity-2="Rele" data-source-line="49" data-uid="lnk29" id="link_ESP32_Rele"><path d="M664.9,409.78 C621.74,409.78 577,409.78 577,409.78 C577,409.78 577,490.04 577,532.83" fill="none" id="ESP32-to-Rele" style="stroke:#181818;stroke-width:1;"/><polygon fill="#181818" points="577,538.83,581,529.83,577,533.83,573,529.83,577,538.83" style="stroke:#181818;stroke-width:1;"/></g><!--link Rele to Valvula--><g class="link" data-entity-1="Rele" data-entity-2="Valvula" data-source-line="50" data-uid="lnk30" id="link_Rele_Valvula"><path d="M529.84,562.78 C517.15,562.78 506.88,562.78 506.88,562.78 C506.88,562.78 506.88,636.99 506.88,678.04" fill="none" id="Rele-to-Valvula" style="stroke:#181818;stroke-width:1;"/><polygon fill="#181818" points="506.88,684.04,510.88,675.04,506.88,679.04,502.88,675.04,506.88,684.04" style="stroke:#181818;stroke-width:1;"/></g><!--link ESP32 to MUX--><g class="link" data-entity-1="ESP32" data-entity-2="MUX" data-source-line="52" data-uid="lnk31" id="link_ESP32_MUX"><path d="M744,421.58 C744,452.81 744,501.63 744,532.84" fill="none" id="ESP32-to-MUX" style="stroke:#181818;stroke-width:1;"/><polygon fill="#181818" points="744,538.84,748,529.84,744,533.84,740,529.84,744,538.84" style="stroke:#181818;stroke-width:1;"/></g><!--link MUX to SoilSensor3--><g class="link" data-entity-1="MUX" data-entity-2="SoilSensor3" data-source-line="53" data-uid="lnk32" id="link_MUX_SoilSensor3"><path d="M691.45,585.68 C691.45,612.79 691.45,651.26 691.45,678.35" fill="none" id="MUX-to-SoilSensor3" style="stroke:#181818;stroke-width:1;"/><polygon fill="#181818" points="691.45,684.35,695.45,675.35,691.45,679.35,687.45,675.35,691.45,684.35" style="stroke:#181818;stroke-width:1;"/></g><!--link MUX to SoilSensor10--><g class="link" data-entity-1="MUX" data-entity-2="SoilSensor10" data-source-line="54" data-uid="lnk33" id="link_MUX_SoilSensor10"><path d="M782.66,585.68 C782.66,612.79 782.66,651.26 782.66,678.35" fill="none" id="MUX-to-SoilSensor10" style="stroke:#181818;stroke-width:1;"/><polygon fill="#181818" points="782.66,684.35,786.66,675.35,782.66,679.35,778.66,675.35,782.66,684.35" style="stroke:#181818;stroke-width:1;"/></g><!--link MUX to SoilSensor14--><g class="link" data-entity-1="MUX" data-entity-2="SoilSensor14" data-source-line="55" data-uid="lnk34" id="link_MUX_SoilSensor14"><path d="M806,585.98 C806,607.45 806,635.78 806,635.78 C806,635.78 1002.06,635.78 1002.06,635.78 C1002.06,635.78 1002.06,657.15 1002.06,678.1" fill="none" id="MUX-to-SoilSensor14" style="stroke:#181818;stroke-width:1;"/><polygon fill="#181818" points="1002.06,684.1,1006.06,675.1,1002.06,679.1,998.06,675.1,1002.06,684.1" style="stroke:#181818;stroke-width:1;"/></g><!--link ESP32 to Google Sheets--><g class="link" data-entity-1="ESP32" data-entity-2="Google Sheets" data-source-line="57" data-uid="lnk35" id="link_ESP32_Google Sheets"><path d="M823.24,409.78 C891.8,409.78 980,409.78 980,409.78 C980,409.78 980,490.04 980,532.83" fill="none" id="ESP32-to-Google Sheets" style="stroke:#181818;stroke-width:1;"/><polygon fill="#181818" points="980,538.83,984,529.83,980,533.83,976,529.83,980,538.83" style="stroke:#181818;stroke-width:1;"/></g><!--link ESP32 to Arduino IoT Cloud--><g class="link" data-entity-1="ESP32" data-entity-2="Arduino IoT Cloud" data-source-line="58" data-uid="lnk36" id="link_ESP32_Arduino IoT Cloud"><path d="M823.25,398.78 C945.97,398.78 1168,398.78 1168,398.78 C1168,398.78 1168,487.68 1168,532.9" fill="none" id="ESP32-to-Arduino IoT Cloud" style="stroke:#181818;stroke-width:1;"/><polygon fill="#181818" points="1168,538.9,1172,529.9,1168,533.9,1164,529.9,1168,538.9" style="stroke:#181818;stroke-width:1;"/></g><!--link ESP32 to Smartphone--><g class="link" data-entity-1="ESP32" data-entity-2="Smartphone" data-source-line="59" data-uid="lnk37" id="link_ESP32_Smartphone"><path d="M823.28,386.78 C991.73,386.78 1370,386.78 1370,386.78 C1370,386.78 1370,485.27 1370,533.02" fill="none" id="ESP32-to-Smartphone" style="stroke:#181818;stroke-width:1;"/><polygon fill="#181818" points="1370,539.02,1374,530.02,1370,534.02,1366,530.02,1370,539.02" style="stroke:#181818;stroke-width:1;"/></g><!--SRC=[TLBBRjim4BphAnQ-90LgmBBTvbR0bTp6g0iOyGEzCX8j4w6u0aKP3efyJD53aG_e5-Z7kgHacNRSYwIT7Ow6ktCZ-TQ0GT0Ysnb8XUQ94QW2WuM57z4Op3qyA9-4AfXc1F8jgwHPyOEPI96fd2i32JsuzbXIA6wU2mwepGw3e6394yiuzBuWCKjIWQdYEXEi1py308M4z1QCZabOecIw1wnilXQCm8uJaO0cE4LjLIAcC-QuqOu-UTkMvEPuuZCZRu91EDmu8jK4F0Sldgsr4YaZibLi5BXlRBfSZ8OGy_qtOM0JEXc7dOaiw3VR-bMB14kOOy94wOiikIfHq-Kd-QEm0uFR-7uLXkzX7Z-yQ-xRKhepiIWBoPvX7iLmEnj63OsgZl70PVqA7vghKS6xplVr3uZYk_5zD1vyl7DzWiuSTvQ8JxD6t-uwRqPYSHYrwn2oEJAwJWi75xnmy1_Y-98uFZCsCPNTiEzdK_-I-qeoAy0LYfGxYGrpwDdf2FDAYOJLV-hV2DC3hLkrGKiaLYdqPZQl5D46FFxYAs8coU6ESrFslCP4fvLG23DSGMGLRFFbjDcSQLFiKD5A9qNHxh83hRSRwFVxDblyKF-bWSzKAlOYhIWZjXESaaxbfxTXlWGSwvZazksm9fP1arWBT9awGJO_fyg5nZvSTPodHx2fiM5oQbu4tcAqxYlWs1Ux7BBNkJ9bxnhTEFy1]--></g></svg>