<svg xmlns="http://www.w3.org/2000/svg" xmlns:xlink="http://www.w3.org/1999/xlink" contentStyleType="text/css" data-diagram-type="ACTIVITY" height="2903px" preserveAspectRatio="none" style="width:769px;height:2903px;background:#FFFFFF;" version="1.1" viewBox="0 0 769 2903" width="769px" zoomAndPan="magnify"><defs/><g><rect fill="none" height="186.3516" style="stroke:#000000;stroke-width:1.5;" width="523.7559" x="234.3647" y="11"/><path d="M358.3062,11 L358.3062,20.2969 L348.3062,30.2969 L234.3647,30.2969" fill="none" style="stroke:#000000;stroke-width:1.5;"/><text fill="#000000" font-family="sans-serif" font-size="14" lengthAdjust="spacing" textLength="113.9414" x="237.3647" y="24.9951">lerMultiplexador</text><rect fill="#F1F1F1" height="33.9688" rx="12.5" ry="12.5" style="stroke:#181818;stroke-width:0.5;" width="142.5137" x="316.5581" y="40.2969"/><text fill="#000000" font-family="sans-serif" font-size="12" lengthAdjust="spacing" textLength="122.5137" x="326.5581" y="61.4355">Para cada bit (0 a 3)</text><path d="M551.2651,91.1172 L551.2651,107.25 L531.2651,111.25 L551.2651,115.25 L551.2651,131.3828 A0,0 0 0 0 551.2651,131.3828 L748.1206,131.3828 A0,0 0 0 0 748.1206,131.3828 L748.1206,101.1172 L738.1206,91.1172 L551.2651,91.1172 A0,0 0 0 0 551.2651,91.1172" fill="#FEFFDD" style="stroke:#181818;stroke-width:0.5;"/><path d="M738.1206,91.1172 L738.1206,101.1172 L748.1206,101.1172 L738.1206,91.1172" fill="#FEFFDD" style="stroke:#181818;stroke-width:0.5;"/><text fill="#000000" font-family="sans-serif" font-size="13" lengthAdjust="spacing" textLength="158.1899" x="557.2651" y="108.1841">Isso &#233; feito com base na</text><text fill="#000000" font-family="sans-serif" font-size="13" lengthAdjust="spacing" textLength="175.8555" x="557.2651" y="123.3169">tabelaMUX e no canalAtual</text><rect fill="#F1F1F1" height="33.9688" rx="12.5" ry="12.5" style="stroke:#181818;stroke-width:0.5;" width="286.9004" x="244.3647" y="94.2656"/><text fill="#000000" font-family="sans-serif" font-size="12" lengthAdjust="spacing" textLength="266.9004" x="254.3647" y="115.4043">Definir o pino do seletor como HIGH ou LOW</text><rect fill="#F1F1F1" height="33.9688" rx="12.5" ry="12.5" style="stroke:#181818;stroke-width:0.5;" width="260.6855" x="257.4722" y="151.3828"/><text fill="#000000" font-family="sans-serif" font-size="12" lengthAdjust="spacing" textLength="240.6855" x="267.4722" y="172.5215">Retornar a leitura anal&#243;gica do pino SIG</text><rect fill="none" height="444.5117" style="stroke:#000000;stroke-width:1.5;" width="377.9629" x="198.8335" y="207.3516"/><path d="M313.7173,207.3516 L313.7173,216.6484 L303.7173,226.6484 L198.8335,226.6484" fill="none" style="stroke:#000000;stroke-width:1.5;"/><text fill="#000000" font-family="sans-serif" font-size="14" lengthAdjust="spacing" textLength="104.8838" x="201.8335" y="221.3467">coletarLeituras</text><rect fill="#F1F1F1" height="33.9688" rx="12.5" ry="12.5" style="stroke:#181818;stroke-width:0.5;" width="249.1016" x="263.2642" y="243.6484"/><text fill="#000000" font-family="sans-serif" font-size="12" lengthAdjust="spacing" textLength="229.1016" x="273.2642" y="264.7871">valorLido &#8592; chamar lerMultiplexador()</text><rect fill="#F1F1F1" height="33.9688" rx="12.5" ry="12.5" style="stroke:#181818;stroke-width:0.5;" width="357.9629" x="208.8335" y="297.6172"/><text fill="#000000" font-family="sans-serif" font-size="12" lengthAdjust="spacing" textLength="337.9629" x="218.8335" y="318.7559">Armazenar valorLido em valores_analogicos[canalAtual]</text><rect fill="#F1F1F1" height="33.9688" rx="12.5" ry="12.5" style="stroke:#181818;stroke-width:0.5;" width="315.5879" x="230.021" y="351.5859"/><text fill="#000000" font-family="sans-serif" font-size="12" lengthAdjust="spacing" textLength="295.5879" x="240.021" y="372.7246">Adicionar valorLido em somaLeituras[canalAtual]</text><rect fill="#F1F1F1" height="33.9688" rx="12.5" ry="12.5" style="stroke:#181818;stroke-width:0.5;" width="218.2871" x="278.6714" y="405.5547"/><text fill="#000000" font-family="sans-serif" font-size="12" lengthAdjust="spacing" textLength="198.2871" x="288.6714" y="426.6934">Incrementar totalAmostrasJanela</text><rect fill="#F1F1F1" height="33.9688" rx="12.5" ry="12.5" style="stroke:#181818;stroke-width:0.5;" width="160.9941" x="307.3179" y="459.5234"/><text fill="#000000" font-family="sans-serif" font-size="12" lengthAdjust="spacing" textLength="140.9941" x="317.3179" y="480.6621">Incrementar canalAtual</text><rect fill="#F1F1F1" height="33.9688" rx="12.5" ry="12.5" style="stroke:#181818;stroke-width:0.5;" width="108.7695" x="333.4302" y="561.8945"/><text fill="#000000" font-family="sans-serif" font-size="12" lengthAdjust="spacing" textLength="88.7695" x="343.4302" y="583.0332">canalAtual &#8592; 0</text><polygon fill="#F1F1F1" points="340.7104,513.4922,434.9194,513.4922,446.9194,525.4922,434.9194,537.4922,340.7104,537.4922,328.7104,525.4922,340.7104,513.4922" style="stroke:#181818;stroke-width:0.5;"/><text fill="#000000" font-family="sans-serif" font-size="11" lengthAdjust="spacing" textLength="19.5024" x="391.8149" y="547.7026">sim</text><text fill="#000000" font-family="sans-serif" font-size="11" lengthAdjust="spacing" textLength="94.209" x="340.7104" y="529.3003">canalAtual &#8805; 16?</text><polygon fill="#F1F1F1" points="387.8149,615.8633,399.8149,627.8633,387.8149,639.8633,375.8149,627.8633,387.8149,615.8633" style="stroke:#181818;stroke-width:0.5;"/><rect fill="none" height="318.2031" style="stroke:#000000;stroke-width:1.5;" width="726.2246" x="11" y="661.8633"/><path d="M143.1172,661.8633 L143.1172,671.1602 L133.1172,681.1602 L11,681.1602" fill="none" style="stroke:#000000;stroke-width:1.5;"/><text fill="#000000" font-family="sans-serif" font-size="14" lengthAdjust="spacing" textLength="122.1172" x="14" y="675.8584">calcularMedia60s</text><polygon fill="#F1F1F1" points="317.9504,698.1602,457.6794,698.1602,469.6794,710.1602,457.6794,722.1602,317.9504,722.1602,305.9504,710.1602,317.9504,698.1602" style="stroke:#181818;stroke-width:0.5;"/><text fill="#000000" font-family="sans-serif" font-size="11" lengthAdjust="spacing" textLength="139.729" x="317.9504" y="713.9683">totalAmostrasJanela &gt; 0?</text><text fill="#000000" font-family="sans-serif" font-size="11" lengthAdjust="spacing" textLength="19.5024" x="286.448" y="707.5659">sim</text><rect fill="#F1F1F1" height="33.9688" rx="12.5" ry="12.5" style="stroke:#181818;stroke-width:0.5;" width="300.7988" x="113.5317" y="732.1602"/><text fill="#000000" font-family="sans-serif" font-size="12" lengthAdjust="spacing" textLength="280.7988" x="123.5317" y="753.2988">amostrasPorCanal &#8592; totalAmostrasJanela &#247; 16</text><rect fill="#F1F1F1" height="33.9688" rx="12.5" ry="12.5" style="stroke:#181818;stroke-width:0.5;" width="154.7363" x="434.3306" y="732.1602"/><text fill="#000000" font-family="sans-serif" font-size="12" lengthAdjust="spacing" textLength="134.7363" x="444.3306" y="753.2988">amostrasPorCanal &#8592; 0</text><polygon fill="#F1F1F1" points="387.8149,772.1289,399.8149,784.1289,387.8149,796.1289,375.8149,784.1289,387.8149,772.1289" style="stroke:#181818;stroke-width:0.5;"/><polygon fill="#F1F1F1" points="323.1416,816.1289,452.4883,816.1289,464.4883,828.1289,452.4883,840.1289,323.1416,840.1289,311.1416,828.1289,323.1416,816.1289" style="stroke:#181818;stroke-width:0.5;"/><text fill="#000000" font-family="sans-serif" font-size="11" lengthAdjust="spacing" textLength="129.3467" x="323.1416" y="831.937">amostrasPorCanal &gt; 0?</text><text fill="#000000" font-family="sans-serif" font-size="11" lengthAdjust="spacing" textLength="19.5024" x="291.6392" y="825.5347">sim</text><rect fill="#F1F1F1" height="33.9688" rx="12.5" ry="12.5" style="stroke:#181818;stroke-width:0.5;" width="176.1875" x="121.165" y="850.1289"/><text fill="#000000" font-family="sans-serif" font-size="12" lengthAdjust="spacing" textLength="156.1875" x="131.165" y="871.2676">Para cada canal de 0 a 15</text><rect fill="#F1F1F1" height="33.9688" rx="12.5" ry="12.5" style="stroke:#181818;stroke-width:0.5;" width="372.5176" x="23" y="904.0977"/><text fill="#000000" font-family="sans-serif" font-size="12" lengthAdjust="spacing" textLength="352.5176" x="33" y="925.2363">medias[canal] &#8592; somaLeituras[canal] &#247; amostrasPorCanal</text><rect fill="#F1F1F1" height="33.9688" rx="12.5" ry="12.5" style="stroke:#181818;stroke-width:0.5;" width="301.707" x="415.5176" y="850.1289"/><text fill="#000000" font-family="sans-serif" font-size="12" lengthAdjust="spacing" textLength="281.707" x="425.5176" y="871.2676">Exibir mensagem de erro no Serial e Bluetooth</text><polygon fill="#F1F1F1" points="387.8149,944.0664,399.8149,956.0664,387.8149,968.0664,375.8149,956.0664,387.8149,944.0664" style="stroke:#181818;stroke-width:0.5;"/><rect fill="none" height="567.4492" style="stroke:#000000;stroke-width:1.5;" width="376.1172" x="199.7563" y="990.0664"/><path d="M341.3208,990.0664 L341.3208,999.3633 L331.3208,1009.3633 L199.7563,1009.3633" fill="none" style="stroke:#000000;stroke-width:1.5;"/><text fill="#000000" font-family="sans-serif" font-size="14" lengthAdjust="spacing" textLength="131.5645" x="202.7563" y="1004.0615">percentualLeituras</text><rect fill="#F1F1F1" height="33.9688" rx="12.5" ry="12.5" style="stroke:#181818;stroke-width:0.5;" width="258.3301" x="258.6499" y="1026.3633"/><text fill="#000000" font-family="sans-serif" font-size="12" lengthAdjust="spacing" textLength="238.3301" x="268.6499" y="1047.502">Para cada pino de 0 at&#233; numeroPino - 1</text><rect fill="#F1F1F1" height="33.9688" rx="12.5" ry="12.5" style="stroke:#181818;stroke-width:0.5;" width="155.2227" x="310.2036" y="1080.332"/><text fill="#000000" font-family="sans-serif" font-size="12" lengthAdjust="spacing" textLength="135.2227" x="320.2036" y="1101.4707">leitura &#8592; medias[pino]</text><rect fill="#F1F1F1" height="33.9688" rx="12.5" ry="12.5" style="stroke:#181818;stroke-width:0.5;" width="221.252" x="277.189" y="1134.3008"/><text fill="#000000" font-family="sans-serif" font-size="12" lengthAdjust="spacing" textLength="201.252" x="287.189" y="1155.4395">minimo &#8592; sensoresMinimos[pino]</text><rect fill="#F1F1F1" height="33.9688" rx="12.5" ry="12.5" style="stroke:#181818;stroke-width:0.5;" width="228.2832" x="273.6733" y="1188.2695"/><text fill="#000000" font-family="sans-serif" font-size="12" lengthAdjust="spacing" textLength="208.2832" x="283.6733" y="1209.4082">maximo &#8592; sensoresMaximos[pino]</text><rect fill="#F1F1F1" height="33.9688" rx="12.5" ry="12.5" style="stroke:#181818;stroke-width:0.5;" width="188.3457" x="293.6421" y="1290.6406"/><text fill="#000000" font-family="sans-serif" font-size="12" lengthAdjust="spacing" textLength="168.3457" x="303.6421" y="1311.7793">mediasPercentual[pino] &#8592; 0</text><rect fill="#F1F1F1" height="33.9688" rx="12.5" ry="12.5" style="stroke:#181818;stroke-width:0.5;" width="217.0918" x="279.269" y="1359.6094"/><text fill="#000000" font-family="sans-serif" font-size="12" lengthAdjust="spacing" textLength="197.0918" x="289.269" y="1380.748">CONTINUAR para o pr&#243;ximo pino</text><polygon fill="#F1F1F1" points="333.9348,1242.2383,441.6951,1242.2383,453.6951,1254.2383,441.6951,1266.2383,333.9348,1266.2383,321.9348,1254.2383,333.9348,1242.2383" style="stroke:#181818;stroke-width:0.5;"/><text fill="#000000" font-family="sans-serif" font-size="11" lengthAdjust="spacing" textLength="19.5024" x="391.8149" y="1276.4487">sim</text><text fill="#000000" font-family="sans-serif" font-size="11" lengthAdjust="spacing" textLength="107.7603" x="333.9348" y="1258.0464">minimo = maximo?</text><polygon fill="#F1F1F1" points="387.8149,1413.5781,399.8149,1425.5781,387.8149,1437.5781,375.8149,1425.5781,387.8149,1413.5781" style="stroke:#181818;stroke-width:0.5;"/><rect fill="#F1F1F1" height="33.9688" rx="12.5" ry="12.5" style="stroke:#181818;stroke-width:0.5;" width="331.4316" x="222.0991" y="1457.5781"/><text fill="#000000" font-family="sans-serif" font-size="12" lengthAdjust="spacing" textLength="311.4316" x="232.0991" y="1478.7168">percentual &#8592; map(leitura, minimo, maximo, 100, 0)</text><rect fill="#F1F1F1" height="33.9688" rx="12.5" ry="12.5" style="stroke:#181818;stroke-width:0.5;" width="356.1172" x="209.7563" y="1511.5469"/><text fill="#000000" font-family="sans-serif" font-size="12" lengthAdjust="spacing" textLength="336.1172" x="219.7563" y="1532.6855">mediasPercentual[pino] &#8592; constrain(percentual, 0, 100)</text><rect fill="none" height="953.1289" style="stroke:#000000;stroke-width:1.5;" width="646.6836" x="76.4731" y="1567.5156"/><path d="M182.0874,1567.5156 L182.0874,1576.8125 L172.0874,1586.8125 L76.4731,1586.8125" fill="none" style="stroke:#000000;stroke-width:1.5;"/><text fill="#000000" font-family="sans-serif" font-size="14" lengthAdjust="spacing" textLength="95.6143" x="79.4731" y="1581.5107">exibirLeituras</text><rect fill="#F1F1F1" height="33.9688" rx="12.5" ry="12.5" style="stroke:#181818;stroke-width:0.5;" width="388.2559" x="193.687" y="1603.8125"/><text fill="#000000" font-family="sans-serif" font-size="12" lengthAdjust="spacing" textLength="368.2559" x="203.687" y="1624.9512">Exibir "===== UMIDADE (%) =====" no Serial e Bluetooth</text><rect fill="#F1F1F1" height="33.9688" rx="12.5" ry="12.5" style="stroke:#181818;stroke-width:0.5;" width="176.1875" x="299.7212" y="1657.7813"/><text fill="#000000" font-family="sans-serif" font-size="12" lengthAdjust="spacing" textLength="156.1875" x="309.7212" y="1678.9199">Para cada canal de 0 a 15</text><rect fill="#F1F1F1" height="33.9688" rx="12.5" ry="12.5" style="stroke:#181818;stroke-width:0.5;" width="237.1953" x="269.2173" y="1711.75"/><text fill="#000000" font-family="sans-serif" font-size="12" lengthAdjust="spacing" textLength="217.1953" x="279.2173" y="1732.8887">Construir mensagem "Canal X: Y %"</text><rect fill="#F1F1F1" height="33.9688" rx="12.5" ry="12.5" style="stroke:#181818;stroke-width:0.5;" width="254.4863" x="260.5718" y="1765.7188"/><text fill="#000000" font-family="sans-serif" font-size="12" lengthAdjust="spacing" textLength="234.4863" x="270.5718" y="1786.8574">Exibir mensagem no Serial e Bluetooth</text><rect fill="#F1F1F1" height="33.9688" rx="12.5" ry="12.5" style="stroke:#181818;stroke-width:0.5;" width="284.8965" x="245.3667" y="1819.6875"/><text fill="#000000" font-family="sans-serif" font-size="12" lengthAdjust="spacing" textLength="264.8965" x="255.3667" y="1840.8262">Exibir linha em branco no Serial e Bluetooth</text><rect fill="#F1F1F1" height="33.9688" rx="12.5" ry="12.5" style="stroke:#181818;stroke-width:0.5;" width="112.9238" x="331.353" y="1873.6563"/><text fill="#000000" font-family="sans-serif" font-size="12" lengthAdjust="spacing" textLength="92.9238" x="341.353" y="1894.7949">agora &#8592; millis()</text><rect fill="#F1F1F1" height="33.9688" rx="12.5" ry="12.5" style="stroke:#181818;stroke-width:0.5;" width="168.166" x="303.7319" y="1976.0273"/><text fill="#000000" font-family="sans-serif" font-size="12" lengthAdjust="spacing" textLength="148.166" x="313.7319" y="1997.166">ultimaTrocaLCD &#8592; agora</text><rect fill="#F1F1F1" height="33.9688" rx="12.5" ry="12.5" style="stroke:#181818;stroke-width:0.5;" width="89.7324" x="342.9487" y="2029.9961"/><text fill="#000000" font-family="sans-serif" font-size="12" lengthAdjust="spacing" textLength="69.7324" x="352.9487" y="2051.1348">Limpar LCD</text><rect fill="#F1F1F1" height="33.9688" rx="12.5" ry="12.5" style="stroke:#181818;stroke-width:0.5;" width="502.6836" x="136.4731" y="2083.9648"/><text fill="#000000" font-family="sans-serif" font-size="12" lengthAdjust="spacing" textLength="482.6836" x="146.4731" y="2105.1035">Exibir na linha 1 &#8594; "P" + indiceLCD + ": " + mediasPercentual[indiceLCD] + "%"</text><rect fill="#F1F1F1" height="33.9688" rx="12.5" ry="12.5" style="stroke:#181818;stroke-width:0.5;" width="562.6836" x="106.4731" y="2186.3359"/><text fill="#000000" font-family="sans-serif" font-size="12" lengthAdjust="spacing" textLength="542.6836" x="116.4731" y="2207.4746">Exibir na linha 2 &#8594; "P" + (indiceLCD + 1) + ": " + mediasPercentual[indiceLCD + 1] + "%"</text><polygon fill="#F1F1F1" points="330.6074,2137.9336,445.0225,2137.9336,457.0225,2149.9336,445.0225,2161.9336,330.6074,2161.9336,318.6074,2149.9336,330.6074,2137.9336" style="stroke:#181818;stroke-width:0.5;"/><text fill="#000000" font-family="sans-serif" font-size="11" lengthAdjust="spacing" textLength="19.5024" x="391.8149" y="2172.144">sim</text><text fill="#000000" font-family="sans-serif" font-size="11" lengthAdjust="spacing" textLength="114.415" x="330.6074" y="2153.7417">indiceLCD + 1 &#8804; 16?</text><polygon fill="#F1F1F1" points="387.8149,2240.3047,399.8149,2252.3047,387.8149,2264.3047,375.8149,2252.3047,387.8149,2240.3047" style="stroke:#181818;stroke-width:0.5;"/><rect fill="#F1F1F1" height="33.9688" rx="12.5" ry="12.5" style="stroke:#181818;stroke-width:0.5;" width="157.7188" x="308.9556" y="2284.3047"/><text fill="#000000" font-family="sans-serif" font-size="12" lengthAdjust="spacing" textLength="137.7188" x="318.9556" y="2305.4434">Incrementar indiceLCD</text><rect fill="#F1F1F1" height="33.9688" rx="12.5" ry="12.5" style="stroke:#181818;stroke-width:0.5;" width="105.4941" x="335.0679" y="2386.6758"/><text fill="#000000" font-family="sans-serif" font-size="12" lengthAdjust="spacing" textLength="85.4941" x="345.0679" y="2407.8145">indiceLCD &#8592; 0</text><polygon fill="#F1F1F1" points="342.2117,2338.2734,433.4182,2338.2734,445.4182,2350.2734,433.4182,2362.2734,342.2117,2362.2734,330.2117,2350.2734,342.2117,2338.2734" style="stroke:#181818;stroke-width:0.5;"/><text fill="#000000" font-family="sans-serif" font-size="11" lengthAdjust="spacing" textLength="19.5024" x="391.8149" y="2372.4839">sim</text><text fill="#000000" font-family="sans-serif" font-size="11" lengthAdjust="spacing" textLength="91.2065" x="342.2117" y="2354.0815">indiceLCD &gt; 15?</text><polygon fill="#F1F1F1" points="387.8149,2440.6445,399.8149,2452.6445,387.8149,2464.6445,375.8149,2452.6445,387.8149,2440.6445" style="stroke:#181818;stroke-width:0.5;"/><polygon fill="#F1F1F1" points="271.7402,1927.625,503.8896,1927.625,515.8896,1939.625,503.8896,1951.625,271.7402,1951.625,259.7402,1939.625,271.7402,1927.625" style="stroke:#181818;stroke-width:0.5;"/><text fill="#000000" font-family="sans-serif" font-size="11" lengthAdjust="spacing" textLength="19.5024" x="391.8149" y="1961.8354">sim</text><text fill="#000000" font-family="sans-serif" font-size="11" lengthAdjust="spacing" textLength="232.1494" x="271.7402" y="1943.4331">(agora - ultimaTrocaLCD) &#8805; intervaloLCD?</text><polygon fill="#F1F1F1" points="387.8149,2484.6445,399.8149,2496.6445,387.8149,2508.6445,375.8149,2496.6445,387.8149,2484.6445" style="stroke:#181818;stroke-width:0.5;"/><rect fill="none" height="362.1406" style="stroke:#000000;stroke-width:1.5;" width="466.7383" x="160.1587" y="2530.6445"/><path d="M371.6274,2530.6445 L371.6274,2539.9414 L361.6274,2549.9414 L160.1587,2549.9414" fill="none" style="stroke:#000000;stroke-width:1.5;"/><text fill="#000000" font-family="sans-serif" font-size="14" lengthAdjust="spacing" textLength="201.4688" x="163.1587" y="2544.6396">imprimirMediaPinoEspecifico</text><polygon fill="#F1F1F1" points="337.4797,2566.9414,438.1501,2566.9414,450.1501,2578.9414,438.1501,2590.9414,337.4797,2590.9414,325.4797,2578.9414,337.4797,2566.9414" style="stroke:#181818;stroke-width:0.5;"/><text fill="#000000" font-family="sans-serif" font-size="11" lengthAdjust="spacing" textLength="100.6704" x="337.4797" y="2582.7495">pino entre 0 e 15?</text><text fill="#000000" font-family="sans-serif" font-size="11" lengthAdjust="spacing" textLength="19.5024" x="305.9773" y="2576.3472">sim</text><rect fill="#F1F1F1" height="33.9688" rx="12.5" ry="12.5" style="stroke:#181818;stroke-width:0.5;" width="157.9004" x="197.1802" y="2600.9414"/><text fill="#000000" font-family="sans-serif" font-size="12" lengthAdjust="spacing" textLength="137.9004" x="207.1802" y="2622.0801">Construir "Pino X: Y %"</text><rect fill="#F1F1F1" height="33.9688" rx="12.5" ry="12.5" style="stroke:#181818;stroke-width:0.5;" width="183.6992" x="184.2808" y="2654.9102"/><text fill="#000000" font-family="sans-serif" font-size="12" lengthAdjust="spacing" textLength="163.6992" x="194.2808" y="2676.0488">Exibir no Serial e Bluetooth</text><rect fill="#F1F1F1" height="33.9688" rx="12.5" ry="12.5" style="stroke:#181818;stroke-width:0.5;" width="89.7324" x="231.2642" y="2708.8789"/><text fill="#000000" font-family="sans-serif" font-size="12" lengthAdjust="spacing" textLength="69.7324" x="241.2642" y="2730.0176">Limpar LCD</text><rect fill="#F1F1F1" height="33.9688" rx="12.5" ry="12.5" style="stroke:#181818;stroke-width:0.5;" width="191.9434" x="180.1587" y="2762.8477"/><text fill="#000000" font-family="sans-serif" font-size="12" lengthAdjust="spacing" textLength="171.9434" x="190.1587" y="2783.9863">Linha 1 &#8594; "Pino X Umidade:"</text><rect fill="#F1F1F1" height="33.9688" rx="12.5" ry="12.5" style="stroke:#181818;stroke-width:0.5;" width="111.4883" x="220.3862" y="2816.8164"/><text fill="#000000" font-family="sans-serif" font-size="12" lengthAdjust="spacing" textLength="91.4883" x="230.3862" y="2837.9551">Linha 2 &#8594; "Y%"</text><rect fill="#F1F1F1" height="33.9688" rx="12.5" ry="12.5" style="stroke:#181818;stroke-width:0.5;" width="214.7949" x="392.1021" y="2600.9414"/><text fill="#000000" font-family="sans-serif" font-size="12" lengthAdjust="spacing" textLength="194.7949" x="402.1021" y="2622.0801">Construir "Erro: Pino X invalido."</text><rect fill="#F1F1F1" height="33.9688" rx="12.5" ry="12.5" style="stroke:#181818;stroke-width:0.5;" width="183.6992" x="407.6499" y="2654.9102"/><text fill="#000000" font-family="sans-serif" font-size="12" lengthAdjust="spacing" textLength="163.6992" x="417.6499" y="2676.0488">Exibir no Serial e Bluetooth</text><rect fill="#F1F1F1" height="33.9688" rx="12.5" ry="12.5" style="stroke:#181818;stroke-width:0.5;" width="89.7324" x="454.6333" y="2708.8789"/><text fill="#000000" font-family="sans-serif" font-size="12" lengthAdjust="spacing" textLength="69.7324" x="464.6333" y="2730.0176">Limpar LCD</text><rect fill="#F1F1F1" height="33.9688" rx="12.5" ry="12.5" style="stroke:#181818;stroke-width:0.5;" width="164.2813" x="417.3589" y="2762.8477"/><text fill="#000000" font-family="sans-serif" font-size="12" lengthAdjust="spacing" textLength="144.2813" x="427.3589" y="2783.9863">Linha 1 &#8594; "ERRO PINO!"</text><rect fill="#F1F1F1" height="33.9688" rx="12.5" ry="12.5" style="stroke:#181818;stroke-width:0.5;" width="184.959" x="407.02" y="2816.8164"/><text fill="#000000" font-family="sans-serif" font-size="12" lengthAdjust="spacing" textLength="164.959" x="417.02" y="2837.9551">Linha 2 &#8594; "Pino X invalido."</text><polygon fill="#F1F1F1" points="387.8149,2856.7852,399.8149,2868.7852,387.8149,2880.7852,375.8149,2868.7852,387.8149,2856.7852" style="stroke:#181818;stroke-width:0.5;"/><line style="stroke:#181818;stroke-width:1;" x1="387.8149" x2="387.8149" y1="74.2656" y2="94.2656"/><polygon fill="#181818" points="383.8149,84.2656,387.8149,94.2656,391.8149,84.2656,387.8149,88.2656" style="stroke:#181818;stroke-width:1;"/><line style="stroke:#181818;stroke-width:1;" x1="387.8149" x2="387.8149" y1="128.2344" y2="151.3828"/><polygon fill="#181818" points="383.8149,141.3828,387.8149,151.3828,391.8149,141.3828,387.8149,145.3828" style="stroke:#181818;stroke-width:1;"/><line style="stroke:#181818;stroke-width:1;" x1="387.8149" x2="387.8149" y1="277.6172" y2="297.6172"/><polygon fill="#181818" points="383.8149,287.6172,387.8149,297.6172,391.8149,287.6172,387.8149,291.6172" style="stroke:#181818;stroke-width:1;"/><line style="stroke:#181818;stroke-width:1;" x1="387.8149" x2="387.8149" y1="331.5859" y2="351.5859"/><polygon fill="#181818" points="383.8149,341.5859,387.8149,351.5859,391.8149,341.5859,387.8149,345.5859" style="stroke:#181818;stroke-width:1;"/><line style="stroke:#181818;stroke-width:1;" x1="387.8149" x2="387.8149" y1="385.5547" y2="405.5547"/><polygon fill="#181818" points="383.8149,395.5547,387.8149,405.5547,391.8149,395.5547,387.8149,399.5547" style="stroke:#181818;stroke-width:1;"/><line style="stroke:#181818;stroke-width:1;" x1="387.8149" x2="387.8149" y1="439.5234" y2="459.5234"/><polygon fill="#181818" points="383.8149,449.5234,387.8149,459.5234,391.8149,449.5234,387.8149,453.5234" style="stroke:#181818;stroke-width:1;"/><line style="stroke:#181818;stroke-width:1;" x1="387.8149" x2="387.8149" y1="537.4922" y2="561.8945"/><polygon fill="#181818" points="383.8149,551.8945,387.8149,561.8945,391.8149,551.8945,387.8149,555.8945" style="stroke:#181818;stroke-width:1;"/><line style="stroke:#181818;stroke-width:1;" x1="446.9194" x2="458.9194" y1="525.4922" y2="525.4922"/><polygon fill="#181818" points="454.9194,568.8789,458.9194,578.8789,462.9194,568.8789,458.9194,572.8789" style="stroke:#181818;stroke-width:1;"/><line style="stroke:#181818;stroke-width:1;" x1="458.9194" x2="458.9194" y1="525.4922" y2="627.8633"/><line style="stroke:#181818;stroke-width:1;" x1="458.9194" x2="399.8149" y1="627.8633" y2="627.8633"/><polygon fill="#181818" points="409.8149,623.8633,399.8149,627.8633,409.8149,631.8633,405.8149,627.8633" style="stroke:#181818;stroke-width:1;"/><line style="stroke:#181818;stroke-width:1;" x1="387.8149" x2="387.8149" y1="595.8633" y2="615.8633"/><polygon fill="#181818" points="383.8149,605.8633,387.8149,615.8633,391.8149,605.8633,387.8149,609.8633" style="stroke:#181818;stroke-width:1;"/><line style="stroke:#181818;stroke-width:1;" x1="387.8149" x2="387.8149" y1="493.4922" y2="513.4922"/><polygon fill="#181818" points="383.8149,503.4922,387.8149,513.4922,391.8149,503.4922,387.8149,507.4922" style="stroke:#181818;stroke-width:1;"/><line style="stroke:#181818;stroke-width:1;" x1="387.8149" x2="387.8149" y1="185.3516" y2="243.6484"/><polygon fill="#181818" points="383.8149,233.6484,387.8149,243.6484,391.8149,233.6484,387.8149,237.6484" style="stroke:#181818;stroke-width:1;"/><line style="stroke:#181818;stroke-width:1;" x1="305.9504" x2="263.9312" y1="710.1602" y2="710.1602"/><line style="stroke:#181818;stroke-width:1;" x1="263.9312" x2="263.9312" y1="710.1602" y2="732.1602"/><polygon fill="#181818" points="259.9312,722.1602,263.9312,732.1602,267.9312,722.1602,263.9312,726.1602" style="stroke:#181818;stroke-width:1;"/><line style="stroke:#181818;stroke-width:1;" x1="469.6794" x2="511.6987" y1="710.1602" y2="710.1602"/><line style="stroke:#181818;stroke-width:1;" x1="511.6987" x2="511.6987" y1="710.1602" y2="732.1602"/><polygon fill="#181818" points="507.6987,722.1602,511.6987,732.1602,515.6987,722.1602,511.6987,726.1602" style="stroke:#181818;stroke-width:1;"/><line style="stroke:#181818;stroke-width:1;" x1="263.9312" x2="263.9312" y1="766.1289" y2="784.1289"/><line style="stroke:#181818;stroke-width:1;" x1="263.9312" x2="375.8149" y1="784.1289" y2="784.1289"/><polygon fill="#181818" points="365.8149,780.1289,375.8149,784.1289,365.8149,788.1289,369.8149,784.1289" style="stroke:#181818;stroke-width:1;"/><line style="stroke:#181818;stroke-width:1;" x1="511.6987" x2="511.6987" y1="766.1289" y2="784.1289"/><line style="stroke:#181818;stroke-width:1;" x1="511.6987" x2="399.8149" y1="784.1289" y2="784.1289"/><polygon fill="#181818" points="409.8149,780.1289,399.8149,784.1289,409.8149,788.1289,405.8149,784.1289" style="stroke:#181818;stroke-width:1;"/><line style="stroke:#181818;stroke-width:1;" x1="209.2588" x2="209.2588" y1="884.0977" y2="904.0977"/><polygon fill="#181818" points="205.2588,894.0977,209.2588,904.0977,213.2588,894.0977,209.2588,898.0977" style="stroke:#181818;stroke-width:1;"/><line style="stroke:#181818;stroke-width:1;" x1="311.1416" x2="209.2588" y1="828.1289" y2="828.1289"/><line style="stroke:#181818;stroke-width:1;" x1="209.2588" x2="209.2588" y1="828.1289" y2="850.1289"/><polygon fill="#181818" points="205.2588,840.1289,209.2588,850.1289,213.2588,840.1289,209.2588,844.1289" style="stroke:#181818;stroke-width:1;"/><line style="stroke:#181818;stroke-width:1;" x1="464.4883" x2="566.3711" y1="828.1289" y2="828.1289"/><line style="stroke:#181818;stroke-width:1;" x1="566.3711" x2="566.3711" y1="828.1289" y2="850.1289"/><polygon fill="#181818" points="562.3711,840.1289,566.3711,850.1289,570.3711,840.1289,566.3711,844.1289" style="stroke:#181818;stroke-width:1;"/><line style="stroke:#181818;stroke-width:1;" x1="209.2588" x2="209.2588" y1="938.0664" y2="956.0664"/><line style="stroke:#181818;stroke-width:1;" x1="209.2588" x2="375.8149" y1="956.0664" y2="956.0664"/><polygon fill="#181818" points="365.8149,952.0664,375.8149,956.0664,365.8149,960.0664,369.8149,956.0664" style="stroke:#181818;stroke-width:1;"/><line style="stroke:#181818;stroke-width:1;" x1="566.3711" x2="566.3711" y1="884.0977" y2="956.0664"/><line style="stroke:#181818;stroke-width:1;" x1="566.3711" x2="399.8149" y1="956.0664" y2="956.0664"/><polygon fill="#181818" points="409.8149,952.0664,399.8149,956.0664,409.8149,960.0664,405.8149,956.0664" style="stroke:#181818;stroke-width:1;"/><line style="stroke:#181818;stroke-width:1;" x1="387.8149" x2="387.8149" y1="796.1289" y2="816.1289"/><polygon fill="#181818" points="383.8149,806.1289,387.8149,816.1289,391.8149,806.1289,387.8149,810.1289" style="stroke:#181818;stroke-width:1;"/><line style="stroke:#181818;stroke-width:1;" x1="387.8149" x2="387.8149" y1="639.8633" y2="698.1602"/><polygon fill="#181818" points="383.8149,688.1602,387.8149,698.1602,391.8149,688.1602,387.8149,692.1602" style="stroke:#181818;stroke-width:1;"/><line style="stroke:#181818;stroke-width:1;" x1="387.8149" x2="387.8149" y1="1060.332" y2="1080.332"/><polygon fill="#181818" points="383.8149,1070.332,387.8149,1080.332,391.8149,1070.332,387.8149,1074.332" style="stroke:#181818;stroke-width:1;"/><line style="stroke:#181818;stroke-width:1;" x1="387.8149" x2="387.8149" y1="1114.3008" y2="1134.3008"/><polygon fill="#181818" points="383.8149,1124.3008,387.8149,1134.3008,391.8149,1124.3008,387.8149,1128.3008" style="stroke:#181818;stroke-width:1;"/><line style="stroke:#181818;stroke-width:1;" x1="387.8149" x2="387.8149" y1="1168.2695" y2="1188.2695"/><polygon fill="#181818" points="383.8149,1178.2695,387.8149,1188.2695,391.8149,1178.2695,387.8149,1182.2695" style="stroke:#181818;stroke-width:1;"/><line style="stroke:#181818;stroke-width:1;" x1="387.8149" x2="387.8149" y1="1324.6094" y2="1359.6094"/><polygon fill="#181818" points="383.8149,1349.6094,387.8149,1359.6094,391.8149,1349.6094,387.8149,1353.6094" style="stroke:#181818;stroke-width:1;"/><line style="stroke:#181818;stroke-width:1;" x1="387.8149" x2="387.8149" y1="1266.2383" y2="1290.6406"/><polygon fill="#181818" points="383.8149,1280.6406,387.8149,1290.6406,391.8149,1280.6406,387.8149,1284.6406" style="stroke:#181818;stroke-width:1;"/><line style="stroke:#181818;stroke-width:1;" x1="453.6951" x2="506.3608" y1="1254.2383" y2="1254.2383"/><polygon fill="#181818" points="502.3608,1332.1094,506.3608,1342.1094,510.3608,1332.1094,506.3608,1336.1094" style="stroke:#181818;stroke-width:1;"/><line style="stroke:#181818;stroke-width:1;" x1="506.3608" x2="506.3608" y1="1254.2383" y2="1425.5781"/><line style="stroke:#181818;stroke-width:1;" x1="506.3608" x2="399.8149" y1="1425.5781" y2="1425.5781"/><polygon fill="#181818" points="409.8149,1421.5781,399.8149,1425.5781,409.8149,1429.5781,405.8149,1425.5781" style="stroke:#181818;stroke-width:1;"/><line style="stroke:#181818;stroke-width:1;" x1="387.8149" x2="387.8149" y1="1393.5781" y2="1413.5781"/><polygon fill="#181818" points="383.8149,1403.5781,387.8149,1413.5781,391.8149,1403.5781,387.8149,1407.5781" style="stroke:#181818;stroke-width:1;"/><line style="stroke:#181818;stroke-width:1;" x1="387.8149" x2="387.8149" y1="1222.2383" y2="1242.2383"/><polygon fill="#181818" points="383.8149,1232.2383,387.8149,1242.2383,391.8149,1232.2383,387.8149,1236.2383" style="stroke:#181818;stroke-width:1;"/><line style="stroke:#181818;stroke-width:1;" x1="387.8149" x2="387.8149" y1="1437.5781" y2="1457.5781"/><polygon fill="#181818" points="383.8149,1447.5781,387.8149,1457.5781,391.8149,1447.5781,387.8149,1451.5781" style="stroke:#181818;stroke-width:1;"/><line style="stroke:#181818;stroke-width:1;" x1="387.8149" x2="387.8149" y1="1491.5469" y2="1511.5469"/><polygon fill="#181818" points="383.8149,1501.5469,387.8149,1511.5469,391.8149,1501.5469,387.8149,1505.5469" style="stroke:#181818;stroke-width:1;"/><line style="stroke:#181818;stroke-width:1;" x1="387.8149" x2="387.8149" y1="968.0664" y2="1026.3633"/><polygon fill="#181818" points="383.8149,1016.3633,387.8149,1026.3633,391.8149,1016.3633,387.8149,1020.3633" style="stroke:#181818;stroke-width:1;"/><line style="stroke:#181818;stroke-width:1;" x1="387.8149" x2="387.8149" y1="1637.7813" y2="1657.7813"/><polygon fill="#181818" points="383.8149,1647.7813,387.8149,1657.7813,391.8149,1647.7813,387.8149,1651.7813" style="stroke:#181818;stroke-width:1;"/><line style="stroke:#181818;stroke-width:1;" x1="387.8149" x2="387.8149" y1="1691.75" y2="1711.75"/><polygon fill="#181818" points="383.8149,1701.75,387.8149,1711.75,391.8149,1701.75,387.8149,1705.75" style="stroke:#181818;stroke-width:1;"/><line style="stroke:#181818;stroke-width:1;" x1="387.8149" x2="387.8149" y1="1745.7188" y2="1765.7188"/><polygon fill="#181818" points="383.8149,1755.7188,387.8149,1765.7188,391.8149,1755.7188,387.8149,1759.7188" style="stroke:#181818;stroke-width:1;"/><line style="stroke:#181818;stroke-width:1;" x1="387.8149" x2="387.8149" y1="1799.6875" y2="1819.6875"/><polygon fill="#181818" points="383.8149,1809.6875,387.8149,1819.6875,391.8149,1809.6875,387.8149,1813.6875" style="stroke:#181818;stroke-width:1;"/><line style="stroke:#181818;stroke-width:1;" x1="387.8149" x2="387.8149" y1="1853.6563" y2="1873.6563"/><polygon fill="#181818" points="383.8149,1863.6563,387.8149,1873.6563,391.8149,1863.6563,387.8149,1867.6563" style="stroke:#181818;stroke-width:1;"/><line style="stroke:#181818;stroke-width:1;" x1="387.8149" x2="387.8149" y1="2009.9961" y2="2029.9961"/><polygon fill="#181818" points="383.8149,2019.9961,387.8149,2029.9961,391.8149,2019.9961,387.8149,2023.9961" style="stroke:#181818;stroke-width:1;"/><line style="stroke:#181818;stroke-width:1;" x1="387.8149" x2="387.8149" y1="2063.9648" y2="2083.9648"/><polygon fill="#181818" points="383.8149,2073.9648,387.8149,2083.9648,391.8149,2073.9648,387.8149,2077.9648" style="stroke:#181818;stroke-width:1;"/><line style="stroke:#181818;stroke-width:1;" x1="387.8149" x2="387.8149" y1="2161.9336" y2="2186.3359"/><polygon fill="#181818" points="383.8149,2176.3359,387.8149,2186.3359,391.8149,2176.3359,387.8149,2180.3359" style="stroke:#181818;stroke-width:1;"/><line style="stroke:#181818;stroke-width:1;" x1="457.0225" x2="679.1567" y1="2149.9336" y2="2149.9336"/><polygon fill="#181818" points="675.1567,2193.3203,679.1567,2203.3203,683.1567,2193.3203,679.1567,2197.3203" style="stroke:#181818;stroke-width:1;"/><line style="stroke:#181818;stroke-width:1;" x1="679.1567" x2="679.1567" y1="2149.9336" y2="2252.3047"/><line style="stroke:#181818;stroke-width:1;" x1="679.1567" x2="399.8149" y1="2252.3047" y2="2252.3047"/><polygon fill="#181818" points="409.8149,2248.3047,399.8149,2252.3047,409.8149,2256.3047,405.8149,2252.3047" style="stroke:#181818;stroke-width:1;"/><line style="stroke:#181818;stroke-width:1;" x1="387.8149" x2="387.8149" y1="2220.3047" y2="2240.3047"/><polygon fill="#181818" points="383.8149,2230.3047,387.8149,2240.3047,391.8149,2230.3047,387.8149,2234.3047" style="stroke:#181818;stroke-width:1;"/><line style="stroke:#181818;stroke-width:1;" x1="387.8149" x2="387.8149" y1="2117.9336" y2="2137.9336"/><polygon fill="#181818" points="383.8149,2127.9336,387.8149,2137.9336,391.8149,2127.9336,387.8149,2131.9336" style="stroke:#181818;stroke-width:1;"/><line style="stroke:#181818;stroke-width:1;" x1="387.8149" x2="387.8149" y1="2264.3047" y2="2284.3047"/><polygon fill="#181818" points="383.8149,2274.3047,387.8149,2284.3047,391.8149,2274.3047,387.8149,2278.3047" style="stroke:#181818;stroke-width:1;"/><line style="stroke:#181818;stroke-width:1;" x1="387.8149" x2="387.8149" y1="2362.2734" y2="2386.6758"/><polygon fill="#181818" points="383.8149,2376.6758,387.8149,2386.6758,391.8149,2376.6758,387.8149,2380.6758" style="stroke:#181818;stroke-width:1;"/><line style="stroke:#181818;stroke-width:1;" x1="445.4182" x2="457.4182" y1="2350.2734" y2="2350.2734"/><polygon fill="#181818" points="453.4182,2393.6602,457.4182,2403.6602,461.4182,2393.6602,457.4182,2397.6602" style="stroke:#181818;stroke-width:1;"/><line style="stroke:#181818;stroke-width:1;" x1="457.4182" x2="457.4182" y1="2350.2734" y2="2452.6445"/><line style="stroke:#181818;stroke-width:1;" x1="457.4182" x2="399.8149" y1="2452.6445" y2="2452.6445"/><polygon fill="#181818" points="409.8149,2448.6445,399.8149,2452.6445,409.8149,2456.6445,405.8149,2452.6445" style="stroke:#181818;stroke-width:1;"/><line style="stroke:#181818;stroke-width:1;" x1="387.8149" x2="387.8149" y1="2420.6445" y2="2440.6445"/><polygon fill="#181818" points="383.8149,2430.6445,387.8149,2440.6445,391.8149,2430.6445,387.8149,2434.6445" style="stroke:#181818;stroke-width:1;"/><line style="stroke:#181818;stroke-width:1;" x1="387.8149" x2="387.8149" y1="2318.2734" y2="2338.2734"/><polygon fill="#181818" points="383.8149,2328.2734,387.8149,2338.2734,391.8149,2328.2734,387.8149,2332.2734" style="stroke:#181818;stroke-width:1;"/><line style="stroke:#181818;stroke-width:1;" x1="387.8149" x2="387.8149" y1="1951.625" y2="1976.0273"/><polygon fill="#181818" points="383.8149,1966.0273,387.8149,1976.0273,391.8149,1966.0273,387.8149,1970.0273" style="stroke:#181818;stroke-width:1;"/><line style="stroke:#181818;stroke-width:1;" x1="515.8896" x2="701.1567" y1="1939.625" y2="1939.625"/><polygon fill="#181818" points="697.1567,2207.2383,701.1567,2217.2383,705.1567,2207.2383,701.1567,2211.2383" style="stroke:#181818;stroke-width:1;"/><line style="stroke:#181818;stroke-width:1;" x1="701.1567" x2="701.1567" y1="1939.625" y2="2496.6445"/><line style="stroke:#181818;stroke-width:1;" x1="701.1567" x2="399.8149" y1="2496.6445" y2="2496.6445"/><polygon fill="#181818" points="409.8149,2492.6445,399.8149,2496.6445,409.8149,2500.6445,405.8149,2496.6445" style="stroke:#181818;stroke-width:1;"/><line style="stroke:#181818;stroke-width:1;" x1="387.8149" x2="387.8149" y1="2464.6445" y2="2484.6445"/><polygon fill="#181818" points="383.8149,2474.6445,387.8149,2484.6445,391.8149,2474.6445,387.8149,2478.6445" style="stroke:#181818;stroke-width:1;"/><line style="stroke:#181818;stroke-width:1;" x1="387.8149" x2="387.8149" y1="1907.625" y2="1927.625"/><polygon fill="#181818" points="383.8149,1917.625,387.8149,1927.625,391.8149,1917.625,387.8149,1921.625" style="stroke:#181818;stroke-width:1;"/><line style="stroke:#181818;stroke-width:1;" x1="387.8149" x2="387.8149" y1="1545.5156" y2="1603.8125"/><polygon fill="#181818" points="383.8149,1593.8125,387.8149,1603.8125,391.8149,1593.8125,387.8149,1597.8125" style="stroke:#181818;stroke-width:1;"/><line style="stroke:#181818;stroke-width:1;" x1="276.1304" x2="276.1304" y1="2634.9102" y2="2654.9102"/><polygon fill="#181818" points="272.1304,2644.9102,276.1304,2654.9102,280.1304,2644.9102,276.1304,2648.9102" style="stroke:#181818;stroke-width:1;"/><line style="stroke:#181818;stroke-width:1;" x1="276.1304" x2="276.1304" y1="2688.8789" y2="2708.8789"/><polygon fill="#181818" points="272.1304,2698.8789,276.1304,2708.8789,280.1304,2698.8789,276.1304,2702.8789" style="stroke:#181818;stroke-width:1;"/><line style="stroke:#181818;stroke-width:1;" x1="276.1304" x2="276.1304" y1="2742.8477" y2="2762.8477"/><polygon fill="#181818" points="272.1304,2752.8477,276.1304,2762.8477,280.1304,2752.8477,276.1304,2756.8477" style="stroke:#181818;stroke-width:1;"/><line style="stroke:#181818;stroke-width:1;" x1="276.1304" x2="276.1304" y1="2796.8164" y2="2816.8164"/><polygon fill="#181818" points="272.1304,2806.8164,276.1304,2816.8164,280.1304,2806.8164,276.1304,2810.8164" style="stroke:#181818;stroke-width:1;"/><line style="stroke:#181818;stroke-width:1;" x1="499.4995" x2="499.4995" y1="2634.9102" y2="2654.9102"/><polygon fill="#181818" points="495.4995,2644.9102,499.4995,2654.9102,503.4995,2644.9102,499.4995,2648.9102" style="stroke:#181818;stroke-width:1;"/><line style="stroke:#181818;stroke-width:1;" x1="499.4995" x2="499.4995" y1="2688.8789" y2="2708.8789"/><polygon fill="#181818" points="495.4995,2698.8789,499.4995,2708.8789,503.4995,2698.8789,499.4995,2702.8789" style="stroke:#181818;stroke-width:1;"/><line style="stroke:#181818;stroke-width:1;" x1="499.4995" x2="499.4995" y1="2742.8477" y2="2762.8477"/><polygon fill="#181818" points="495.4995,2752.8477,499.4995,2762.8477,503.4995,2752.8477,499.4995,2756.8477" style="stroke:#181818;stroke-width:1;"/><line style="stroke:#181818;stroke-width:1;" x1="499.4995" x2="499.4995" y1="2796.8164" y2="2816.8164"/><polygon fill="#181818" points="495.4995,2806.8164,499.4995,2816.8164,503.4995,2806.8164,499.4995,2810.8164" style="stroke:#181818;stroke-width:1;"/><line style="stroke:#181818;stroke-width:1;" x1="325.4797" x2="276.1304" y1="2578.9414" y2="2578.9414"/><line style="stroke:#181818;stroke-width:1;" x1="276.1304" x2="276.1304" y1="2578.9414" y2="2600.9414"/><polygon fill="#181818" points="272.1304,2590.9414,276.1304,2600.9414,280.1304,2590.9414,276.1304,2594.9414" style="stroke:#181818;stroke-width:1;"/><line style="stroke:#181818;stroke-width:1;" x1="450.1501" x2="499.4995" y1="2578.9414" y2="2578.9414"/><line style="stroke:#181818;stroke-width:1;" x1="499.4995" x2="499.4995" y1="2578.9414" y2="2600.9414"/><polygon fill="#181818" points="495.4995,2590.9414,499.4995,2600.9414,503.4995,2590.9414,499.4995,2594.9414" style="stroke:#181818;stroke-width:1;"/><line style="stroke:#181818;stroke-width:1;" x1="276.1304" x2="276.1304" y1="2850.7852" y2="2868.7852"/><line style="stroke:#181818;stroke-width:1;" x1="276.1304" x2="375.8149" y1="2868.7852" y2="2868.7852"/><polygon fill="#181818" points="365.8149,2864.7852,375.8149,2868.7852,365.8149,2872.7852,369.8149,2868.7852" style="stroke:#181818;stroke-width:1;"/><line style="stroke:#181818;stroke-width:1;" x1="499.4995" x2="499.4995" y1="2850.7852" y2="2868.7852"/><line style="stroke:#181818;stroke-width:1;" x1="499.4995" x2="399.8149" y1="2868.7852" y2="2868.7852"/><polygon fill="#181818" points="409.8149,2864.7852,399.8149,2868.7852,409.8149,2872.7852,405.8149,2868.7852" style="stroke:#181818;stroke-width:1;"/><line style="stroke:#181818;stroke-width:1;" x1="387.8149" x2="387.8149" y1="2508.6445" y2="2566.9414"/><polygon fill="#181818" points="383.8149,2556.9414,387.8149,2566.9414,391.8149,2556.9414,387.8149,2560.9414" style="stroke:#181818;stroke-width:1;"/><!--SRC=[hLN1Qjj04BtxAwQ2W4sIOhSq1vkaf8b9NUp4935DAAQCfNMy8EsQrRg4bbuBkPL-GtleEOT-GFuaNzAPNSMIR2NqKD-yEs_cpRotepaQAwtK2c9X1elOodaihZ7I1hxK0Df3D0WXHWWJQQ7U18INZGxV78gfLDA0XhbK6Y8DgOY59M2e4mrlUqTlGI-WV_AUmvMs0eoycbdw0z1BKmrtls4gfDKCW0cc0XIwMuiJ4UDWT05qHDUeCDwt2upfLgZ89MCAfrnEeI5ICILQ45KElRkzaY4o8yVih7VKgNsjrURBLaDDHD7qFIRrdNx2M9k-9DJzj-yGpZ2XnAj3gVlUzqs2dmLNpb4YyNz4-f59QEAWqmyvzx57HZ8a2gl8L2VuG6SDqrEX4ObGH1cijdINwDHIv3jKDAUrc1pVgT6Td48zFuBxcr_GsddT03iJ2kgfJ1fkwErY34sWsV7JbjELuM4SBc8q0n59t6dwwN6D2cgm1ysAIfW53RKvuAAkNXNyxWzHTJpYL3o1BN3DoAo5LJF9xUswXqW0MxprgkFl4suoKsJiIgqhDMQQg_NAfBlNSa9FXVH9yOhafZB26CtcFXD6Kc41R-85sLdRsIDpdmiJahuaJzctUGl-7ReEBBqjjKY4qKC-t8QMSyd3A-56ijOOv6sMq7DElFjJ8ifE7hYZKX1UhmMvesLG9a2MRHSyecBsdi1msPPFaEj98GSdn-Uzuz7-ASovIthGvkxM4U3OakZjV3w-FPpNitQtm9FPohXiGQlPt8AcVyjFq0YrOb6bgkV92UVmZPMT8fp4PMaosODT_i5eq3lSF-n2VQC1xYHuNF-dZTa-SCGMHKi5tkONRRY4ZQ1Jgt3T8zKAeR5KC-HzD36eGlqK0g_qWv5a7ClKRqPMlkwlje4NPuBdHeVOFpXikCqZbHM6Ln-TL7YY377fNRRC3tsPqCI1hZgbXwKmezuYo0y8XW5iKYdQjOBJR4BG1ZvQqtePC-OWdflBosqKuPJsvcVbrgpWyAB0ePobyIzCE739XWiiBRwovfU8JWNdFR9A9TiyfF3GV8dAjKCJDpAHVjtpCkccSn7AANtTbflVBHuYPTYaeh9omRA1Mqa5enPc-DXxgDA-NrBSvOHH8YECH3ienMIANFfo-LekSEhIEcv3baKgSYXzcP__DthTqzCJ6FQEJvvLCgkicudn5m00]--></g></svg>