<svg xmlns="http://www.w3.org/2000/svg" xmlns:xlink="http://www.w3.org/1999/xlink" contentStyleType="text/css" data-diagram-type="ACTIVITY" height="2788px" preserveAspectRatio="none" style="width:684px;height:2788px;background:#FFFFFF;" version="1.1" viewBox="0 0 684 2788" width="684px" zoomAndPan="magnify"><defs/><g><rect fill="none" height="507.0156" style="stroke:#000000;stroke-width:1.5;" width="357.3145" x="158.5518" y="11"/><path d="M335.3623,11 L335.3623,20.2969 L325.3623,30.2969 L158.5518,30.2969" fill="none" style="stroke:#000000;stroke-width:1.5;"/><text fill="#000000" font-family="sans-serif" font-size="14" lengthAdjust="spacing" textLength="166.8105" x="161.5518" y="24.9951">lerComandosDaPlanilha</text><rect fill="#F1F1F1" height="33.9688" rx="12.5" ry="12.5" style="stroke:#181818;stroke-width:0.5;" width="326.6504" x="173.8838" y="40.2969"/><text fill="#000000" font-family="sans-serif" font-size="12" lengthAdjust="spacing" textLength="306.6504" x="183.8838" y="61.4355">L&#234; o comando do LED da c&#233;lula M2 da aba "dados"</text><rect fill="#F1F1F1" height="33.9688" rx="12.5" ry="12.5" style="stroke:#181818;stroke-width:0.5;" width="314.2285" x="180.0947" y="94.2656"/><text fill="#000000" font-family="sans-serif" font-size="12" lengthAdjust="spacing" textLength="294.2285" x="190.0947" y="115.4043">Remove espa&#231;os em branco do comando do LED</text><rect fill="#F1F1F1" height="33.9688" rx="12.5" ry="12.5" style="stroke:#181818;stroke-width:0.5;" width="336.8223" x="168.7979" y="148.2344"/><text fill="#000000" font-family="sans-serif" font-size="12" lengthAdjust="spacing" textLength="316.8223" x="178.7979" y="169.373">L&#234; o comando do rel&#233; A da c&#233;lula N2 da aba "dados"</text><rect fill="#F1F1F1" height="33.9688" rx="12.5" ry="12.5" style="stroke:#181818;stroke-width:0.5;" width="325.7773" x="174.3203" y="202.2031"/><text fill="#000000" font-family="sans-serif" font-size="12" lengthAdjust="spacing" textLength="305.7773" x="184.3203" y="223.3418">Remove espa&#231;os em branco do comando do rel&#233; A</text><rect fill="#F1F1F1" height="33.9688" rx="12.5" ry="12.5" style="stroke:#181818;stroke-width:0.5;" width="337.3145" x="168.5518" y="256.1719"/><text fill="#000000" font-family="sans-serif" font-size="12" lengthAdjust="spacing" textLength="317.3145" x="178.5518" y="277.3105">L&#234; o comando do rel&#233; B da c&#233;lula O2 da aba "dados"</text><rect fill="#F1F1F1" height="33.9688" rx="12.5" ry="12.5" style="stroke:#181818;stroke-width:0.5;" width="325.8008" x="174.3086" y="310.1406"/><text fill="#000000" font-family="sans-serif" font-size="12" lengthAdjust="spacing" textLength="305.8008" x="184.3086" y="331.2793">Remove espa&#231;os em branco do comando do rel&#233; B</text><rect fill="#F1F1F1" height="33.9688" rx="12.5" ry="12.5" style="stroke:#181818;stroke-width:0.5;" width="292.7598" x="190.8291" y="364.1094"/><text fill="#000000" font-family="sans-serif" font-size="12" lengthAdjust="spacing" textLength="272.7598" x="200.8291" y="385.248">Imprime no Monitor Serial o comando do LED</text><rect fill="#F1F1F1" height="33.9688" rx="12.5" ry="12.5" style="stroke:#181818;stroke-width:0.5;" width="307.7129" x="183.3525" y="418.0781"/><text fill="#000000" font-family="sans-serif" font-size="12" lengthAdjust="spacing" textLength="287.7129" x="193.3525" y="439.2168">Imprime no Monitor Serial o comando do Rele A</text><rect fill="#F1F1F1" height="33.9688" rx="12.5" ry="12.5" style="stroke:#181818;stroke-width:0.5;" width="307.7363" x="183.3408" y="472.0469"/><text fill="#000000" font-family="sans-serif" font-size="12" lengthAdjust="spacing" textLength="287.7363" x="193.3408" y="493.1855">Imprime no Monitor Serial o comando do Rele B</text><rect fill="none" height="1353.6406" style="stroke:#000000;stroke-width:1.5;" width="564.3252" x="46.5127" y="528.0156"/><path d="M274.668,528.0156 L274.668,537.3125 L264.668,547.3125 L46.5127,547.3125" fill="none" style="stroke:#000000;stroke-width:1.5;"/><text fill="#000000" font-family="sans-serif" font-size="14" lengthAdjust="spacing" textLength="218.1553" x="49.5127" y="542.0107">atualizarValoresPlanilhaNuvem</text><polygon fill="#F1F1F1" points="201.562,564.3125,472.856,564.3125,484.856,576.3125,472.856,588.3125,201.562,588.3125,189.562,576.3125,201.562,564.3125" style="stroke:#181818;stroke-width:0.5;"/><text fill="#000000" font-family="sans-serif" font-size="11" lengthAdjust="spacing" textLength="271.2939" x="201.562" y="580.1206">comando do LED &#233; "1" OU led_teste &#233; verdadeiro</text><text fill="#000000" font-family="sans-serif" font-size="11" lengthAdjust="spacing" textLength="19.5024" x="170.0596" y="573.7183">sim</text><text fill="#000000" font-family="sans-serif" font-size="11" lengthAdjust="spacing" textLength="20.4424" x="484.856" y="573.7183">n&#227;o</text><rect fill="#F1F1F1" height="33.9688" rx="12.5" ry="12.5" style="stroke:#181818;stroke-width:0.5;" width="220.9238" x="69.1001" y="598.3125"/><text fill="#000000" font-family="sans-serif" font-size="12" lengthAdjust="spacing" textLength="200.9238" x="79.1001" y="619.4512">estadoDesejadoLed = verdadeiro</text><rect fill="#F1F1F1" height="33.9688" rx="12.5" ry="12.5" style="stroke:#181818;stroke-width:0.5;" width="184.4316" x="402.6401" y="598.3125"/><text fill="#000000" font-family="sans-serif" font-size="12" lengthAdjust="spacing" textLength="164.4316" x="412.6401" y="619.4512">estadoDesejadoLed = falso</text><polygon fill="#F1F1F1" points="337.209,638.2813,349.209,650.2813,337.209,662.2813,325.209,650.2813,337.209,638.2813" style="stroke:#181818;stroke-width:0.5;"/><polygon fill="#F1F1F1" points="205.4883,682.2813,468.9297,682.2813,480.9297,694.2813,468.9297,706.2813,205.4883,706.2813,193.4883,694.2813,205.4883,682.2813" style="stroke:#181818;stroke-width:0.5;"/><text fill="#000000" font-family="sans-serif" font-size="11" lengthAdjust="spacing" textLength="263.4414" x="205.4883" y="698.0894">comando do Rele A &#233; "1" OU releA &#233; verdadeiro</text><text fill="#000000" font-family="sans-serif" font-size="11" lengthAdjust="spacing" textLength="19.5024" x="173.9858" y="691.687">sim</text><text fill="#000000" font-family="sans-serif" font-size="11" lengthAdjust="spacing" textLength="20.4424" x="480.9297" y="691.687">n&#227;o</text><rect fill="#F1F1F1" height="33.9688" rx="12.5" ry="12.5" style="stroke:#181818;stroke-width:0.5;" width="233.8848" x="66.5459" y="716.2813"/><text fill="#000000" font-family="sans-serif" font-size="12" lengthAdjust="spacing" textLength="213.8848" x="76.5459" y="737.4199">estadoDesejadoReleA = verdadeiro</text><rect fill="#F1F1F1" height="33.9688" rx="12.5" ry="12.5" style="stroke:#181818;stroke-width:0.5;" width="197.3926" x="392.2334" y="716.2813"/><text fill="#000000" font-family="sans-serif" font-size="12" lengthAdjust="spacing" textLength="177.3926" x="402.2334" y="737.4199">estadoDesejadoReleA = falso</text><polygon fill="#F1F1F1" points="337.209,756.25,349.209,768.25,337.209,780.25,325.209,768.25,337.209,756.25" style="stroke:#181818;stroke-width:0.5;"/><polygon fill="#F1F1F1" points="205.4668,800.25,468.9512,800.25,480.9512,812.25,468.9512,824.25,205.4668,824.25,193.4668,812.25,205.4668,800.25" style="stroke:#181818;stroke-width:0.5;"/><text fill="#000000" font-family="sans-serif" font-size="11" lengthAdjust="spacing" textLength="263.4844" x="205.4668" y="816.0581">comando do Rele B &#233; "1" OU releB &#233; verdadeiro</text><text fill="#000000" font-family="sans-serif" font-size="11" lengthAdjust="spacing" textLength="19.5024" x="173.9644" y="809.6558">sim</text><text fill="#000000" font-family="sans-serif" font-size="11" lengthAdjust="spacing" textLength="20.4424" x="480.9512" y="809.6558">n&#227;o</text><rect fill="#F1F1F1" height="33.9688" rx="12.5" ry="12.5" style="stroke:#181818;stroke-width:0.5;" width="233.9082" x="66.5127" y="834.25"/><text fill="#000000" font-family="sans-serif" font-size="12" lengthAdjust="spacing" textLength="213.9082" x="76.5127" y="855.3887">estadoDesejadoReleB = verdadeiro</text><rect fill="#F1F1F1" height="33.9688" rx="12.5" ry="12.5" style="stroke:#181818;stroke-width:0.5;" width="197.416" x="392.2432" y="834.25"/><text fill="#000000" font-family="sans-serif" font-size="12" lengthAdjust="spacing" textLength="177.416" x="402.2432" y="855.3887">estadoDesejadoReleB = falso</text><polygon fill="#F1F1F1" points="337.209,874.2188,349.209,886.2188,337.209,898.2188,325.209,886.2188,337.209,874.2188" style="stroke:#181818;stroke-width:0.5;"/><rect fill="#F1F1F1" height="33.9688" rx="12.5" ry="12.5" style="stroke:#181818;stroke-width:0.5;" width="514.4902" x="79.9639" y="918.2188"/><text fill="#000000" font-family="sans-serif" font-size="12" lengthAdjust="spacing" textLength="494.4902" x="89.9639" y="939.3574">Chama atualizarEstado(ledpin, "Led ESP32", estadoDesejadoLed, estadoLedAtual)</text><rect fill="#F1F1F1" height="33.9688" rx="12.5" ry="12.5" style="stroke:#181818;stroke-width:0.5;" width="527.1641" x="73.627" y="972.1875"/><text fill="#000000" font-family="sans-serif" font-size="12" lengthAdjust="spacing" textLength="507.1641" x="83.627" y="993.3262">Chama atualizarEstado(RELE_PINO_A, "Rele A", estadoDesejadoReleA, estadoReleA)</text><rect fill="#F1F1F1" height="33.9688" rx="12.5" ry="12.5" style="stroke:#181818;stroke-width:0.5;" width="527.2578" x="73.5801" y="1026.1563"/><text fill="#000000" font-family="sans-serif" font-size="12" lengthAdjust="spacing" textLength="507.2578" x="83.5801" y="1047.2949">Chama atualizarEstado(RELE_PINO_B, "Rele B", estadoDesejadoReleB, estadoReleB)</text><rect fill="#F1F1F1" height="33.9688" rx="12.5" ry="12.5" style="stroke:#181818;stroke-width:0.5;" width="184.7422" x="244.8379" y="1080.125"/><text fill="#000000" font-family="sans-serif" font-size="12" lengthAdjust="spacing" textLength="164.7422" x="254.8379" y="1101.2637">temperatura = mediaTemp</text><rect fill="#F1F1F1" height="33.9688" rx="12.5" ry="12.5" style="stroke:#181818;stroke-width:0.5;" width="172.2266" x="251.0957" y="1134.0938"/><text fill="#000000" font-family="sans-serif" font-size="12" lengthAdjust="spacing" textLength="152.2266" x="261.0957" y="1155.2324">umidadeAr = mediaUmid</text><rect fill="#F1F1F1" height="33.9688" rx="12.5" ry="12.5" style="stroke:#181818;stroke-width:0.5;" width="176.1172" x="249.1504" y="1188.0625"/><text fill="#000000" font-family="sans-serif" font-size="12" lengthAdjust="spacing" textLength="156.1172" x="259.1504" y="1209.2012">luminosidade = mediaLuz</text><rect fill="#F1F1F1" height="33.9688" rx="12.5" ry="12.5" style="stroke:#181818;stroke-width:0.5;" width="248.3164" x="213.0508" y="1242.0313"/><text fill="#000000" font-family="sans-serif" font-size="12" lengthAdjust="spacing" textLength="228.3164" x="223.0508" y="1263.1699">umidadeSolo3 = mediasPercentual[3]</text><rect fill="#F1F1F1" height="33.9688" rx="12.5" ry="12.5" style="stroke:#181818;stroke-width:0.5;" width="263.5859" x="205.416" y="1296"/><text fill="#000000" font-family="sans-serif" font-size="12" lengthAdjust="spacing" textLength="243.5859" x="215.416" y="1317.1387">umidadeSolo10 = mediasPercentual[10]</text><rect fill="#F1F1F1" height="33.9688" rx="12.5" ry="12.5" style="stroke:#181818;stroke-width:0.5;" width="263.5859" x="205.416" y="1349.9688"/><text fill="#000000" font-family="sans-serif" font-size="12" lengthAdjust="spacing" textLength="243.5859" x="215.416" y="1371.1074">umidadeSolo14 = mediasPercentual[14]</text><rect fill="#F1F1F1" height="33.9688" rx="12.5" ry="12.5" style="stroke:#181818;stroke-width:0.5;" width="191.1875" x="241.6152" y="1403.9375"/><text fill="#000000" font-family="sans-serif" font-size="12" lengthAdjust="spacing" textLength="171.1875" x="251.6152" y="1425.0762">Chama onLedTesteChange()</text><rect fill="#F1F1F1" height="33.9688" rx="12.5" ry="12.5" style="stroke:#181818;stroke-width:0.5;" width="171.0957" x="251.6611" y="1457.9063"/><text fill="#000000" font-family="sans-serif" font-size="12" lengthAdjust="spacing" textLength="151.0957" x="261.6611" y="1479.0449">Chama onReleAChange()</text><rect fill="#F1F1F1" height="33.9688" rx="12.5" ry="12.5" style="stroke:#181818;stroke-width:0.5;" width="171.1191" x="251.6494" y="1511.875"/><text fill="#000000" font-family="sans-serif" font-size="12" lengthAdjust="spacing" textLength="151.1191" x="261.6494" y="1533.0137">Chama onReleBChange()</text><rect fill="#F1F1F1" height="33.9688" rx="12.5" ry="12.5" style="stroke:#181818;stroke-width:0.5;" width="257.4922" x="208.4629" y="1565.8438"/><text fill="#000000" font-family="sans-serif" font-size="12" lengthAdjust="spacing" textLength="237.4922" x="218.4629" y="1586.9824">Chama onTemperaturaNuvemChange()</text><rect fill="#F1F1F1" height="33.9688" rx="12.5" ry="12.5" style="stroke:#181818;stroke-width:0.5;" width="232.9824" x="220.7178" y="1619.8125"/><text fill="#000000" font-family="sans-serif" font-size="12" lengthAdjust="spacing" textLength="212.9824" x="230.7178" y="1640.9512">Chama onUmidadeNuvemChange()</text><rect fill="#F1F1F1" height="33.9688" rx="12.5" ry="12.5" style="stroke:#181818;stroke-width:0.5;" width="263.0234" x="205.6973" y="1673.7813"/><text fill="#000000" font-family="sans-serif" font-size="12" lengthAdjust="spacing" textLength="243.0234" x="215.6973" y="1694.9199">Chama onLuminosidadeNuvemChange()</text><rect fill="#F1F1F1" height="33.9688" rx="12.5" ry="12.5" style="stroke:#181818;stroke-width:0.5;" width="266.252" x="204.083" y="1727.75"/><text fill="#000000" font-family="sans-serif" font-size="12" lengthAdjust="spacing" textLength="246.252" x="214.083" y="1748.8887">Chama onUmidadeSoloNuvem3Change()</text><rect fill="#F1F1F1" height="33.9688" rx="12.5" ry="12.5" style="stroke:#181818;stroke-width:0.5;" width="273.8867" x="200.2656" y="1781.7188"/><text fill="#000000" font-family="sans-serif" font-size="12" lengthAdjust="spacing" textLength="253.8867" x="210.2656" y="1802.8574">Chama onUmidadeSoloNuvem10Change()</text><rect fill="#F1F1F1" height="33.9688" rx="12.5" ry="12.5" style="stroke:#181818;stroke-width:0.5;" width="273.8867" x="200.2656" y="1835.6875"/><text fill="#000000" font-family="sans-serif" font-size="12" lengthAdjust="spacing" textLength="253.8867" x="210.2656" y="1856.8262">Chama onUmidadeSoloNuvem14Change()</text><rect fill="none" height="254.2031" style="stroke:#000000;stroke-width:1.5;" width="662.1797" x="11" y="1891.6563"/><path d="M129.6436,1891.6563 L129.6436,1900.9531 L119.6436,1910.9531 L11,1910.9531" fill="none" style="stroke:#000000;stroke-width:1.5;"/><text fill="#000000" font-family="sans-serif" font-size="14" lengthAdjust="spacing" textLength="108.6436" x="14" y="1905.6514">atualizarEstado</text><polygon fill="#F1F1F1" points="256.2827,1927.9531,418.1353,1927.9531,430.1353,1939.9531,418.1353,1951.9531,256.2827,1951.9531,244.2827,1939.9531,256.2827,1927.9531" style="stroke:#181818;stroke-width:0.5;"/><text fill="#000000" font-family="sans-serif" font-size="11" lengthAdjust="spacing" textLength="161.8525" x="256.2827" y="1943.7612">estadoDesejado &#233; verdadeiro</text><text fill="#000000" font-family="sans-serif" font-size="11" lengthAdjust="spacing" textLength="19.5024" x="224.7803" y="1937.3589">sim</text><text fill="#000000" font-family="sans-serif" font-size="11" lengthAdjust="spacing" textLength="20.4424" x="430.1353" y="1937.3589">n&#227;o</text><rect fill="#F1F1F1" height="33.9688" rx="12.5" ry="12.5" style="stroke:#181818;stroke-width:0.5;" width="214.5371" x="65.3955" y="1961.9531"/><text fill="#000000" font-family="sans-serif" font-size="12" lengthAdjust="spacing" textLength="194.5371" x="75.3955" y="1983.0918">Define o pino como HIGH (ativo)</text><rect fill="#F1F1F1" height="33.9688" rx="12.5" ry="12.5" style="stroke:#181818;stroke-width:0.5;" width="260.7148" x="42.3066" y="2015.9219"/><text fill="#000000" font-family="sans-serif" font-size="12" lengthAdjust="spacing" textLength="240.7148" x="52.3066" y="2037.0605">Atualiza a vari&#225;vel estadoAtual para 1.0</text><rect fill="#F1F1F1" height="33.9688" rx="12.5" ry="12.5" style="stroke:#181818;stroke-width:0.5;" width="299.3281" x="23" y="2069.8906"/><text fill="#000000" font-family="sans-serif" font-size="12" lengthAdjust="spacing" textLength="279.3281" x="33" y="2091.0293">Imprime no Serial que o atuador est&#225; "Ligado"</text><rect fill="#F1F1F1" height="33.9688" rx="12.5" ry="12.5" style="stroke:#181818;stroke-width:0.5;" width="239.6621" x="381.9229" y="1961.9531"/><text fill="#000000" font-family="sans-serif" font-size="12" lengthAdjust="spacing" textLength="219.6621" x="391.9229" y="1983.0918">Define o pino como LOW (desligado)</text><rect fill="#F1F1F1" height="33.9688" rx="12.5" ry="12.5" style="stroke:#181818;stroke-width:0.5;" width="260.7148" x="371.3965" y="2015.9219"/><text fill="#000000" font-family="sans-serif" font-size="12" lengthAdjust="spacing" textLength="240.7148" x="381.3965" y="2037.0605">Atualiza a vari&#225;vel estadoAtual para 0.0</text><rect fill="#F1F1F1" height="33.9688" rx="12.5" ry="12.5" style="stroke:#181818;stroke-width:0.5;" width="318.8516" x="342.3281" y="2069.8906"/><text fill="#000000" font-family="sans-serif" font-size="12" lengthAdjust="spacing" textLength="298.8516" x="352.3281" y="2091.0293">Imprime no Serial que o atuador est&#225; "Desligado"</text><polygon fill="#F1F1F1" points="337.209,2109.8594,349.209,2121.8594,337.209,2133.8594,325.209,2121.8594,337.209,2109.8594" style="stroke:#181818;stroke-width:0.5;"/><rect fill="none" height="621.9531" style="stroke:#000000;stroke-width:1.5;" width="366.209" x="154.1045" y="2155.8594"/><path d="M323.2451,2155.8594 L323.2451,2165.1563 L313.2451,2175.1563 L154.1045,2175.1563" fill="none" style="stroke:#000000;stroke-width:1.5;"/><text fill="#000000" font-family="sans-serif" font-size="14" lengthAdjust="spacing" textLength="159.1406" x="157.1045" y="2169.8545">registrarDadosPlanilha</text><rect fill="#F1F1F1" height="33.9688" rx="12.5" ry="12.5" style="stroke:#181818;stroke-width:0.5;" width="201.0605" x="236.6787" y="2192.1563"/><text fill="#000000" font-family="sans-serif" font-size="12" lengthAdjust="spacing" textLength="181.0605" x="246.6787" y="2213.2949">Cria vetor dadosParaEnviar[9]</text><rect fill="#F1F1F1" height="33.9688" rx="12.5" ry="12.5" style="stroke:#181818;stroke-width:0.5;" width="249.1953" x="212.6113" y="2246.125"/><text fill="#000000" font-family="sans-serif" font-size="12" lengthAdjust="spacing" textLength="229.1953" x="222.6113" y="2267.2637">dadosParaEnviar[0] = estadoLedAtual</text><rect fill="#F1F1F1" height="33.9688" rx="12.5" ry="12.5" style="stroke:#181818;stroke-width:0.5;" width="230.9492" x="221.7344" y="2300.0938"/><text fill="#000000" font-family="sans-serif" font-size="12" lengthAdjust="spacing" textLength="210.9492" x="231.7344" y="2321.2324">dadosParaEnviar[1] = estadoReleA</text><rect fill="#F1F1F1" height="33.9688" rx="12.5" ry="12.5" style="stroke:#181818;stroke-width:0.5;" width="230.9727" x="221.7227" y="2354.0625"/><text fill="#000000" font-family="sans-serif" font-size="12" lengthAdjust="spacing" textLength="210.9727" x="231.7227" y="2375.2012">dadosParaEnviar[2] = estadoReleB</text><rect fill="#F1F1F1" height="33.9688" rx="12.5" ry="12.5" style="stroke:#181818;stroke-width:0.5;" width="231.3125" x="221.5527" y="2408.0313"/><text fill="#000000" font-family="sans-serif" font-size="12" lengthAdjust="spacing" textLength="211.3125" x="231.5527" y="2429.1699">dadosParaEnviar[3] = temperatura</text><rect fill="#F1F1F1" height="33.9688" rx="12.5" ry="12.5" style="stroke:#181818;stroke-width:0.5;" width="221.3926" x="226.5127" y="2462"/><text fill="#000000" font-family="sans-serif" font-size="12" lengthAdjust="spacing" textLength="201.3926" x="236.5127" y="2483.1387">dadosParaEnviar[4] = umidadeAr</text><rect fill="#F1F1F1" height="33.9688" rx="12.5" ry="12.5" style="stroke:#181818;stroke-width:0.5;" width="236.1172" x="219.1504" y="2515.9688"/><text fill="#000000" font-family="sans-serif" font-size="12" lengthAdjust="spacing" textLength="216.1172" x="229.1504" y="2537.1074">dadosParaEnviar[5] = luminosidade</text><rect fill="#F1F1F1" height="33.9688" rx="12.5" ry="12.5" style="stroke:#181818;stroke-width:0.5;" width="241.5195" x="216.4492" y="2569.9375"/><text fill="#000000" font-family="sans-serif" font-size="12" lengthAdjust="spacing" textLength="221.5195" x="226.4492" y="2591.0762">dadosParaEnviar[6] = umidadeSolo3</text><rect fill="#F1F1F1" height="33.9688" rx="12.5" ry="12.5" style="stroke:#181818;stroke-width:0.5;" width="249.1543" x="212.6318" y="2623.9063"/><text fill="#000000" font-family="sans-serif" font-size="12" lengthAdjust="spacing" textLength="229.1543" x="222.6318" y="2645.0449">dadosParaEnviar[7] = umidadeSolo10</text><rect fill="#F1F1F1" height="33.9688" rx="12.5" ry="12.5" style="stroke:#181818;stroke-width:0.5;" width="249.1543" x="212.6318" y="2677.875"/><text fill="#000000" font-family="sans-serif" font-size="12" lengthAdjust="spacing" textLength="229.1543" x="222.6318" y="2699.0137">dadosParaEnviar[8] = umidadeSolo14</text><rect fill="#F1F1F1" height="33.9688" rx="12.5" ry="12.5" style="stroke:#181818;stroke-width:0.5;" width="346.209" x="164.1045" y="2731.8438"/><text fill="#000000" font-family="sans-serif" font-size="12" lengthAdjust="spacing" textLength="326.209" x="174.1045" y="2752.9824">Chama escreverEmLista("dados", 9, dadosParaEnviar)</text><line style="stroke:#181818;stroke-width:1;" x1="337.209" x2="337.209" y1="74.2656" y2="94.2656"/><polygon fill="#181818" points="333.209,84.2656,337.209,94.2656,341.209,84.2656,337.209,88.2656" style="stroke:#181818;stroke-width:1;"/><line style="stroke:#181818;stroke-width:1;" x1="337.209" x2="337.209" y1="128.2344" y2="148.2344"/><polygon fill="#181818" points="333.209,138.2344,337.209,148.2344,341.209,138.2344,337.209,142.2344" style="stroke:#181818;stroke-width:1;"/><line style="stroke:#181818;stroke-width:1;" x1="337.209" x2="337.209" y1="182.2031" y2="202.2031"/><polygon fill="#181818" points="333.209,192.2031,337.209,202.2031,341.209,192.2031,337.209,196.2031" style="stroke:#181818;stroke-width:1;"/><line style="stroke:#181818;stroke-width:1;" x1="337.209" x2="337.209" y1="236.1719" y2="256.1719"/><polygon fill="#181818" points="333.209,246.1719,337.209,256.1719,341.209,246.1719,337.209,250.1719" style="stroke:#181818;stroke-width:1;"/><line style="stroke:#181818;stroke-width:1;" x1="337.209" x2="337.209" y1="290.1406" y2="310.1406"/><polygon fill="#181818" points="333.209,300.1406,337.209,310.1406,341.209,300.1406,337.209,304.1406" style="stroke:#181818;stroke-width:1;"/><line style="stroke:#181818;stroke-width:1;" x1="337.209" x2="337.209" y1="344.1094" y2="364.1094"/><polygon fill="#181818" points="333.209,354.1094,337.209,364.1094,341.209,354.1094,337.209,358.1094" style="stroke:#181818;stroke-width:1;"/><line style="stroke:#181818;stroke-width:1;" x1="337.209" x2="337.209" y1="398.0781" y2="418.0781"/><polygon fill="#181818" points="333.209,408.0781,337.209,418.0781,341.209,408.0781,337.209,412.0781" style="stroke:#181818;stroke-width:1;"/><line style="stroke:#181818;stroke-width:1;" x1="337.209" x2="337.209" y1="452.0469" y2="472.0469"/><polygon fill="#181818" points="333.209,462.0469,337.209,472.0469,341.209,462.0469,337.209,466.0469" style="stroke:#181818;stroke-width:1;"/><line style="stroke:#181818;stroke-width:1;" x1="189.562" x2="179.562" y1="576.3125" y2="576.3125"/><line style="stroke:#181818;stroke-width:1;" x1="179.562" x2="179.562" y1="576.3125" y2="598.3125"/><polygon fill="#181818" points="175.562,588.3125,179.562,598.3125,183.562,588.3125,179.562,592.3125" style="stroke:#181818;stroke-width:1;"/><line style="stroke:#181818;stroke-width:1;" x1="484.856" x2="494.856" y1="576.3125" y2="576.3125"/><line style="stroke:#181818;stroke-width:1;" x1="494.856" x2="494.856" y1="576.3125" y2="598.3125"/><polygon fill="#181818" points="490.856,588.3125,494.856,598.3125,498.856,588.3125,494.856,592.3125" style="stroke:#181818;stroke-width:1;"/><line style="stroke:#181818;stroke-width:1;" x1="179.562" x2="179.562" y1="632.2813" y2="650.2813"/><line style="stroke:#181818;stroke-width:1;" x1="179.562" x2="325.209" y1="650.2813" y2="650.2813"/><polygon fill="#181818" points="315.209,646.2813,325.209,650.2813,315.209,654.2813,319.209,650.2813" style="stroke:#181818;stroke-width:1;"/><line style="stroke:#181818;stroke-width:1;" x1="494.856" x2="494.856" y1="632.2813" y2="650.2813"/><line style="stroke:#181818;stroke-width:1;" x1="494.856" x2="349.209" y1="650.2813" y2="650.2813"/><polygon fill="#181818" points="359.209,646.2813,349.209,650.2813,359.209,654.2813,355.209,650.2813" style="stroke:#181818;stroke-width:1;"/><line style="stroke:#181818;stroke-width:1;" x1="193.4883" x2="183.4883" y1="694.2813" y2="694.2813"/><line style="stroke:#181818;stroke-width:1;" x1="183.4883" x2="183.4883" y1="694.2813" y2="716.2813"/><polygon fill="#181818" points="179.4883,706.2813,183.4883,716.2813,187.4883,706.2813,183.4883,710.2813" style="stroke:#181818;stroke-width:1;"/><line style="stroke:#181818;stroke-width:1;" x1="480.9297" x2="490.9297" y1="694.2813" y2="694.2813"/><line style="stroke:#181818;stroke-width:1;" x1="490.9297" x2="490.9297" y1="694.2813" y2="716.2813"/><polygon fill="#181818" points="486.9297,706.2813,490.9297,716.2813,494.9297,706.2813,490.9297,710.2813" style="stroke:#181818;stroke-width:1;"/><line style="stroke:#181818;stroke-width:1;" x1="183.4883" x2="183.4883" y1="750.25" y2="768.25"/><line style="stroke:#181818;stroke-width:1;" x1="183.4883" x2="325.209" y1="768.25" y2="768.25"/><polygon fill="#181818" points="315.209,764.25,325.209,768.25,315.209,772.25,319.209,768.25" style="stroke:#181818;stroke-width:1;"/><line style="stroke:#181818;stroke-width:1;" x1="490.9297" x2="490.9297" y1="750.25" y2="768.25"/><line style="stroke:#181818;stroke-width:1;" x1="490.9297" x2="349.209" y1="768.25" y2="768.25"/><polygon fill="#181818" points="359.209,764.25,349.209,768.25,359.209,772.25,355.209,768.25" style="stroke:#181818;stroke-width:1;"/><line style="stroke:#181818;stroke-width:1;" x1="337.209" x2="337.209" y1="662.2813" y2="682.2813"/><polygon fill="#181818" points="333.209,672.2813,337.209,682.2813,341.209,672.2813,337.209,676.2813" style="stroke:#181818;stroke-width:1;"/><line style="stroke:#181818;stroke-width:1;" x1="193.4668" x2="183.4668" y1="812.25" y2="812.25"/><line style="stroke:#181818;stroke-width:1;" x1="183.4668" x2="183.4668" y1="812.25" y2="834.25"/><polygon fill="#181818" points="179.4668,824.25,183.4668,834.25,187.4668,824.25,183.4668,828.25" style="stroke:#181818;stroke-width:1;"/><line style="stroke:#181818;stroke-width:1;" x1="480.9512" x2="490.9512" y1="812.25" y2="812.25"/><line style="stroke:#181818;stroke-width:1;" x1="490.9512" x2="490.9512" y1="812.25" y2="834.25"/><polygon fill="#181818" points="486.9512,824.25,490.9512,834.25,494.9512,824.25,490.9512,828.25" style="stroke:#181818;stroke-width:1;"/><line style="stroke:#181818;stroke-width:1;" x1="183.4668" x2="183.4668" y1="868.2188" y2="886.2188"/><line style="stroke:#181818;stroke-width:1;" x1="183.4668" x2="325.209" y1="886.2188" y2="886.2188"/><polygon fill="#181818" points="315.209,882.2188,325.209,886.2188,315.209,890.2188,319.209,886.2188" style="stroke:#181818;stroke-width:1;"/><line style="stroke:#181818;stroke-width:1;" x1="490.9512" x2="490.9512" y1="868.2188" y2="886.2188"/><line style="stroke:#181818;stroke-width:1;" x1="490.9512" x2="349.209" y1="886.2188" y2="886.2188"/><polygon fill="#181818" points="359.209,882.2188,349.209,886.2188,359.209,890.2188,355.209,886.2188" style="stroke:#181818;stroke-width:1;"/><line style="stroke:#181818;stroke-width:1;" x1="337.209" x2="337.209" y1="780.25" y2="800.25"/><polygon fill="#181818" points="333.209,790.25,337.209,800.25,341.209,790.25,337.209,794.25" style="stroke:#181818;stroke-width:1;"/><line style="stroke:#181818;stroke-width:1;" x1="337.209" x2="337.209" y1="898.2188" y2="918.2188"/><polygon fill="#181818" points="333.209,908.2188,337.209,918.2188,341.209,908.2188,337.209,912.2188" style="stroke:#181818;stroke-width:1;"/><line style="stroke:#181818;stroke-width:1;" x1="337.209" x2="337.209" y1="952.1875" y2="972.1875"/><polygon fill="#181818" points="333.209,962.1875,337.209,972.1875,341.209,962.1875,337.209,966.1875" style="stroke:#181818;stroke-width:1;"/><line style="stroke:#181818;stroke-width:1;" x1="337.209" x2="337.209" y1="1006.1563" y2="1026.1563"/><polygon fill="#181818" points="333.209,1016.1563,337.209,1026.1563,341.209,1016.1563,337.209,1020.1563" style="stroke:#181818;stroke-width:1;"/><line style="stroke:#181818;stroke-width:1;" x1="337.209" x2="337.209" y1="1060.125" y2="1080.125"/><polygon fill="#181818" points="333.209,1070.125,337.209,1080.125,341.209,1070.125,337.209,1074.125" style="stroke:#181818;stroke-width:1;"/><line style="stroke:#181818;stroke-width:1;" x1="337.209" x2="337.209" y1="1114.0938" y2="1134.0938"/><polygon fill="#181818" points="333.209,1124.0938,337.209,1134.0938,341.209,1124.0938,337.209,1128.0938" style="stroke:#181818;stroke-width:1;"/><line style="stroke:#181818;stroke-width:1;" x1="337.209" x2="337.209" y1="1168.0625" y2="1188.0625"/><polygon fill="#181818" points="333.209,1178.0625,337.209,1188.0625,341.209,1178.0625,337.209,1182.0625" style="stroke:#181818;stroke-width:1;"/><line style="stroke:#181818;stroke-width:1;" x1="337.209" x2="337.209" y1="1222.0313" y2="1242.0313"/><polygon fill="#181818" points="333.209,1232.0313,337.209,1242.0313,341.209,1232.0313,337.209,1236.0313" style="stroke:#181818;stroke-width:1;"/><line style="stroke:#181818;stroke-width:1;" x1="337.209" x2="337.209" y1="1276" y2="1296"/><polygon fill="#181818" points="333.209,1286,337.209,1296,341.209,1286,337.209,1290" style="stroke:#181818;stroke-width:1;"/><line style="stroke:#181818;stroke-width:1;" x1="337.209" x2="337.209" y1="1329.9688" y2="1349.9688"/><polygon fill="#181818" points="333.209,1339.9688,337.209,1349.9688,341.209,1339.9688,337.209,1343.9688" style="stroke:#181818;stroke-width:1;"/><line style="stroke:#181818;stroke-width:1;" x1="337.209" x2="337.209" y1="1383.9375" y2="1403.9375"/><polygon fill="#181818" points="333.209,1393.9375,337.209,1403.9375,341.209,1393.9375,337.209,1397.9375" style="stroke:#181818;stroke-width:1;"/><line style="stroke:#181818;stroke-width:1;" x1="337.209" x2="337.209" y1="1437.9063" y2="1457.9063"/><polygon fill="#181818" points="333.209,1447.9063,337.209,1457.9063,341.209,1447.9063,337.209,1451.9063" style="stroke:#181818;stroke-width:1;"/><line style="stroke:#181818;stroke-width:1;" x1="337.209" x2="337.209" y1="1491.875" y2="1511.875"/><polygon fill="#181818" points="333.209,1501.875,337.209,1511.875,341.209,1501.875,337.209,1505.875" style="stroke:#181818;stroke-width:1;"/><line style="stroke:#181818;stroke-width:1;" x1="337.209" x2="337.209" y1="1545.8438" y2="1565.8438"/><polygon fill="#181818" points="333.209,1555.8438,337.209,1565.8438,341.209,1555.8438,337.209,1559.8438" style="stroke:#181818;stroke-width:1;"/><line style="stroke:#181818;stroke-width:1;" x1="337.209" x2="337.209" y1="1599.8125" y2="1619.8125"/><polygon fill="#181818" points="333.209,1609.8125,337.209,1619.8125,341.209,1609.8125,337.209,1613.8125" style="stroke:#181818;stroke-width:1;"/><line style="stroke:#181818;stroke-width:1;" x1="337.209" x2="337.209" y1="1653.7813" y2="1673.7813"/><polygon fill="#181818" points="333.209,1663.7813,337.209,1673.7813,341.209,1663.7813,337.209,1667.7813" style="stroke:#181818;stroke-width:1;"/><line style="stroke:#181818;stroke-width:1;" x1="337.209" x2="337.209" y1="1707.75" y2="1727.75"/><polygon fill="#181818" points="333.209,1717.75,337.209,1727.75,341.209,1717.75,337.209,1721.75" style="stroke:#181818;stroke-width:1;"/><line style="stroke:#181818;stroke-width:1;" x1="337.209" x2="337.209" y1="1761.7188" y2="1781.7188"/><polygon fill="#181818" points="333.209,1771.7188,337.209,1781.7188,341.209,1771.7188,337.209,1775.7188" style="stroke:#181818;stroke-width:1;"/><line style="stroke:#181818;stroke-width:1;" x1="337.209" x2="337.209" y1="1815.6875" y2="1835.6875"/><polygon fill="#181818" points="333.209,1825.6875,337.209,1835.6875,341.209,1825.6875,337.209,1829.6875" style="stroke:#181818;stroke-width:1;"/><line style="stroke:#181818;stroke-width:1;" x1="337.209" x2="337.209" y1="506.0156" y2="564.3125"/><polygon fill="#181818" points="333.209,554.3125,337.209,564.3125,341.209,554.3125,337.209,558.3125" style="stroke:#181818;stroke-width:1;"/><line style="stroke:#181818;stroke-width:1;" x1="172.6641" x2="172.6641" y1="1995.9219" y2="2015.9219"/><polygon fill="#181818" points="168.6641,2005.9219,172.6641,2015.9219,176.6641,2005.9219,172.6641,2009.9219" style="stroke:#181818;stroke-width:1;"/><line style="stroke:#181818;stroke-width:1;" x1="172.6641" x2="172.6641" y1="2049.8906" y2="2069.8906"/><polygon fill="#181818" points="168.6641,2059.8906,172.6641,2069.8906,176.6641,2059.8906,172.6641,2063.8906" style="stroke:#181818;stroke-width:1;"/><line style="stroke:#181818;stroke-width:1;" x1="501.7539" x2="501.7539" y1="1995.9219" y2="2015.9219"/><polygon fill="#181818" points="497.7539,2005.9219,501.7539,2015.9219,505.7539,2005.9219,501.7539,2009.9219" style="stroke:#181818;stroke-width:1;"/><line style="stroke:#181818;stroke-width:1;" x1="501.7539" x2="501.7539" y1="2049.8906" y2="2069.8906"/><polygon fill="#181818" points="497.7539,2059.8906,501.7539,2069.8906,505.7539,2059.8906,501.7539,2063.8906" style="stroke:#181818;stroke-width:1;"/><line style="stroke:#181818;stroke-width:1;" x1="244.2827" x2="172.6641" y1="1939.9531" y2="1939.9531"/><line style="stroke:#181818;stroke-width:1;" x1="172.6641" x2="172.6641" y1="1939.9531" y2="1961.9531"/><polygon fill="#181818" points="168.6641,1951.9531,172.6641,1961.9531,176.6641,1951.9531,172.6641,1955.9531" style="stroke:#181818;stroke-width:1;"/><line style="stroke:#181818;stroke-width:1;" x1="430.1353" x2="501.7539" y1="1939.9531" y2="1939.9531"/><line style="stroke:#181818;stroke-width:1;" x1="501.7539" x2="501.7539" y1="1939.9531" y2="1961.9531"/><polygon fill="#181818" points="497.7539,1951.9531,501.7539,1961.9531,505.7539,1951.9531,501.7539,1955.9531" style="stroke:#181818;stroke-width:1;"/><line style="stroke:#181818;stroke-width:1;" x1="172.6641" x2="172.6641" y1="2103.8594" y2="2121.8594"/><line style="stroke:#181818;stroke-width:1;" x1="172.6641" x2="325.209" y1="2121.8594" y2="2121.8594"/><polygon fill="#181818" points="315.209,2117.8594,325.209,2121.8594,315.209,2125.8594,319.209,2121.8594" style="stroke:#181818;stroke-width:1;"/><line style="stroke:#181818;stroke-width:1;" x1="501.7539" x2="501.7539" y1="2103.8594" y2="2121.8594"/><line style="stroke:#181818;stroke-width:1;" x1="501.7539" x2="349.209" y1="2121.8594" y2="2121.8594"/><polygon fill="#181818" points="359.209,2117.8594,349.209,2121.8594,359.209,2125.8594,355.209,2121.8594" style="stroke:#181818;stroke-width:1;"/><line style="stroke:#181818;stroke-width:1;" x1="337.209" x2="337.209" y1="1869.6563" y2="1927.9531"/><polygon fill="#181818" points="333.209,1917.9531,337.209,1927.9531,341.209,1917.9531,337.209,1921.9531" style="stroke:#181818;stroke-width:1;"/><line style="stroke:#181818;stroke-width:1;" x1="337.209" x2="337.209" y1="2226.125" y2="2246.125"/><polygon fill="#181818" points="333.209,2236.125,337.209,2246.125,341.209,2236.125,337.209,2240.125" style="stroke:#181818;stroke-width:1;"/><line style="stroke:#181818;stroke-width:1;" x1="337.209" x2="337.209" y1="2280.0938" y2="2300.0938"/><polygon fill="#181818" points="333.209,2290.0938,337.209,2300.0938,341.209,2290.0938,337.209,2294.0938" style="stroke:#181818;stroke-width:1;"/><line style="stroke:#181818;stroke-width:1;" x1="337.209" x2="337.209" y1="2334.0625" y2="2354.0625"/><polygon fill="#181818" points="333.209,2344.0625,337.209,2354.0625,341.209,2344.0625,337.209,2348.0625" style="stroke:#181818;stroke-width:1;"/><line style="stroke:#181818;stroke-width:1;" x1="337.209" x2="337.209" y1="2388.0313" y2="2408.0313"/><polygon fill="#181818" points="333.209,2398.0313,337.209,2408.0313,341.209,2398.0313,337.209,2402.0313" style="stroke:#181818;stroke-width:1;"/><line style="stroke:#181818;stroke-width:1;" x1="337.209" x2="337.209" y1="2442" y2="2462"/><polygon fill="#181818" points="333.209,2452,337.209,2462,341.209,2452,337.209,2456" style="stroke:#181818;stroke-width:1;"/><line style="stroke:#181818;stroke-width:1;" x1="337.209" x2="337.209" y1="2495.9688" y2="2515.9688"/><polygon fill="#181818" points="333.209,2505.9688,337.209,2515.9688,341.209,2505.9688,337.209,2509.9688" style="stroke:#181818;stroke-width:1;"/><line style="stroke:#181818;stroke-width:1;" x1="337.209" x2="337.209" y1="2549.9375" y2="2569.9375"/><polygon fill="#181818" points="333.209,2559.9375,337.209,2569.9375,341.209,2559.9375,337.209,2563.9375" style="stroke:#181818;stroke-width:1;"/><line style="stroke:#181818;stroke-width:1;" x1="337.209" x2="337.209" y1="2603.9063" y2="2623.9063"/><polygon fill="#181818" points="333.209,2613.9063,337.209,2623.9063,341.209,2613.9063,337.209,2617.9063" style="stroke:#181818;stroke-width:1;"/><line style="stroke:#181818;stroke-width:1;" x1="337.209" x2="337.209" y1="2657.875" y2="2677.875"/><polygon fill="#181818" points="333.209,2667.875,337.209,2677.875,341.209,2667.875,337.209,2671.875" style="stroke:#181818;stroke-width:1;"/><line style="stroke:#181818;stroke-width:1;" x1="337.209" x2="337.209" y1="2711.8438" y2="2731.8438"/><polygon fill="#181818" points="333.209,2721.8438,337.209,2731.8438,341.209,2721.8438,337.209,2725.8438" style="stroke:#181818;stroke-width:1;"/><line style="stroke:#181818;stroke-width:1;" x1="337.209" x2="337.209" y1="2133.8594" y2="2192.1563"/><polygon fill="#181818" points="333.209,2182.1563,337.209,2192.1563,341.209,2182.1563,337.209,2186.1563" style="stroke:#181818;stroke-width:1;"/><!--SRC=[hLRDRXen4Bxp5AEzP96Y2WBzIL0FR41Df4r096aFKHGvx92ushMflN18rOU9UgZIrzWNwzYx6nPm4cWhSS2URtuyy_dpJfbAUSgbW1ZLeKoOYAJkiM7C18_l67ol0Ho4sM-GCCwjGB-mtuE8mJXxZ6SnWvCzis8t3Bo8aR_NCLuZJEGS0VMKPR-a1apWHZ4njX6MWtLgpZGAu-mHkjLKf_-KgWZuOhgWccxm7z85URhZPAfuWY0ad4Z1KwdW31LdCQntOtFu26Cq1zhIWshwKQjDduRFqXcB-JrJdrai5Ufo_gUpEHtEa62dXocgX0j6uL2dp4H3ZL_PWX98VtH-Qdr0Fdm2_Wfhg1zUquF11V4jkauf49gzEIhgBt8bwv3UeG1VywHE8UXSUR9UaIl423vMyERe66i4NsG_vGik4nRh72qYFgcjbvUtib8X7GIxsrKtiYvRrbSwRLPXi59Xi7s5mTzK63WhtEaMp2aueIq539qYmoF3WeF3EvQm1SNw5kZJ_ATSx89dnjC_6xRsl5rO6rovHNzjfdhd-OYZVjY_7XwV3gwx53OVvrfCs-noqous2ncK8GDdoA0QCgXtbdipPufd3tFasjn4O1gIx37YBEyKpzkKOZ95HHkAKQiJ9FivRTdgPWatq-ggqd916zOIaqb8RSsbCPpTLxtEP2nRfKqFKOrHcCekMrUhi6R3XMisre5j9x1zbP-yB-QSWPLC89MXne8mKbBXWnGqqtCZ0BGMj-XNvo257Sspbi1fELzqq0gN4tIH7-9vG5ZfwAjXJ2yigBKHgjdO3DPUmDmwdVFJAhCHYML2lgO8FPnmWQJZT07jso3XwFZJ4VWivNDfIoFK4tiN_8qBabjJFjZccqQ1hxm_nRlpRMQI569WNBC7kkxybfQUKtKSXOM3B-3JGnDRj-rgQsnRMw_Cuor4Rgd_2c-vJXLJFKFjvQ-aGufBRJVlhYN-a4gmzq1TxkVtPtMxSKMNQ5dVdBZc0cUlXHEqjmmAdA2M0LM4nWbg6z2JuZWXRmsaAZrErBjA82j2JjJx5LIpuOHzM8Mry- -g_0wX7YiaplUJa0R4_E9pRHVsTrUdOUxK7m00]--></g></svg>