<svg xmlns="http://www.w3.org/2000/svg" xmlns:xlink="http://www.w3.org/1999/xlink" contentStyleType="text/css" data-diagram-type="CLASS" height="718px" preserveAspectRatio="none" style="width:2102px;height:718px;background:#FFFFFF;" version="1.1" viewBox="0 0 2102 718" width="2102px" zoomAndPan="magnify"><title>Modelo de Classes de Projeto - Irriga&#231;&#227;o Automatizada</title><defs/><g><g class="title" data-source-line="1"><text fill="#000000" font-family="sans-serif" font-size="14" font-weight="bold" lengthAdjust="spacing" textLength="433.2002" x="827.6071" y="22.9951">Modelo de Classes de Projeto - Irriga&#231;&#227;o Automatizada</text></g><!--class SensorUmidade--><g class="entity" data-entity="SensorUmidade" data-source-line="8" data-uid="ent0002" id="entity_SensorUmidade"><rect fill="#F1F1F1" height="96.8906" rx="2.5" ry="2.5" style="stroke:#181818;stroke-width:0.5;" width="142.7285" x="46.63" y="291.5169"/><ellipse cx="61.63" cy="307.5169" fill="#ADD1B2" rx="11" ry="11" style="stroke:#181818;stroke-width:1;"/><path d="M64.5988,313.1575 Q64.0206,313.4544 63.38,313.595 Q62.7394,313.7513 62.0363,313.7513 Q59.5363,313.7513 58.2081,312.1106 Q56.8956,310.4544 56.8956,307.3294 Q56.8956,304.2044 58.2081,302.5481 Q59.5363,300.8919 62.0363,300.8919 Q62.7394,300.8919 63.38,301.0481 Q64.0363,301.2044 64.5988,301.5013 L64.5988,304.22 Q63.9738,303.6419 63.38,303.3763 Q62.7863,303.095 62.1613,303.095 Q60.8175,303.095 60.13,304.1731 Q59.4425,305.2356 59.4425,307.3294 Q59.4425,309.4231 60.13,310.5013 Q60.8175,311.5638 62.1613,311.5638 Q62.7863,311.5638 63.38,311.2981 Q63.9738,311.0169 64.5988,310.4388 L64.5988,313.1575 Z " fill="#000000"/><text fill="#000000" font-family="sans-serif" font-size="14" lengthAdjust="spacing" textLength="110.7285" x="75.63" y="312.3636">SensorUmidade</text><line style="stroke:#181818;stroke-width:0.5;" x1="47.63" x2="188.3585" y1="323.5169" y2="323.5169"/><text fill="#000000" font-family="sans-serif" font-size="14" lengthAdjust="spacing" textLength="67.1357" x="52.63" y="340.512">-pino : int</text><text fill="#000000" font-family="sans-serif" font-size="14" lengthAdjust="spacing" textLength="121.6045" x="52.63" y="356.8089">-valorAtual : float</text><line style="stroke:#181818;stroke-width:0.5;" x1="47.63" x2="188.3585" y1="364.1106" y2="364.1106"/><text fill="#000000" font-family="sans-serif" font-size="14" lengthAdjust="spacing" textLength="122.3496" x="52.63" y="381.1057">+lerValor() : float</text></g><!--class MultiplexadorCD74HC4067--><g class="entity" data-entity="MultiplexadorCD74HC4067" data-source-line="14" data-uid="ent0003" id="entity_MultiplexadorCD74HC4067"><rect fill="#F1F1F1" height="96.8906" rx="2.5" ry="2.5" style="stroke:#181818;stroke-width:0.5;" width="221.9844" x="7" y="68.7369"/><ellipse cx="22" cy="84.7369" fill="#ADD1B2" rx="11" ry="11" style="stroke:#181818;stroke-width:1;"/><path d="M24.9688,90.3775 Q24.3906,90.6744 23.75,90.815 Q23.1094,90.9713 22.4063,90.9713 Q19.9063,90.9713 18.5781,89.3306 Q17.2656,87.6744 17.2656,84.5494 Q17.2656,81.4244 18.5781,79.7681 Q19.9063,78.1119 22.4063,78.1119 Q23.1094,78.1119 23.75,78.2681 Q24.4063,78.4244 24.9688,78.7213 L24.9688,81.44 Q24.3438,80.8619 23.75,80.5963 Q23.1563,80.315 22.5313,80.315 Q21.1875,80.315 20.5,81.3931 Q19.8125,82.4556 19.8125,84.5494 Q19.8125,86.6431 20.5,87.7213 Q21.1875,88.7838 22.5313,88.7838 Q23.1563,88.7838 23.75,88.5181 Q24.3438,88.2369 24.9688,87.6588 L24.9688,90.3775 Z " fill="#000000"/><text fill="#000000" font-family="sans-serif" font-size="14" lengthAdjust="spacing" textLength="189.9844" x="36" y="89.5836">MultiplexadorCD74HC4067</text><line style="stroke:#181818;stroke-width:0.5;" x1="8" x2="227.9844" y1="100.7369" y2="100.7369"/><text fill="#000000" font-family="sans-serif" font-size="14" lengthAdjust="spacing" textLength="110.9473" x="13" y="117.732">-canalAtual : int</text><line style="stroke:#181818;stroke-width:0.5;" x1="8" x2="227.9844" y1="125.0338" y2="125.0338"/><text fill="#000000" font-family="sans-serif" font-size="14" lengthAdjust="spacing" textLength="203.6084" x="13" y="142.0289">+selecionarCanal(canal : int)</text><text fill="#000000" font-family="sans-serif" font-size="14" lengthAdjust="spacing" textLength="125.6787" x="13" y="158.3257">+lerCanal() : float</text></g><!--class SensorDHT11--><g class="entity" data-entity="SensorDHT11" data-source-line="20" data-uid="ent0004" id="entity_SensorDHT11"><rect fill="#F1F1F1" height="145.7813" rx="2.5" ry="2.5" style="stroke:#181818;stroke-width:0.5;" width="194.0479" x="223.97" y="267.0769"/><ellipse cx="268.9129" cy="283.0769" fill="#ADD1B2" rx="11" ry="11" style="stroke:#181818;stroke-width:1;"/><path d="M271.8816,288.7175 Q271.3035,289.0144 270.6629,289.155 Q270.0222,289.3113 269.3191,289.3113 Q266.8191,289.3113 265.491,287.6706 Q264.1785,286.0144 264.1785,282.8894 Q264.1785,279.7644 265.491,278.1081 Q266.8191,276.4519 269.3191,276.4519 Q270.0222,276.4519 270.6629,276.6081 Q271.3191,276.7644 271.8816,277.0613 L271.8816,279.78 Q271.2566,279.2019 270.6629,278.9363 Q270.0691,278.655 269.4441,278.655 Q268.1004,278.655 267.4129,279.7331 Q266.7254,280.7956 266.7254,282.8894 Q266.7254,284.9831 267.4129,286.0613 Q268.1004,287.1238 269.4441,287.1238 Q270.0691,287.1238 270.6629,286.8581 Q271.2566,286.5769 271.8816,285.9988 L271.8816,288.7175 Z " fill="#000000"/><text fill="#000000" font-family="sans-serif" font-size="14" lengthAdjust="spacing" textLength="95.6621" x="289.4129" y="287.9236">SensorDHT11</text><line style="stroke:#181818;stroke-width:0.5;" x1="224.97" x2="417.0179" y1="299.0769" y2="299.0769"/><text fill="#000000" font-family="sans-serif" font-size="14" lengthAdjust="spacing" textLength="67.1357" x="229.97" y="316.072">-pino : int</text><text fill="#000000" font-family="sans-serif" font-size="14" lengthAdjust="spacing" textLength="138.3936" x="229.97" y="332.3689">-temperatura : float</text><text fill="#000000" font-family="sans-serif" font-size="14" lengthAdjust="spacing" textLength="111.4873" x="229.97" y="348.6657">-umidade : float</text><line style="stroke:#181818;stroke-width:0.5;" x1="224.97" x2="417.0179" y1="355.9675" y2="355.9675"/><text fill="#000000" font-family="sans-serif" font-size="14" lengthAdjust="spacing" textLength="128.2627" x="229.97" y="372.9626">+lerDados() : void</text><text fill="#000000" font-family="sans-serif" font-size="14" lengthAdjust="spacing" textLength="182.0479" x="229.97" y="389.2595">+getTemperatura() : float</text><text fill="#000000" font-family="sans-serif" font-size="14" lengthAdjust="spacing" textLength="153.4531" x="229.97" y="405.5564">+getUmidade() : float</text></g><!--class SensorLDR--><g class="entity" data-entity="SensorLDR" data-source-line="29" data-uid="ent0005" id="entity_SensorLDR"><rect fill="#F1F1F1" height="96.8906" rx="2.5" ry="2.5" style="stroke:#181818;stroke-width:0.5;" width="182.5703" x="452.71" y="291.5169"/><ellipse cx="501.5972" cy="307.5169" fill="#ADD1B2" rx="11" ry="11" style="stroke:#181818;stroke-width:1;"/><path d="M504.566,313.1575 Q503.9878,313.4544 503.3472,313.595 Q502.7066,313.7513 502.0035,313.7513 Q499.5035,313.7513 498.1753,312.1106 Q496.8628,310.4544 496.8628,307.3294 Q496.8628,304.2044 498.1753,302.5481 Q499.5035,300.8919 502.0035,300.8919 Q502.7066,300.8919 503.3472,301.0481 Q504.0035,301.2044 504.566,301.5013 L504.566,304.22 Q503.941,303.6419 503.3472,303.3763 Q502.7535,303.095 502.1285,303.095 Q500.7847,303.095 500.0972,304.1731 Q499.4097,305.2356 499.4097,307.3294 Q499.4097,309.4231 500.0972,310.5013 Q500.7847,311.5638 502.1285,311.5638 Q502.7535,311.5638 503.3472,311.2981 Q503.941,311.0169 504.566,310.4388 L504.566,313.1575 Z " fill="#000000"/><text fill="#000000" font-family="sans-serif" font-size="14" lengthAdjust="spacing" textLength="76.2959" x="522.0972" y="312.3636">SensorLDR</text><line style="stroke:#181818;stroke-width:0.5;" x1="453.71" x2="634.2803" y1="323.5169" y2="323.5169"/><text fill="#000000" font-family="sans-serif" font-size="14" lengthAdjust="spacing" textLength="67.1357" x="458.71" y="340.512">-pino : int</text><text fill="#000000" font-family="sans-serif" font-size="14" lengthAdjust="spacing" textLength="130.7988" x="458.71" y="356.8089">-luminosidade : int</text><line style="stroke:#181818;stroke-width:0.5;" x1="453.71" x2="634.2803" y1="364.1106" y2="364.1106"/><text fill="#000000" font-family="sans-serif" font-size="14" lengthAdjust="spacing" textLength="170.5703" x="458.71" y="381.1057">+lerLuminosidade() : int</text></g><!--class ValvulaSolenoide--><g class="entity" data-entity="ValvulaSolenoide" data-source-line="35" data-uid="ent0006" id="entity_ValvulaSolenoide"><rect fill="#F1F1F1" height="113.1875" rx="2.5" ry="2.5" style="stroke:#181818;stroke-width:0.5;" width="152.4561" x="670.76" y="283.3669"/><ellipse cx="685.76" cy="299.3669" fill="#ADD1B2" rx="11" ry="11" style="stroke:#181818;stroke-width:1;"/><path d="M688.7288,305.0075 Q688.1506,305.3044 687.51,305.445 Q686.8694,305.6013 686.1663,305.6013 Q683.6663,305.6013 682.3381,303.9606 Q681.0256,302.3044 681.0256,299.1794 Q681.0256,296.0544 682.3381,294.3981 Q683.6663,292.7419 686.1663,292.7419 Q686.8694,292.7419 687.51,292.8981 Q688.1663,293.0544 688.7288,293.3513 L688.7288,296.07 Q688.1038,295.4919 687.51,295.2263 Q686.9163,294.945 686.2913,294.945 Q684.9475,294.945 684.26,296.0231 Q683.5725,297.0856 683.5725,299.1794 Q683.5725,301.2731 684.26,302.3513 Q684.9475,303.4138 686.2913,303.4138 Q686.9163,303.4138 687.51,303.1481 Q688.1038,302.8669 688.7288,302.2888 L688.7288,305.0075 Z " fill="#000000"/><text fill="#000000" font-family="sans-serif" font-size="14" lengthAdjust="spacing" textLength="120.4561" x="699.76" y="304.2136">ValvulaSolenoide</text><line style="stroke:#181818;stroke-width:0.5;" x1="671.76" x2="822.2161" y1="315.3669" y2="315.3669"/><text fill="#000000" font-family="sans-serif" font-size="14" lengthAdjust="spacing" textLength="67.1357" x="676.76" y="332.362">-pino : int</text><text fill="#000000" font-family="sans-serif" font-size="14" lengthAdjust="spacing" textLength="96.0039" x="676.76" y="348.6589">-estado : bool</text><line style="stroke:#181818;stroke-width:0.5;" x1="671.76" x2="822.2161" y1="355.9606" y2="355.9606"/><text fill="#000000" font-family="sans-serif" font-size="14" lengthAdjust="spacing" textLength="106.4766" x="676.76" y="372.9557">+ativar() : void</text><text fill="#000000" font-family="sans-serif" font-size="14" lengthAdjust="spacing" textLength="131.2705" x="676.76" y="389.2526">+desativar() : void</text></g><!--class ControladorIrrigacao--><g class="entity" data-entity="ControladorIrrigacao" data-source-line="42" data-uid="ent0007" id="entity_ControladorIrrigacao"><rect fill="#F1F1F1" height="145.7813" rx="2.5" ry="2.5" style="stroke:#181818;stroke-width:0.5;" width="281.541" x="505.22" y="44.2969"/><ellipse cx="569.471" cy="60.2969" fill="#ADD1B2" rx="11" ry="11" style="stroke:#181818;stroke-width:1;"/><path d="M572.4397,65.9375 Q571.8616,66.2344 571.221,66.375 Q570.5804,66.5313 569.8772,66.5313 Q567.3772,66.5313 566.0491,64.8906 Q564.7366,63.2344 564.7366,60.1094 Q564.7366,56.9844 566.0491,55.3281 Q567.3772,53.6719 569.8772,53.6719 Q570.5804,53.6719 571.221,53.8281 Q571.8772,53.9844 572.4397,54.2813 L572.4397,57 Q571.8147,56.4219 571.221,56.1563 Q570.6272,55.875 570.0022,55.875 Q568.6585,55.875 567.971,56.9531 Q567.2835,58.0156 567.2835,60.1094 Q567.2835,62.2031 567.971,63.2813 Q568.6585,64.3438 570.0022,64.3438 Q570.6272,64.3438 571.221,64.0781 Q571.8147,63.7969 572.4397,63.2188 L572.4397,65.9375 Z " fill="#000000"/><text fill="#000000" font-family="sans-serif" font-size="14" lengthAdjust="spacing" textLength="144.5391" x="589.971" y="65.1436">ControladorIrrigacao</text><line style="stroke:#181818;stroke-width:0.5;" x1="506.22" x2="785.761" y1="76.2969" y2="76.2969"/><text fill="#000000" font-family="sans-serif" font-size="14" lengthAdjust="spacing" textLength="269.541" x="511.22" y="93.292">-sensoresSolo : List&lt;SensorUmidade&gt;</text><text fill="#000000" font-family="sans-serif" font-size="14" lengthAdjust="spacing" textLength="165.3818" x="511.22" y="109.5889">-sensorLuz : SensorLDR</text><text fill="#000000" font-family="sans-serif" font-size="14" lengthAdjust="spacing" textLength="189.5059" x="511.22" y="125.8857">-valvula : ValvulaSolenoide</text><line style="stroke:#181818;stroke-width:0.5;" x1="506.22" x2="785.761" y1="133.1875" y2="133.1875"/><text fill="#000000" font-family="sans-serif" font-size="14" lengthAdjust="spacing" textLength="195.4531" x="511.22" y="150.1826">+verificarCondicoes() : void</text><text fill="#000000" font-family="sans-serif" font-size="14" lengthAdjust="spacing" textLength="170.3105" x="511.22" y="166.4795">+iniciarIrrigacao() : void</text><text fill="#000000" font-family="sans-serif" font-size="14" lengthAdjust="spacing" textLength="165.293" x="511.22" y="182.7764">+pararIrrigacao() : void</text></g><!--class DisplayLCD--><g class="entity" data-entity="DisplayLCD" data-source-line="51" data-uid="ent0008" id="entity_DisplayLCD"><rect fill="#F1F1F1" height="64.2969" rx="2.5" ry="2.5" style="stroke:#181818;stroke-width:0.5;" width="279.0117" x="858.49" y="307.8169"/><ellipse cx="953.7659" cy="323.8169" fill="#ADD1B2" rx="11" ry="11" style="stroke:#181818;stroke-width:1;"/><path d="M956.7346,329.4575 Q956.1565,329.7544 955.5159,329.895 Q954.8753,330.0513 954.1721,330.0513 Q951.6721,330.0513 950.344,328.4106 Q949.0315,326.7544 949.0315,323.6294 Q949.0315,320.5044 950.344,318.8481 Q951.6721,317.1919 954.1721,317.1919 Q954.8753,317.1919 955.5159,317.3481 Q956.1721,317.5044 956.7346,317.8013 L956.7346,320.52 Q956.1096,319.9419 955.5159,319.6763 Q954.9221,319.395 954.2971,319.395 Q952.9534,319.395 952.2659,320.4731 Q951.5784,321.5356 951.5784,323.6294 Q951.5784,325.7231 952.2659,326.8013 Q952.9534,327.8638 954.2971,327.8638 Q954.9221,327.8638 955.5159,327.5981 Q956.1096,327.3169 956.7346,326.7388 L956.7346,329.4575 Z " fill="#000000"/><text fill="#000000" font-family="sans-serif" font-size="14" lengthAdjust="spacing" textLength="79.96" x="974.2659" y="328.6636">DisplayLCD</text><line style="stroke:#181818;stroke-width:0.5;" x1="859.49" x2="1136.5017" y1="339.8169" y2="339.8169"/><line style="stroke:#181818;stroke-width:0.5;" x1="859.49" x2="1136.5017" y1="347.8169" y2="347.8169"/><text fill="#000000" font-family="sans-serif" font-size="14" lengthAdjust="spacing" textLength="267.0117" x="864.49" y="364.812">+exibirMensagem(msg : String) : void</text></g><!--class ComunicadorWiFi--><g class="entity" data-entity="ComunicadorWiFi" data-source-line="55" data-uid="ent0009" id="entity_ComunicadorWiFi"><rect fill="#F1F1F1" height="129.4844" rx="2.5" ry="2.5" style="stroke:#181818;stroke-width:0.5;" width="263.6104" x="1172.19" y="275.2269"/><ellipse cx="1238.3585" cy="291.2269" fill="#ADD1B2" rx="11" ry="11" style="stroke:#181818;stroke-width:1;"/><path d="M1241.3272,296.8675 Q1240.7491,297.1644 1240.1085,297.305 Q1239.4678,297.4613 1238.7647,297.4613 Q1236.2647,297.4613 1234.9366,295.8206 Q1233.6241,294.1644 1233.6241,291.0394 Q1233.6241,287.9144 1234.9366,286.2581 Q1236.2647,284.6019 1238.7647,284.6019 Q1239.4678,284.6019 1240.1085,284.7581 Q1240.7647,284.9144 1241.3272,285.2113 L1241.3272,287.93 Q1240.7022,287.3519 1240.1085,287.0863 Q1239.5147,286.805 1238.8897,286.805 Q1237.546,286.805 1236.8585,287.8831 Q1236.171,288.9456 1236.171,291.0394 Q1236.171,293.1331 1236.8585,294.2113 Q1237.546,295.2738 1238.8897,295.2738 Q1239.5147,295.2738 1240.1085,295.0081 Q1240.7022,294.7269 1241.3272,294.1488 L1241.3272,296.8675 Z " fill="#000000"/><text fill="#000000" font-family="sans-serif" font-size="14" lengthAdjust="spacing" textLength="122.7734" x="1258.8585" y="296.0736">ComunicadorWiFi</text><line style="stroke:#181818;stroke-width:0.5;" x1="1173.19" x2="1434.8004" y1="307.2269" y2="307.2269"/><text fill="#000000" font-family="sans-serif" font-size="14" lengthAdjust="spacing" textLength="87.8145" x="1178.19" y="324.222">-ssid : String</text><text fill="#000000" font-family="sans-serif" font-size="14" lengthAdjust="spacing" textLength="102.6826" x="1178.19" y="340.5189">-senha : String</text><line style="stroke:#181818;stroke-width:0.5;" x1="1173.19" x2="1434.8004" y1="347.8206" y2="347.8206"/><text fill="#000000" font-family="sans-serif" font-size="14" lengthAdjust="spacing" textLength="127.1689" x="1178.19" y="364.8157">+conectar() : void</text><text fill="#000000" font-family="sans-serif" font-size="14" lengthAdjust="spacing" textLength="251.6104" x="1178.19" y="381.1126">+enviarDados(dados : String) : void</text><text fill="#000000" font-family="sans-serif" font-size="14" lengthAdjust="spacing" textLength="163.1943" x="1178.19" y="397.4095">+lerComando() : String</text></g><!--class ArduinoCloud--><g class="entity" data-entity="ArduinoCloud" data-source-line="63" data-uid="ent0010" id="entity_ArduinoCloud"><rect fill="#F1F1F1" height="96.8906" rx="2.5" ry="2.5" style="stroke:#181818;stroke-width:0.5;" width="188.9824" x="1209.5" y="489.8569"/><ellipse cx="1252.6571" cy="505.8569" fill="#ADD1B2" rx="11" ry="11" style="stroke:#181818;stroke-width:1;"/><path d="M1255.6258,511.4975 Q1255.0477,511.7944 1254.4071,511.935 Q1253.7665,512.0913 1253.0633,512.0913 Q1250.5633,512.0913 1249.2352,510.4506 Q1247.9227,508.7944 1247.9227,505.6694 Q1247.9227,502.5444 1249.2352,500.8881 Q1250.5633,499.2319 1253.0633,499.2319 Q1253.7665,499.2319 1254.4071,499.3881 Q1255.0633,499.5444 1255.6258,499.8413 L1255.6258,502.56 Q1255.0008,501.9819 1254.4071,501.7163 Q1253.8133,501.435 1253.1883,501.435 Q1251.8446,501.435 1251.1571,502.5131 Q1250.4696,503.5756 1250.4696,505.6694 Q1250.4696,507.7631 1251.1571,508.8413 Q1251.8446,509.9038 1253.1883,509.9038 Q1253.8133,509.9038 1254.4071,509.6381 Q1255.0008,509.3569 1255.6258,508.7788 L1255.6258,511.4975 Z " fill="#000000"/><text fill="#000000" font-family="sans-serif" font-size="14" lengthAdjust="spacing" textLength="94.4111" x="1272.9142" y="510.7036">ArduinoCloud</text><line style="stroke:#181818;stroke-width:0.5;" x1="1210.5" x2="1397.4824" y1="521.8569" y2="521.8569"/><line style="stroke:#181818;stroke-width:0.5;" x1="1210.5" x2="1397.4824" y1="529.8569" y2="529.8569"/><text fill="#000000" font-family="sans-serif" font-size="14" lengthAdjust="spacing" textLength="163.6387" x="1215.5" y="546.852">+sincronizarVariaveis()</text><text fill="#000000" font-family="sans-serif" font-size="14" lengthAdjust="spacing" textLength="153.0225" x="1215.5" y="563.1489">+enviarParaPlanilha()</text><text fill="#000000" font-family="sans-serif" font-size="14" lengthAdjust="spacing" textLength="176.9824" x="1215.5" y="579.4457">+lerComandosRemotos()</text></g><!--class GerenciadorEnergia--><g class="entity" data-entity="GerenciadorEnergia" data-source-line="69" data-uid="ent0011" id="entity_GerenciadorEnergia"><rect fill="#F1F1F1" height="96.8906" rx="2.5" ry="2.5" style="stroke:#181818;stroke-width:0.5;" width="190.4248" x="1675.78" y="68.7369"/><ellipse cx="1699.2865" cy="84.7369" fill="#ADD1B2" rx="11" ry="11" style="stroke:#181818;stroke-width:1;"/><path d="M1702.2552,90.3775 Q1701.6771,90.6744 1701.0365,90.815 Q1700.3959,90.9713 1699.6927,90.9713 Q1697.1927,90.9713 1695.8646,89.3306 Q1694.5521,87.6744 1694.5521,84.5494 Q1694.5521,81.4244 1695.8646,79.7681 Q1697.1927,78.1119 1699.6927,78.1119 Q1700.3959,78.1119 1701.0365,78.2681 Q1701.6927,78.4244 1702.2552,78.7213 L1702.2552,81.44 Q1701.6302,80.8619 1701.0365,80.5963 Q1700.4427,80.315 1699.8177,80.315 Q1698.474,80.315 1697.7865,81.3931 Q1697.099,82.4556 1697.099,84.5494 Q1697.099,86.6431 1697.7865,87.7213 Q1698.474,88.7838 1699.8177,88.7838 Q1700.4427,88.7838 1701.0365,88.5181 Q1701.6302,88.2369 1702.2552,87.6588 L1702.2552,90.3775 Z " fill="#000000"/><text fill="#000000" font-family="sans-serif" font-size="14" lengthAdjust="spacing" textLength="139.5215" x="1715.1768" y="89.5836">GerenciadorEnergia</text><line style="stroke:#181818;stroke-width:0.5;" x1="1676.78" x2="1865.2048" y1="100.7369" y2="100.7369"/><text fill="#000000" font-family="sans-serif" font-size="14" lengthAdjust="spacing" textLength="134.1826" x="1681.78" y="117.732">-nivelBateria : float</text><line style="stroke:#181818;stroke-width:0.5;" x1="1676.78" x2="1865.2048" y1="125.0338" y2="125.0338"/><text fill="#000000" font-family="sans-serif" font-size="14" lengthAdjust="spacing" textLength="160.2686" x="1681.78" y="142.0289">+verificarNivel() : float</text><text fill="#000000" font-family="sans-serif" font-size="14" lengthAdjust="spacing" textLength="178.4248" x="1681.78" y="158.3257">+estaCarregando() : bool</text></g><!--class PlacaSolar--><g class="entity" data-entity="PlacaSolar" data-source-line="75" data-uid="ent0012" id="entity_PlacaSolar"><rect fill="#F1F1F1" height="80.5938" rx="2.5" ry="2.5" style="stroke:#181818;stroke-width:0.5;" width="170.7578" x="1470.61" y="299.6669"/><ellipse cx="1515.3068" cy="315.6669" fill="#ADD1B2" rx="11" ry="11" style="stroke:#181818;stroke-width:1;"/><path d="M1518.2755,321.3075 Q1517.6974,321.6044 1517.0568,321.745 Q1516.4162,321.9013 1515.713,321.9013 Q1513.213,321.9013 1511.8849,320.2606 Q1510.5724,318.6044 1510.5724,315.4794 Q1510.5724,312.3544 1511.8849,310.6981 Q1513.213,309.0419 1515.713,309.0419 Q1516.4162,309.0419 1517.0568,309.1981 Q1517.713,309.3544 1518.2755,309.6513 L1518.2755,312.37 Q1517.6505,311.7919 1517.0568,311.5263 Q1516.463,311.245 1515.838,311.245 Q1514.4943,311.245 1513.8068,312.3231 Q1513.1193,313.3856 1513.1193,315.4794 Q1513.1193,317.5731 1513.8068,318.6513 Q1514.4943,319.7138 1515.838,319.7138 Q1516.463,319.7138 1517.0568,319.4481 Q1517.6505,319.1669 1518.2755,318.5888 L1518.2755,321.3075 Z " fill="#000000"/><text fill="#000000" font-family="sans-serif" font-size="14" lengthAdjust="spacing" textLength="72.8643" x="1535.8068" y="320.5136">PlacaSolar</text><line style="stroke:#181818;stroke-width:0.5;" x1="1471.61" x2="1640.3678" y1="331.6669" y2="331.6669"/><text fill="#000000" font-family="sans-serif" font-size="14" lengthAdjust="spacing" textLength="110.7148" x="1476.61" y="348.662">-potencia : float</text><line style="stroke:#181818;stroke-width:0.5;" x1="1471.61" x2="1640.3678" y1="355.9638" y2="355.9638"/><text fill="#000000" font-family="sans-serif" font-size="14" lengthAdjust="spacing" textLength="158.7578" x="1476.61" y="372.9589">+gerarEnergia() : float</text></g><!--class Bateria--><g class="entity" data-entity="Bateria" data-source-line="80" data-uid="ent0013" id="entity_Bateria"><rect fill="#F1F1F1" height="96.8906" rx="2.5" ry="2.5" style="stroke:#181818;stroke-width:0.5;" width="190.1445" x="1675.92" y="291.5169"/><ellipse cx="1741.4869" cy="307.5169" fill="#ADD1B2" rx="11" ry="11" style="stroke:#181818;stroke-width:1;"/><path d="M1744.4556,313.1575 Q1743.8775,313.4544 1743.2369,313.595 Q1742.5963,313.7513 1741.8931,313.7513 Q1739.3931,313.7513 1738.065,312.1106 Q1736.7525,310.4544 1736.7525,307.3294 Q1736.7525,304.2044 1738.065,302.5481 Q1739.3931,300.8919 1741.8931,300.8919 Q1742.5963,300.8919 1743.2369,301.0481 Q1743.8931,301.2044 1744.4556,301.5013 L1744.4556,304.22 Q1743.8306,303.6419 1743.2369,303.3763 Q1742.6431,303.095 1742.0181,303.095 Q1740.6744,303.095 1739.9869,304.1731 Q1739.2994,305.2356 1739.2994,307.3294 Q1739.2994,309.4231 1739.9869,310.5013 Q1740.6744,311.5638 1742.0181,311.5638 Q1742.6431,311.5638 1743.2369,311.2981 Q1743.8306,311.0169 1744.4556,310.4388 L1744.4556,313.1575 Z " fill="#000000"/><text fill="#000000" font-family="sans-serif" font-size="14" lengthAdjust="spacing" textLength="50.5107" x="1761.9869" y="312.3636">Bateria</text><line style="stroke:#181818;stroke-width:0.5;" x1="1676.92" x2="1865.0645" y1="323.5169" y2="323.5169"/><text fill="#000000" font-family="sans-serif" font-size="14" lengthAdjust="spacing" textLength="126.0273" x="1681.92" y="340.512">-cargaAtual : float</text><line style="stroke:#181818;stroke-width:0.5;" x1="1676.92" x2="1865.0645" y1="347.8138" y2="347.8138"/><text fill="#000000" font-family="sans-serif" font-size="14" lengthAdjust="spacing" textLength="178.1445" x="1681.92" y="364.8089">+fornecerEnergia() : void</text><text fill="#000000" font-family="sans-serif" font-size="14" lengthAdjust="spacing" textLength="139.8906" x="1681.92" y="381.1057">+recarregar() : void</text></g><!--class ControladorCarga--><g class="entity" data-entity="ControladorCarga" data-source-line="86" data-uid="ent0014" id="entity_ControladorCarga"><rect fill="#F1F1F1" height="80.5938" rx="2.5" ry="2.5" style="stroke:#181818;stroke-width:0.5;" width="194.8545" x="1900.56" y="299.6669"/><ellipse cx="1932.9197" cy="315.6669" fill="#ADD1B2" rx="11" ry="11" style="stroke:#181818;stroke-width:1;"/><path d="M1935.8885,321.3075 Q1935.3103,321.6044 1934.6697,321.745 Q1934.0291,321.9013 1933.326,321.9013 Q1930.826,321.9013 1929.4978,320.2606 Q1928.1853,318.6044 1928.1853,315.4794 Q1928.1853,312.3544 1929.4978,310.6981 Q1930.826,309.0419 1933.326,309.0419 Q1934.0291,309.0419 1934.6697,309.1981 Q1935.326,309.3544 1935.8885,309.6513 L1935.8885,312.37 Q1935.2635,311.7919 1934.6697,311.5263 Q1934.076,311.245 1933.451,311.245 Q1932.1072,311.245 1931.4197,312.3231 Q1930.7322,313.3856 1930.7322,315.4794 Q1930.7322,317.5731 1931.4197,318.6513 Q1932.1072,319.7138 1933.451,319.7138 Q1934.076,319.7138 1934.6697,319.4481 Q1935.2635,319.1669 1935.8885,318.5888 L1935.8885,321.3075 Z " fill="#000000"/><text fill="#000000" font-family="sans-serif" font-size="14" lengthAdjust="spacing" textLength="124.2773" x="1950.7774" y="320.5136">ControladorCarga</text><line style="stroke:#181818;stroke-width:0.5;" x1="1901.56" x2="2094.4145" y1="331.6669" y2="331.6669"/><line style="stroke:#181818;stroke-width:0.5;" x1="1901.56" x2="2094.4145" y1="339.6669" y2="339.6669"/><text fill="#000000" font-family="sans-serif" font-size="14" lengthAdjust="spacing" textLength="157.8281" x="1906.56" y="356.662">+regularCarga() : void</text><text fill="#000000" font-family="sans-serif" font-size="14" lengthAdjust="spacing" textLength="182.8545" x="1906.56" y="372.9589">+protegerSistema() : void</text></g><!--class PlanilhaOnline--><g class="entity" data-entity="PlanilhaOnline" data-source-line="101" data-uid="ent0022" id="entity_PlanilhaOnline"><rect fill="#F1F1F1" height="48" rx="2.5" ry="2.5" style="stroke:#181818;stroke-width:0.5;" width="132.1738" x="1237.91" y="663.7469"/><ellipse cx="1252.91" cy="679.7469" fill="#ADD1B2" rx="11" ry="11" style="stroke:#181818;stroke-width:1;"/><path d="M1255.8788,685.3875 Q1255.3006,685.6844 1254.66,685.825 Q1254.0194,685.9813 1253.3163,685.9813 Q1250.8163,685.9813 1249.4881,684.3406 Q1248.1756,682.6844 1248.1756,679.5594 Q1248.1756,676.4344 1249.4881,674.7781 Q1250.8163,673.1219 1253.3163,673.1219 Q1254.0194,673.1219 1254.66,673.2781 Q1255.3163,673.4344 1255.8788,673.7313 L1255.8788,676.45 Q1255.2538,675.8719 1254.66,675.6063 Q1254.0663,675.325 1253.4413,675.325 Q1252.0975,675.325 1251.41,676.4031 Q1250.7225,677.4656 1250.7225,679.5594 Q1250.7225,681.6531 1251.41,682.7313 Q1252.0975,683.7938 1253.4413,683.7938 Q1254.0663,683.7938 1254.66,683.5281 Q1255.2538,683.2469 1255.8788,682.6688 L1255.8788,685.3875 Z " fill="#000000"/><text fill="#000000" font-family="sans-serif" font-size="14" lengthAdjust="spacing" textLength="100.1738" x="1266.91" y="684.5936">PlanilhaOnline</text><line style="stroke:#181818;stroke-width:0.5;" x1="1238.91" x2="1369.0838" y1="695.7469" y2="695.7469"/><line style="stroke:#181818;stroke-width:0.5;" x1="1238.91" x2="1369.0838" y1="703.7469" y2="703.7469"/></g><!--link ControladorIrrigacao to SensorUmidade--><g class="link" data-entity-1="ControladorIrrigacao" data-entity-2="SensorUmidade" data-source-line="93" data-uid="lnk15" id="link_ControladorIrrigacao_SensorUmidade"><path codeLine="93" d="M504.86,152.0169 C415.79,176.6769 300.18,214.9269 205.99,267.0769 C193.74,273.8569 186.235,278.709 174.965,287.529" fill="none" id="ControladorIrrigacao-to-SensorUmidade" style="stroke:#181818;stroke-width:1;"/><polygon fill="#181818" points="170.24,291.2269,179.7928,288.8301,174.1775,288.1453,174.8623,282.5301,170.24,291.2269" style="stroke:#181818;stroke-width:1;"/><text fill="#000000" font-family="sans-serif" font-size="13" lengthAdjust="spacing" textLength="22.9785" x="298.99" y="233.1438">usa</text></g><!--link ControladorIrrigacao to SensorLDR--><g class="link" data-entity-1="ControladorIrrigacao" data-entity-2="SensorLDR" data-source-line="94" data-uid="lnk16" id="link_ControladorIrrigacao_SensorLDR"><path codeLine="94" d="M612.59,190.4769 C597.31,223.5469 582.1468,256.3803 568.5568,285.7903" fill="none" id="ControladorIrrigacao-to-SensorLDR" style="stroke:#181818;stroke-width:1;"/><polygon fill="#181818" points="566.04,291.2369,573.4463,284.7448,568.1373,286.698,566.1841,281.3891,566.04,291.2369" style="stroke:#181818;stroke-width:1;"/><text fill="#000000" font-family="sans-serif" font-size="13" lengthAdjust="spacing" textLength="22.9785" x="599.99" y="233.1438">usa</text></g><!--link ControladorIrrigacao to ValvulaSolenoide--><g class="link" data-entity-1="ControladorIrrigacao" data-entity-2="ValvulaSolenoide" data-source-line="95" data-uid="lnk17" id="link_ControladorIrrigacao_ValvulaSolenoide"><path codeLine="95" d="M679.06,190.4769 C692.81,220.5369 706.034,249.4307 718.884,277.5207" fill="none" id="ControladorIrrigacao-to-ValvulaSolenoide" style="stroke:#181818;stroke-width:1;"/><polygon fill="#181818" points="721.38,282.9769,721.2735,273.1286,719.3,278.43,713.9986,276.4566,721.38,282.9769" style="stroke:#181818;stroke-width:1;"/><text fill="#000000" font-family="sans-serif" font-size="13" lengthAdjust="spacing" textLength="53.314" x="700.99" y="233.1438">controla</text></g><!--link ControladorIrrigacao to SensorDHT11--><g class="link" data-entity-1="ControladorIrrigacao" data-entity-2="SensorDHT11" data-source-line="96" data-uid="lnk18" id="link_ControladorIrrigacao_SensorDHT11"><path codeLine="96" d="M539.58,190.4769 C500.51,217.0069 461.4833,243.5256 423.2633,269.4856" fill="none" id="ControladorIrrigacao-to-SensorDHT11" style="stroke:#181818;stroke-width:1;"/><polygon fill="#181818" points="418.3,272.8569,427.9925,271.1089,422.4361,270.0475,423.4975,264.4911,418.3,272.8569" style="stroke:#181818;stroke-width:1;"/><text fill="#000000" font-family="sans-serif" font-size="13" lengthAdjust="spacing" textLength="58.8301" x="494.99" y="233.1438">monitora</text></g><!--link ControladorIrrigacao to DisplayLCD--><g class="link" data-entity-1="ControladorIrrigacao" data-entity-2="DisplayLCD" data-source-line="97" data-uid="lnk19" id="link_ControladorIrrigacao_DisplayLCD"><path codeLine="97" d="M761.25,190.4769 C824.41,230.0869 894.3769,273.9791 942.7869,304.3391" fill="none" id="ControladorIrrigacao-to-DisplayLCD" style="stroke:#181818;stroke-width:1;"/><polygon fill="#181818" points="947.87,307.5269,942.3706,299.3564,943.6341,304.8704,938.1202,306.1339,947.87,307.5269" style="stroke:#181818;stroke-width:1;"/><text fill="#000000" font-family="sans-serif" font-size="13" lengthAdjust="spacing" textLength="79.5869" x="833.99" y="233.1438">envia status</text></g><!--link ControladorIrrigacao to ComunicadorWiFi--><g class="link" data-entity-1="ControladorIrrigacao" data-entity-2="ComunicadorWiFi" data-source-line="98" data-uid="lnk20" id="link_ControladorIrrigacao_ComunicadorWiFi"><path codeLine="98" d="M787.13,152.7669 C890.46,179.6969 1033.28,220.2769 1154.99,267.0769 C1161.29,269.4969 1162.1579,269.7539 1168.5879,272.4539" fill="none" id="ControladorIrrigacao-to-ComunicadorWiFi" style="stroke:#181818;stroke-width:1;"/><polygon fill="#181818" points="1174.12,274.7769,1167.3705,267.6044,1169.5099,272.8411,1164.2732,274.9805,1174.12,274.7769" style="stroke:#181818;stroke-width:1;"/><text fill="#000000" font-family="sans-serif" font-size="13" lengthAdjust="spacing" textLength="62.9688" x="1060.99" y="233.1438">comunica</text></g><!--link ComunicadorWiFi to ArduinoCloud--><g class="link" data-entity-1="ComunicadorWiFi" data-entity-2="ArduinoCloud" data-source-line="100" data-uid="lnk21" id="link_ComunicadorWiFi_ArduinoCloud"><path codeLine="100" d="M1303.99,404.9769 C1303.99,432.5069 1303.99,458.1269 1303.99,483.5569" fill="none" id="ComunicadorWiFi-to-ArduinoCloud" style="stroke:#181818;stroke-width:1;"/><polygon fill="#181818" points="1303.99,489.5569,1307.99,480.5569,1303.99,484.5569,1299.99,480.5569,1303.99,489.5569" style="stroke:#181818;stroke-width:1;"/><text fill="#000000" font-family="sans-serif" font-size="13" lengthAdjust="spacing" textLength="46.5093" x="1304.99" y="455.9238">integra</text></g><!--link ArduinoCloud to PlanilhaOnline--><g class="link" data-entity-1="ArduinoCloud" data-entity-2="PlanilhaOnline" data-source-line="101" data-uid="lnk23" id="link_ArduinoCloud_PlanilhaOnline"><path codeLine="101" d="M1303.99,587.1769 C1303.99,612.7369 1303.99,637.0469 1303.99,657.4569" fill="none" id="ArduinoCloud-to-PlanilhaOnline" style="stroke:#181818;stroke-width:1;"/><polygon fill="#181818" points="1303.99,663.4569,1307.99,654.4569,1303.99,658.4569,1299.99,654.4569,1303.99,663.4569" style="stroke:#181818;stroke-width:1;"/><text fill="#000000" font-family="sans-serif" font-size="13" lengthAdjust="spacing" textLength="63.3813" x="1304.99" y="629.8138">envia e l&#234;</text></g><!--link MultiplexadorCD74HC4067 to SensorUmidade--><g class="link" data-entity-1="MultiplexadorCD74HC4067" data-entity-2="SensorUmidade" data-source-line="103" data-uid="lnk24" id="link_MultiplexadorCD74HC4067_SensorUmidade"><path codeLine="103" d="M117.99,166.0869 C117.99,203.1269 117.99,248.1469 117.99,285.1569" fill="none" id="MultiplexadorCD74HC4067-to-SensorUmidade" style="stroke:#181818;stroke-width:1;"/><polygon fill="#181818" points="117.99,291.1569,121.99,282.1569,117.99,286.1569,113.99,282.1569,117.99,291.1569" style="stroke:#181818;stroke-width:1;"/><text fill="#000000" font-family="sans-serif" font-size="13" lengthAdjust="spacing" textLength="57.4463" x="118.99" y="233.1438">l&#234; canais</text></g><!--link GerenciadorEnergia to Bateria--><g class="link" data-entity-1="GerenciadorEnergia" data-entity-2="Bateria" data-source-line="105" data-uid="lnk25" id="link_GerenciadorEnergia_Bateria"><path codeLine="105" d="M1770.99,166.0869 C1770.99,203.1269 1770.99,248.1469 1770.99,285.1569" fill="none" id="GerenciadorEnergia-to-Bateria" style="stroke:#181818;stroke-width:1;"/><polygon fill="#181818" points="1770.99,291.1569,1774.99,282.1569,1770.99,286.1569,1766.99,282.1569,1770.99,291.1569" style="stroke:#181818;stroke-width:1;"/><text fill="#000000" font-family="sans-serif" font-size="13" lengthAdjust="spacing" textLength="58.8301" x="1771.99" y="233.1438">monitora</text></g><!--link GerenciadorEnergia to PlacaSolar--><g class="link" data-entity-1="GerenciadorEnergia" data-entity-2="PlacaSolar" data-source-line="106" data-uid="lnk26" id="link_GerenciadorEnergia_PlacaSolar"><path codeLine="106" d="M1721.91,166.0369 C1704.73,182.9769 1685.38,202.2569 1667.99,220.0769 C1642.54,246.1569 1618.511,271.6178 1596.821,294.8878" fill="none" id="GerenciadorEnergia-to-PlacaSolar" style="stroke:#181818;stroke-width:1;"/><polygon fill="#181818" points="1592.73,299.2769,1601.7925,295.4207,1596.1392,295.6194,1595.9405,289.966,1592.73,299.2769" style="stroke:#181818;stroke-width:1;"/><text fill="#000000" font-family="sans-serif" font-size="13" lengthAdjust="spacing" textLength="93.3169" x="1668.99" y="233.1438">coleta energia</text></g><!--link GerenciadorEnergia to ControladorCarga--><g class="link" data-entity-1="GerenciadorEnergia" data-entity-2="ControladorCarga" data-source-line="107" data-uid="lnk27" id="link_GerenciadorEnergia_ControladorCarga"><path codeLine="107" d="M1820.25,166.0869 C1861.19,205.9169 1914.469,257.7234 1952.879,295.0834" fill="none" id="GerenciadorEnergia-to-ControladorCarga" style="stroke:#181818;stroke-width:1;"/><polygon fill="#181818" points="1957.18,299.2669,1953.5174,290.1244,1953.5958,295.7807,1947.9395,295.8591,1957.18,299.2669" style="stroke:#181818;stroke-width:1;"/><text fill="#000000" font-family="sans-serif" font-size="13" lengthAdjust="spacing" textLength="128.6162" x="1892.99" y="233.1438">gerencia seguran&#231;a</text></g><!--SRC=[XLNDJjj04BxxAVPM48e44YfIL91I9osHGeWmRS-3FPXfrxlHxZgYL7sQ7f3w6dcnplgFsB6R752OcPtvlfdv9ewSH76Z4vHQ92X22TQYzLzNHdz7fyL8p8sX5BQlspzQJ7AdCt3q0Wa4mJiniuxugLx7f1N8mFuWjGO3cOXzgebpXXvoX_DOguXUK9pwLvVz7n4k9b4qYyJgRhuCvwl9F1eAlGo2ee28K5bjlcIK08F-5GW6l2QbnLYGSiM_6v3QJ5mEaesFKeCtdmY9vglt71qtvjzrrfjSEbfBV8P4ct1wSNuTdf- -lwZony1KwuHbbHDXKMBH11Dwzr4HLFgFwtgbfwTUoM9wVNzsri_1ORP60outi4DY9FAAU8VOb77Rej16Kr9OKtJtRqbsG5JEgeN3w1RJktviaa4eRMiWTKCOncB7KoJslYOjTt-JIuYqHCKe1wQ7rZ4PDZneBOl4l7uRC6rs2TgkkQaJQkMCbdwKvIh7eAjQjc26bZ7u4WkoxaDhewvsmXRv2ySqpQXtotDWUvTD0Mk3XXufvftGAg5OOsSef2WcU8FLzdeXzVaQPbEoQma_5-6qu7CYy9aUoDmmH4WnEyfiwX6p1bNQrvSiv_g-Bz_e4zKjuN4rZshsJx1hEX6iPenTTmYeDaoctBt4_zqlNWk1ZuXAIafLsWRMn2Gvhq0eTPvKj2ofs6Z5LuSbQmWsIDp8dPehxjHAWYBv14V7dIhs3ZFjl1xUYdn6WufRpznd2arAKD5Nj47v4HmF3beIQKQvz14T_VWb3S4OJ1jQnReszHXSx7S3JBtbsXK0EZBaWLTu-eHOuwhFa4bX_wuzQiF3mLQUflS6unBc0Q64FdVLVGxdnIvDdGKrp891HwmRpA2LSlZAtyqMat1-kvpSp9RtjyCdtX_vNksEHbUTkpyMkOL3mVw07GZSEqbZl-f5xA7ivV4UYuptr6dpd_WTrOxB_HMyFYwtmq-wKlMmIejlKTlduriQAcuffWofPVPnjMPkbII53HmKSlit28P-1Vlwpm-AtqMoGT0ZBl_aJLLDZmOYTzJYcKfqZAdq3ptPszsnLrCfCSiBR41jN-4V]--></g></svg>